<svg width="308" height="301" viewBox="0 0 308 301" fill="none" xmlns="http://www.w3.org/2000/svg">
<path d="M271.591 258.457C263.72 266.57 256.677 271.339 251.285 274.94C198.698 310.053 138.584 299.933 119.999 296.473C90.0133 290.892 64.7014 286.955 42.9539 267.307C-6.46291 222.661 -4.05935 129.526 33.7011 71.8327C38.1783 64.992 75.8817 9.10399 136.125 1.22885C137.599 1.03629 138.698 0.926528 139.661 0.824534C148.981 -0.162205 206.732 -5.36996 253.822 34.0824C260.563 39.7299 271.411 49.9163 281.47 65.4523C318.252 122.259 318.369 210.24 271.591 258.457Z" fill="url(#paint0_linear_130_2862)"/>
<path d="M78.4981 14.135C71.3096 14.7601 65.7981 20.7806 65.7776 27.9963C65.6524 72.1234 65.446 224.33 68.3222 278.202C68.6269 283.91 73.3059 288.393 79.0211 288.455C107.288 288.759 188.598 289.318 234.757 286.365C244.372 285.75 251.853 277.788 251.841 268.154C251.785 221.841 251.045 91.5926 244.701 32.0577C243.941 24.9245 238.207 19.3567 231.055 18.7994C200.226 16.3973 118.357 10.6685 78.4981 14.135Z" fill="url(#paint1_linear_130_2862)"/>
<path d="M77.1242 39.5608C76.5691 77.3076 74.9886 202.876 77.7476 249.221C78.1509 255.995 83.4128 261.343 89.9099 261.569C116.661 262.501 185.259 264.305 224.347 260.004C231.386 259.23 236.765 253.129 236.952 245.742C237.93 207.221 240.571 90.2691 237.89 44.4423C237.462 37.1317 231.877 31.2983 224.875 30.8266C195.911 28.8749 121.533 24.3738 88.2932 27.1419C82.0535 27.6616 77.2203 33.0259 77.1242 39.5608Z" fill="#91B3FA"/>
<path d="M141.758 20.6979C141.781 21.7407 142.612 22.583 143.655 22.6147C148.802 22.7712 163.302 23.215 169.783 23.4485C171.061 23.4945 172.038 22.3253 171.768 21.0753C171.746 21.036 171.58 19.4333 169.943 19.3195C165.559 19.0146 152.332 18.1928 143.592 18.6971C141.797 18.8007 141.699 20.8419 141.758 20.6979Z" fill="url(#paint2_linear_130_2862)"/>
<path d="M108.522 153.554C108.522 153.554 145.393 144.305 184.35 149.882C195.311 151.452 205.02 157.829 210.935 167.189C221.592 184.055 236.66 214.11 233.473 245.456L216.745 249.592C216.745 249.592 205.185 212.394 192.173 197.254C192.173 197.254 176.763 232.379 177.543 251.667C177.565 252.212 177.6 252.745 177.648 253.264C179.416 272.135 103.677 256.785 103.677 256.785L108.522 153.554Z" fill="url(#paint3_linear_130_2862)"/>
<path d="M148.383 122.065L140.533 147.069C139.803 149.395 140.53 151.886 142.353 153.291C146.555 156.527 154.86 161.678 165.007 161.53C166.863 161.503 168.424 159.919 168.554 157.974L171.343 116.183L148.383 122.065Z" fill="url(#paint4_linear_130_2862)"/>
<path d="M178.778 94.662C178.778 94.662 181.827 114.353 179.907 123.763C177.987 133.174 178.404 139.717 167.19 138.767C155.975 137.817 148.345 130.101 145.878 119.577C145.878 119.577 141.95 103.326 145.202 97.9486C148.454 92.5707 178.778 94.662 178.778 94.662Z" fill="url(#paint5_linear_130_2862)"/>
<path d="M151.288 113.897L152.644 114.253C152.644 114.253 150.068 101.329 155.505 100.605C160.942 99.8818 181.425 101.025 187.432 95.2291C193.223 89.6413 191.874 80.1034 187.11 76.2817C186.808 76.0399 186.364 76.0948 186.102 76.3794L185.433 77.1076C184.975 77.6064 184.143 77.2939 184.126 76.6167C184.11 75.9746 183.34 75.6328 182.873 76.074C181.047 77.7996 176.688 80.2405 166.911 79.5115C153.038 78.477 142.883 81.5337 140.266 90.6217C140.1 91.1974 139.397 91.354 138.981 90.9225C138.161 90.0705 136.671 89.3805 134.12 90.5881C129.685 92.6885 129.089 101.004 135.341 109.615C135.638 110.024 135.479 110.615 135 110.774C133.309 111.334 130.569 113.005 135.363 117.452C140.267 122.001 143.73 122.555 145.09 122.564C145.456 122.566 145.769 122.314 145.84 121.956L147.468 113.72C147.553 113.294 147.979 113.028 148.398 113.138L151.288 113.897Z" fill="url(#paint6_linear_130_2862)"/>
<path d="M151.175 115.68C151.175 115.68 151.206 103.622 145.314 105.457C139.422 107.292 144.617 118.794 148.575 120.285L151.175 115.68Z" fill="url(#paint7_linear_130_2862)"/>
<path d="M110.061 232.759C108.428 221.226 119.061 200.264 124.002 193.831C125.415 191.991 126.205 189.741 126.225 187.421C126.37 171.087 119.511 160.598 108.523 153.554C108.523 153.554 68.64 200.018 78.7952 235.758C79.8908 239.614 81.5891 242.928 83.7422 245.776C85.3425 232.309 102.217 233.38 110.061 232.759Z" fill="url(#paint8_linear_130_2862)"/>
<path d="M109.495 224.289L107.976 224.116C109.264 212.806 119.188 198.844 123.395 193.365L124.608 194.297C120.479 199.674 110.741 213.36 109.495 224.289Z" fill="url(#paint9_linear_130_2862)"/>
<path d="M110.264 232.218C105.778 232.225 85.1423 232.932 83.2368 245.243C101.035 268.783 150.092 260.29 150.092 260.29V251.13C150.092 251.13 119.34 245.546 111.523 232.92C111.253 232.483 110.778 232.217 110.264 232.218Z" fill="url(#paint10_linear_130_2862)"/>
<path d="M145.882 258.293C145.882 258.293 153.125 241.201 165.888 247.264C178.652 253.327 177.648 257.294 177.648 257.294L145.882 258.293Z" fill="url(#paint11_linear_130_2862)"/>
<path d="M144.255 261.84C144.356 263.133 145.458 264.117 146.754 264.071L212.893 261.764C213.92 261.728 214.814 261.047 215.121 260.066L217.04 253.923C217.512 252.414 216.435 250.864 214.856 250.781L190.738 249.5C190.519 249.488 190.3 249.506 190.086 249.553L146.146 259.285C144.967 259.546 144.16 260.636 144.255 261.84Z" fill="url(#paint12_linear_130_2862)"/>
<path d="M188.588 259.426L190.408 250.946L215.182 252.129L213.552 259.164L188.588 259.426Z" fill="url(#paint13_linear_130_2862)"/>
<path d="M175.888 168.151C174.486 179.608 168.178 226.156 166.373 239.456C166.119 241.326 167.604 242.971 169.491 242.917L276.491 239.855C277.891 239.815 279.085 238.829 279.389 237.462L296.033 162.502C296.474 160.521 294.896 158.668 292.869 158.787L178.744 165.471C177.268 165.558 176.067 166.684 175.888 168.151Z" fill="url(#paint14_linear_130_2862)"/>
<path d="M218.897 215.158L203.083 260.043L239.855 260.822L242.917 215.427C243.06 213.297 241.294 211.529 239.163 211.67L221.991 212.81C220.583 212.904 219.366 213.827 218.897 215.158Z" fill="url(#paint15_linear_130_2862)"/>
<path d="M188.176 260.683C187.77 261.918 188.691 263.188 189.99 263.188H247.576C248.631 263.188 249.486 262.333 249.486 261.278V258.808C249.486 257.721 248.58 256.854 247.495 256.9L189.909 259.37C189.114 259.404 188.424 259.927 188.176 260.683Z" fill="url(#paint16_linear_130_2862)"/>
<path d="M174.271 215.505L173.512 215.409L178.769 173.949C179.095 171.376 181.209 169.397 183.796 169.241L282.419 163.285L282.465 164.049L183.843 170.005C181.622 170.138 179.808 171.837 179.528 174.044L174.271 215.505Z" fill="#91B3FA"/>
<path d="M172.026 227.213L170.895 236.19L171.654 236.286L172.785 227.309L172.026 227.213Z" fill="#91B3FA"/>
<path d="M168.275 128.392C156.393 129.289 149.486 117.003 149.418 116.878L150.214 116.44C150.28 116.559 156.912 128.339 168.207 127.486L168.275 128.392Z" fill="url(#paint17_linear_130_2862)"/>
<path d="M173.119 127.932C173.119 128.637 172.548 129.208 171.844 129.208H168.444C167.74 129.208 167.169 128.637 167.169 127.932C167.169 127.228 167.74 126.657 168.444 126.657H171.844C172.548 126.657 173.119 127.228 173.119 127.932Z" fill="url(#paint18_linear_130_2862)"/>
<path d="M150.237 103.249C150.237 103.249 154.502 81.3745 167.066 79.3107C167.066 79.3107 163.508 77.5193 159.799 79.4624C156.089 81.4054 146.713 92.0527 147.095 103.789C149.646 104.707 150.237 103.249 150.237 103.249Z" fill="url(#paint19_linear_130_2862)"/>
<path d="M148.054 102.214C141.522 103.539 142.325 111.8 142.325 111.8C141.854 117.794 143.604 120.766 145.846 122.182C147.378 123.15 149.306 123.239 150.923 122.423C152.54 121.607 153.612 120.003 153.745 118.196C153.866 116.565 154.004 115.014 154.125 114.463C154.418 113.128 154.586 100.888 148.054 102.214Z" fill="url(#paint20_linear_130_2862)"/>
<path d="M148.654 104.303C147.298 104.067 145.961 104.788 145.415 106.052C141.511 115.095 146.305 120.978 148.658 121.101C151.138 121.23 151.088 109.298 150.561 106.239C150.34 104.958 149.526 104.455 148.654 104.303Z" fill="url(#paint21_linear_130_2862)"/>
<path d="M242.925 142.377C265.161 142.377 283.187 124.351 283.187 102.114C283.187 79.8778 265.161 61.8516 242.925 61.8516C220.688 61.8516 202.662 79.8778 202.662 102.114C202.662 124.351 220.688 142.377 242.925 142.377Z" fill="white"/>
<path d="M241.423 127.422C239.527 127.546 237.763 126.664 236.781 125.088L220.295 98.6151C218.75 96.1344 219.583 92.7364 222.154 91.0262C224.722 89.317 228.056 89.9414 229.599 92.4212L241.032 110.797L256.118 80.073C257.472 77.3157 260.725 76.0508 263.381 77.2468C266.038 78.4423 267.095 81.6449 265.743 84.4004L246.248 124.137C245.355 125.956 243.58 127.208 241.614 127.406C241.55 127.412 241.487 127.418 241.423 127.422Z" fill="url(#paint22_linear_130_2862)"/>
<path d="M111.627 289.847V242.092C111.627 235.818 106.584 230.712 100.31 230.644C81.4809 230.439 42.6458 230.429 10.8704 233.106C6.53435 233.472 3.16163 237.026 3.00443 241.374L0.0346192 287.544C-0.186082 293.65 4.64206 298.752 10.7518 298.868L100.69 300.578C106.696 300.692 111.627 295.854 111.627 289.847Z" fill="url(#paint23_linear_130_2862)"/>
<path d="M100.721 247.259C100.801 251.322 100.68 257.77 100.581 261.935C100.53 264.102 98.6275 265.754 96.4745 265.501L80.9784 263.685C78.9141 263.443 77.4597 261.541 77.7677 259.485L79.6699 246.796C79.9399 244.995 81.4873 243.662 83.3089 243.662H97.0419C99.0429 243.662 100.681 245.258 100.721 247.259Z" fill="white"/>
<path opacity="0.37" d="M60.2244 271.306L47.2978 272.701C45.489 272.896 43.9456 271.404 44.0788 269.59L46.9048 231.137C52.3236 230.965 57.6685 230.84 62.826 230.752V268.409C62.826 269.897 61.7044 271.146 60.2244 271.306Z" fill="white"/>
<path d="M54.9263 264.641C54.8865 265.333 54.3134 265.866 53.6295 265.866C53.604 265.866 53.5786 265.865 53.5532 265.864C52.8362 265.822 52.2885 265.208 52.3309 264.491L54.28 230.931C55.1541 230.909 56.0209 230.889 56.8878 230.87L54.9263 264.641Z" fill="white"/>
<path d="M93.5542 259.372C93.781 259.372 93.9723 259.195 93.9867 258.965L94.6571 248.395C94.6723 248.156 94.4912 247.95 94.2516 247.935C94.0002 247.915 93.8072 248.102 93.7919 248.34L93.1215 258.911C93.1063 259.15 93.2874 259.355 93.527 259.371C93.5364 259.372 93.5457 259.372 93.5542 259.372Z" fill="url(#paint24_linear_130_2862)"/>
<path d="M92.1745 259.372C92.4073 259.372 92.6002 259.187 92.6079 258.953L92.9592 248.18C92.9667 247.94 92.7789 247.74 92.5402 247.732C92.2641 247.719 92.1008 247.912 92.0923 248.151L91.7409 258.924C91.7333 259.164 91.9213 259.364 92.16 259.372C92.16 259.372 92.1701 259.372 92.1745 259.372Z" fill="url(#paint25_linear_130_2862)"/>
<path d="M90.3034 259.371C90.0639 259.36 89.8794 259.157 89.8912 258.918C90.063 255.299 90.3907 248.397 90.3956 248.162C90.3974 247.925 90.5912 247.732 90.8291 247.732C91.0686 247.732 91.2625 247.926 91.2625 248.166C91.2625 248.344 90.8409 257.188 90.7563 258.959C90.7453 259.192 90.5539 259.372 90.3236 259.372C90.317 259.372 90.3102 259.372 90.3034 259.371Z" fill="url(#paint26_linear_130_2862)"/>
<path d="M87.4347 259.806C87.8996 259.806 88.2838 259.437 88.2999 258.969C88.6665 248.532 88.6021 248.296 88.5598 248.14C88.4346 247.677 87.9537 247.406 87.4957 247.532C87.0715 247.648 86.8066 248.059 86.8642 248.483C86.8921 249.111 86.6983 255.184 86.5679 258.908C86.551 259.386 86.9251 259.789 87.4034 259.805C87.4135 259.806 87.4245 259.806 87.4347 259.806Z" fill="url(#paint27_linear_130_2862)"/>
<path d="M85.5564 259.372C85.796 259.372 85.9898 259.178 85.9898 258.938V248.368C85.9898 248.128 85.7959 247.935 85.5564 247.935C85.3168 247.935 85.123 248.128 85.123 248.368V258.938C85.123 259.178 85.3168 259.372 85.5564 259.372Z" fill="url(#paint28_linear_130_2862)"/>
<path d="M84.0395 259.372C84.2747 259.372 84.4678 259.184 84.4729 258.949C84.5559 255.276 84.7498 249.277 84.9233 248.555C84.9994 248.419 84.9985 248.246 84.9072 248.106C84.776 247.905 84.5076 247.85 84.307 247.982C84.0707 248.136 83.8465 248.283 83.6061 258.929C83.601 259.168 83.7905 259.366 84.0293 259.372H84.0395Z" fill="url(#paint29_linear_130_2862)"/>
<path d="M95.8865 260.334C96.3445 260.334 96.7271 259.975 96.7517 259.512L97.3298 248.413C97.3544 247.934 96.9869 247.527 96.5087 247.502C96.055 247.47 95.6232 247.845 95.5978 248.323L95.0197 259.423C94.9951 259.901 95.3625 260.308 95.8407 260.334C95.8559 260.334 95.8712 260.334 95.8865 260.334Z" fill="url(#paint30_linear_130_2862)"/>
<path d="M87.9634 225.221V191.684C87.9634 187.278 84.4223 183.692 80.0163 183.644C66.7927 183.5 39.5198 183.493 17.2047 185.374C14.1596 185.63 11.791 188.126 11.6806 191.18L9.59496 223.604C9.43992 227.892 12.8306 231.475 17.1213 231.557L80.2826 232.757C84.5008 232.837 87.9634 229.44 87.9634 225.221Z" fill="url(#paint31_linear_130_2862)"/>
<path d="M80.3042 195.312C80.3604 198.166 80.2757 202.694 80.2063 205.619C80.1701 207.141 78.8341 208.301 77.3219 208.123L66.4395 206.848C64.9898 206.678 63.9683 205.342 64.1847 203.898L65.5204 194.987C65.7101 193.722 66.7969 192.786 68.076 192.786H77.7204C79.1258 192.786 80.2764 193.907 80.3042 195.312Z" fill="white"/>
<path opacity="0.37" d="M51.8647 212.2L42.7866 213.179C41.5164 213.316 40.4326 212.269 40.5262 210.995L42.5107 183.99C46.3162 183.87 50.0699 183.782 53.6918 183.72V210.165C53.6918 211.21 52.904 212.088 51.8647 212.2Z" fill="white"/>
<path d="M48.1442 207.52C48.1162 208.006 47.7138 208.381 47.2334 208.381C47.2156 208.381 47.1977 208.38 47.1799 208.379C46.6764 208.35 46.2918 207.918 46.3214 207.414L47.6903 183.846C48.3041 183.831 48.9128 183.817 49.5215 183.804L48.1442 207.52Z" fill="white"/>
<path d="M75.2717 203.819C75.4311 203.819 75.5654 203.695 75.5756 203.533L76.0463 196.11C76.057 195.942 75.9297 195.798 75.7615 195.787C75.5849 195.773 75.4494 195.904 75.4387 196.072L74.9679 203.495C74.9572 203.663 75.0845 203.807 75.2528 203.818C75.2592 203.819 75.2658 203.819 75.2717 203.819Z" fill="url(#paint32_linear_130_2862)"/>
<path d="M74.3027 203.818C74.4661 203.818 74.6017 203.689 74.607 203.524L74.8537 195.959C74.8591 195.79 74.7271 195.649 74.5595 195.644C74.3656 195.635 74.2509 195.771 74.245 195.938L73.9982 203.504C73.9928 203.672 74.1249 203.813 74.2925 203.818C74.2925 203.818 74.2997 203.818 74.3027 203.818Z" fill="url(#paint33_linear_130_2862)"/>
<path d="M72.9891 203.818C72.8209 203.81 72.6913 203.668 72.6996 203.5C72.8202 200.959 73.0503 196.111 73.0539 195.946C73.0552 195.78 73.1913 195.645 73.3582 195.645C73.5266 195.645 73.6627 195.781 73.6627 195.949C73.6627 196.074 73.3667 202.285 73.3072 203.529C73.2995 203.692 73.1651 203.819 73.0034 203.819C72.9987 203.819 72.9938 203.819 72.9891 203.818Z" fill="url(#paint34_linear_130_2862)"/>
<path d="M70.9744 204.123C71.3007 204.123 71.5707 203.864 71.5819 203.535C71.8394 196.205 71.7942 196.04 71.7644 195.931C71.6765 195.605 71.3388 195.415 71.0172 195.503C70.7193 195.584 70.5333 195.873 70.5737 196.171C70.5932 196.612 70.4572 200.877 70.3656 203.492C70.3538 203.828 70.6165 204.111 70.9524 204.122C70.9595 204.123 70.9673 204.123 70.9744 204.123Z" fill="url(#paint35_linear_130_2862)"/>
<path d="M69.6548 203.818C69.8231 203.818 69.9593 203.682 69.9593 203.514V196.09C69.9593 195.922 69.8231 195.786 69.6548 195.786C69.4867 195.786 69.3506 195.922 69.3506 196.09V203.514C69.3506 203.682 69.4867 203.818 69.6548 203.818Z" fill="url(#paint36_linear_130_2862)"/>
<path d="M68.5897 203.819C68.755 203.819 68.8905 203.687 68.8941 203.522C68.9524 200.942 69.0886 196.729 69.2103 196.223C69.2638 196.127 69.2632 196.006 69.199 195.907C69.1068 195.766 68.9183 195.728 68.7775 195.82C68.6117 195.928 68.4541 196.031 68.2852 203.508C68.2818 203.676 68.4148 203.815 68.5825 203.819H68.5897Z" fill="url(#paint37_linear_130_2862)"/>
<path d="M76.9098 204.495C77.2315 204.495 77.5002 204.243 77.5174 203.917L77.9234 196.122C77.9407 195.787 77.6827 195.501 77.3468 195.483C77.0282 195.46 76.7249 195.724 76.7071 196.059L76.3011 203.854C76.2839 204.19 76.5419 204.476 76.8777 204.494C76.8884 204.495 76.8991 204.495 76.9098 204.495Z" fill="url(#paint38_linear_130_2862)"/>
<defs>
<linearGradient id="paint0_linear_130_2862" x1="335.607" y1="349.515" x2="122.396" y2="122.549" gradientUnits="userSpaceOnUse">
<stop stop-color="#DAE3FE"/>
<stop offset="1" stop-color="#E9EFFD"/>
</linearGradient>
<linearGradient id="paint1_linear_130_2862" x1="320.013" y1="402.699" x2="-22.0128" y2="-115.521" gradientUnits="userSpaceOnUse">
<stop stop-color="#09005D"/>
<stop offset="1" stop-color="#1A0F91"/>
</linearGradient>
<linearGradient id="paint2_linear_130_2862" x1="141.746" y1="20.9935" x2="171.813" y2="20.9935" gradientUnits="userSpaceOnUse">
<stop stop-color="#4F52FF"/>
<stop offset="1" stop-color="#4042E2"/>
</linearGradient>
<linearGradient id="paint3_linear_130_2862" x1="145.112" y1="231.209" x2="306.501" y2="33.5448" gradientUnits="userSpaceOnUse">
<stop stop-color="#E1473D"/>
<stop offset="1" stop-color="#E9605A"/>
</linearGradient>
<linearGradient id="paint4_linear_130_2862" x1="142.039" y1="184.738" x2="160.064" y2="135.931" gradientUnits="userSpaceOnUse">
<stop stop-color="#FEBBBA"/>
<stop offset="1" stop-color="#FF928E"/>
</linearGradient>
<linearGradient id="paint5_linear_130_2862" x1="176.304" y1="110.639" x2="123.49" y2="132.733" gradientUnits="userSpaceOnUse">
<stop stop-color="#FEBBBA"/>
<stop offset="1" stop-color="#FF928E"/>
</linearGradient>
<linearGradient id="paint6_linear_130_2862" x1="173.179" y1="55.2982" x2="150.969" y2="121.927" gradientUnits="userSpaceOnUse">
<stop stop-color="#09005D"/>
<stop offset="1" stop-color="#1A0F91"/>
</linearGradient>
<linearGradient id="paint7_linear_130_2862" x1="172.722" y1="102.077" x2="119.908" y2="124.171" gradientUnits="userSpaceOnUse">
<stop stop-color="#FEBBBA"/>
<stop offset="1" stop-color="#FF928E"/>
</linearGradient>
<linearGradient id="paint8_linear_130_2862" x1="104.973" y1="198.436" x2="266.361" y2="0.772387" gradientUnits="userSpaceOnUse">
<stop stop-color="#E1473D"/>
<stop offset="1" stop-color="#E9605A"/>
</linearGradient>
<linearGradient id="paint9_linear_130_2862" x1="93.7917" y1="110.915" x2="135.989" y2="295.253" gradientUnits="userSpaceOnUse">
<stop stop-color="#FF928E"/>
<stop offset="1" stop-color="#FE7062"/>
</linearGradient>
<linearGradient id="paint10_linear_130_2862" x1="105.351" y1="218.415" x2="132.611" y2="290.152" gradientUnits="userSpaceOnUse">
<stop stop-color="#FEBBBA"/>
<stop offset="1" stop-color="#FF928E"/>
</linearGradient>
<linearGradient id="paint11_linear_130_2862" x1="140.628" y1="201.822" x2="169.699" y2="278.326" gradientUnits="userSpaceOnUse">
<stop stop-color="#FEBBBA"/>
<stop offset="1" stop-color="#FF928E"/>
</linearGradient>
<linearGradient id="paint12_linear_130_2862" x1="170.685" y1="274.077" x2="208.439" y2="217.446" gradientUnits="userSpaceOnUse">
<stop stop-color="#4F52FF"/>
<stop offset="1" stop-color="#4042E2"/>
</linearGradient>
<linearGradient id="paint13_linear_130_2862" x1="183.571" y1="282.668" x2="221.326" y2="226.037" gradientUnits="userSpaceOnUse">
<stop stop-color="#4F52FF"/>
<stop offset="1" stop-color="#4042E2"/>
</linearGradient>
<linearGradient id="paint14_linear_130_2862" x1="210.179" y1="212.171" x2="342.874" y2="139.994" gradientUnits="userSpaceOnUse">
<stop stop-color="#4F52FF"/>
<stop offset="1" stop-color="#4042E2"/>
</linearGradient>
<linearGradient id="paint15_linear_130_2862" x1="224.818" y1="187.763" x2="222.597" y2="248.836" gradientUnits="userSpaceOnUse">
<stop stop-color="#4F52FF"/>
<stop offset="1" stop-color="#4042E2"/>
</linearGradient>
<linearGradient id="paint16_linear_130_2862" x1="206.086" y1="282.746" x2="263.315" y2="185.988" gradientUnits="userSpaceOnUse">
<stop stop-color="#4F52FF"/>
<stop offset="1" stop-color="#4042E2"/>
</linearGradient>
<linearGradient id="paint17_linear_130_2862" x1="148.965" y1="132.134" x2="164.528" y2="117.174" gradientUnits="userSpaceOnUse">
<stop stop-color="#4F52FF"/>
<stop offset="1" stop-color="#4042E2"/>
</linearGradient>
<linearGradient id="paint18_linear_130_2862" x1="167.169" y1="127.932" x2="173.119" y2="127.932" gradientUnits="userSpaceOnUse">
<stop stop-color="#4F52FF"/>
<stop offset="1" stop-color="#4042E2"/>
</linearGradient>
<linearGradient id="paint19_linear_130_2862" x1="200.947" y1="75.6014" x2="70.9778" y2="120.65" gradientUnits="userSpaceOnUse">
<stop stop-color="#4F52FF"/>
<stop offset="1" stop-color="#4042E2"/>
</linearGradient>
<linearGradient id="paint20_linear_130_2862" x1="168.354" y1="73.9093" x2="147.255" y2="114.997" gradientUnits="userSpaceOnUse">
<stop stop-color="#4F52FF"/>
<stop offset="1" stop-color="#4042E2"/>
</linearGradient>
<linearGradient id="paint21_linear_130_2862" x1="159.732" y1="101.355" x2="180.091" y2="81.7365" gradientUnits="userSpaceOnUse">
<stop stop-color="#4F52FF"/>
<stop offset="1" stop-color="#4042E2"/>
</linearGradient>
<linearGradient id="paint22_linear_130_2862" x1="234.75" y1="18.5794" x2="239.747" y2="61.5552" gradientUnits="userSpaceOnUse">
<stop stop-color="#FF928E"/>
<stop offset="1" stop-color="#FE7062"/>
</linearGradient>
<linearGradient id="paint23_linear_130_2862" x1="127.022" y1="217.683" x2="-96.1295" y2="373.37" gradientUnits="userSpaceOnUse">
<stop stop-color="#FF928E"/>
<stop offset="1" stop-color="#FE7062"/>
</linearGradient>
<linearGradient id="paint24_linear_130_2862" x1="88.6493" y1="246.038" x2="116.388" y2="286.346" gradientUnits="userSpaceOnUse">
<stop stop-color="#09005D"/>
<stop offset="1" stop-color="#1A0F91"/>
</linearGradient>
<linearGradient id="paint25_linear_130_2862" x1="87.6519" y1="246.725" x2="115.391" y2="287.033" gradientUnits="userSpaceOnUse">
<stop stop-color="#09005D"/>
<stop offset="1" stop-color="#1A0F91"/>
</linearGradient>
<linearGradient id="paint26_linear_130_2862" x1="86.4483" y1="247.553" x2="114.187" y2="287.862" gradientUnits="userSpaceOnUse">
<stop stop-color="#09005D"/>
<stop offset="1" stop-color="#1A0F91"/>
</linearGradient>
<linearGradient id="paint27_linear_130_2862" x1="84.3668" y1="248.986" x2="112.106" y2="289.294" gradientUnits="userSpaceOnUse">
<stop stop-color="#09005D"/>
<stop offset="1" stop-color="#1A0F91"/>
</linearGradient>
<linearGradient id="paint28_linear_130_2862" x1="82.9944" y1="249.93" x2="110.733" y2="290.238" gradientUnits="userSpaceOnUse">
<stop stop-color="#09005D"/>
<stop offset="1" stop-color="#1A0F91"/>
</linearGradient>
<linearGradient id="paint29_linear_130_2862" x1="82.1423" y1="250.517" x2="109.881" y2="290.825" gradientUnits="userSpaceOnUse">
<stop stop-color="#09005D"/>
<stop offset="1" stop-color="#1A0F91"/>
</linearGradient>
<linearGradient id="paint30_linear_130_2862" x1="90.0766" y1="245.057" x2="117.815" y2="285.364" gradientUnits="userSpaceOnUse">
<stop stop-color="#09005D"/>
<stop offset="1" stop-color="#1A0F91"/>
</linearGradient>
<linearGradient id="paint31_linear_130_2862" x1="95.485" y1="176.838" x2="-61.229" y2="286.173" gradientUnits="userSpaceOnUse">
<stop stop-color="#FF928E"/>
<stop offset="1" stop-color="#FE7062"/>
</linearGradient>
<linearGradient id="paint32_linear_130_2862" x1="71.8271" y1="194.455" x2="91.3074" y2="222.762" gradientUnits="userSpaceOnUse">
<stop stop-color="#09005D"/>
<stop offset="1" stop-color="#1A0F91"/>
</linearGradient>
<linearGradient id="paint33_linear_130_2862" x1="71.1267" y1="194.937" x2="90.607" y2="223.244" gradientUnits="userSpaceOnUse">
<stop stop-color="#09005D"/>
<stop offset="1" stop-color="#1A0F91"/>
</linearGradient>
<linearGradient id="paint34_linear_130_2862" x1="70.2817" y1="195.519" x2="89.7621" y2="223.826" gradientUnits="userSpaceOnUse">
<stop stop-color="#09005D"/>
<stop offset="1" stop-color="#1A0F91"/>
</linearGradient>
<linearGradient id="paint35_linear_130_2862" x1="68.8198" y1="196.524" x2="88.3001" y2="224.832" gradientUnits="userSpaceOnUse">
<stop stop-color="#09005D"/>
<stop offset="1" stop-color="#1A0F91"/>
</linearGradient>
<linearGradient id="paint36_linear_130_2862" x1="67.8556" y1="197.188" x2="87.336" y2="225.495" gradientUnits="userSpaceOnUse">
<stop stop-color="#09005D"/>
<stop offset="1" stop-color="#1A0F91"/>
</linearGradient>
<linearGradient id="paint37_linear_130_2862" x1="67.2574" y1="197.6" x2="86.7377" y2="225.908" gradientUnits="userSpaceOnUse">
<stop stop-color="#09005D"/>
<stop offset="1" stop-color="#1A0F91"/>
</linearGradient>
<linearGradient id="paint38_linear_130_2862" x1="72.8297" y1="193.765" x2="92.31" y2="222.073" gradientUnits="userSpaceOnUse">
<stop stop-color="#09005D"/>
<stop offset="1" stop-color="#1A0F91"/>
</linearGradient>
</defs>
</svg>
