<svg width="400" height="400" viewBox="0 0 400 400" fill="none" xmlns="http://www.w3.org/2000/svg">
<path d="M33.0788 300.574C29.8052 298.518 26.054 297.227 22.2084 296.833C20.4324 296.65 18.4916 296.703 17.0668 297.779C16.7644 298.007 16.4692 298.345 16.5372 298.718C16.5868 298.992 16.8188 299.191 17.0396 299.36C21.4628 302.734 28.1532 303.16 33.0788 300.574Z" fill="#E0E0E0"/>
<path d="M32.7995 300.267C30.3387 298.346 27.8635 296.413 25.7787 294.089C23.6939 291.766 21.9995 289.008 21.3771 285.949C21.1883 285.021 21.1299 283.961 21.7251 283.225C27.3211 287.596 31.7179 293.249 32.7995 300.267Z" fill="#E0E0E0"/>
<path d="M33.0212 300.533C32.5996 297.471 32.4484 294.324 33.1516 291.314C33.8548 288.305 35.4916 285.425 38.062 283.708C39.0292 285.969 38.6132 288.573 37.9324 290.935C36.8796 294.586 35.2276 298.063 33.0636 301.186" fill="#E0E0E0"/>
<path d="M38.5072 310.363C35.1768 310.768 32.276 312.523 29.7896 314.775C27.3024 317.027 25.5352 320.062 24.8032 323.335C28.0704 323.134 30.8416 320.83 32.8512 318.246C34.8616 315.663 36.2536 312.829 38.4616 310.413" fill="#E0E0E0"/>
<path d="M39.6986 311.935C37.0162 305.327 37.9882 297.365 42.181 291.597C44.0786 298.346 43.3818 305.97 39.6986 311.935Z" fill="#E0E0E0"/>
<path d="M46.948 320.567C43.9256 320.379 40.8528 321.099 38.228 322.611C35.6032 324.122 33.4376 326.417 32.0816 329.125C31.8976 329.493 31.7344 329.961 31.9816 330.291C32.196 330.577 32.6104 330.603 32.9672 330.58C35.8968 330.391 38.4936 328.627 40.6368 326.62C42.7792 324.613 44.6456 322.294 47.0136 320.558" fill="#E0E0E0"/>
<path d="M46.7163 320.098C45.1571 315.109 45.0603 309.672 46.4403 304.631C46.9851 302.64 47.8995 300.545 49.7411 299.611C49.8979 299.531 50.0811 299.461 50.2459 299.522C50.4019 299.581 50.4931 299.742 50.5651 299.892C51.2203 301.26 51.4107 302.814 51.3435 304.33C51.2763 305.845 50.9619 307.337 50.6483 308.822C50.0683 311.567 49.7603 314.518 48.2547 316.885C47.8971 317.447 47.5827 318.054 47.2971 318.656C47.0123 319.258 47.0099 319.47 46.7491 319.948" fill="#E0E0E0"/>
<path d="M65.9051 322.956C64.4835 317.548 65.9923 310.993 69.4003 306.559C69.6515 306.233 69.9835 305.883 70.3939 305.921C71.0211 305.979 71.1843 306.815 71.1563 307.445C70.9099 312.971 69.0659 318.417 65.9051 322.956Z" fill="#E0E0E0"/>
<path d="M67.6353 324.139C74.2049 325.848 81.7425 324.187 87.2065 320.158C83.9681 318.516 80.1505 318.048 76.6113 318.858C73.0721 319.667 69.8385 321.253 67.6353 324.139Z" fill="#E0E0E0"/>
<path d="M69.0947 320.539C72.7747 314.54 79.8291 310.624 86.8571 310.268C86.0475 313.126 83.6979 315.348 81.0475 316.691C78.3971 318.033 75.4379 318.618 72.5211 319.184C71.3859 319.404 69.8299 319.647 69.0947 320.539Z" fill="#E0E0E0"/>
<path d="M66.2705 303.067C67.2665 299.653 68.2689 296.21 68.5425 292.665C68.8161 289.119 68.3105 285.417 66.4705 282.375C63.0337 289.026 62.6857 296.797 66.1673 303.424" fill="#E0E0E0"/>
<path d="M77.8428 297.218C81.862 289.913 90.0628 284.077 98.3604 283.26C95.1596 291.23 86.43 297.389 77.8428 297.218Z" fill="#E0E0E0"/>
<path d="M75.314 298.649C81.3084 299.562 86.4156 303.39 92.018 305.711C93.2156 306.207 94.5084 306.603 95.794 306.434C97.0796 306.266 98.3484 305.403 98.6364 304.139C98.8756 303.09 98.398 301.975 97.6444 301.206C96.8908 300.436 95.8956 299.956 94.9012 299.542C88.7996 297.002 82.2564 296.938 75.8292 298.478" fill="#E0E0E0"/>
<path d="M71.8452 302.854C73.202 303.243 73.666 303.946 74.7404 304.861C78.386 307.966 82.7588 310.212 87.4068 311.367C87.8908 311.487 88.5252 311.535 88.7652 311.098C88.9748 310.717 88.71 310.254 88.438 309.914C86.4908 307.478 83.7132 305.811 80.79 304.722C77.8668 303.634 75.334 302.322 71.8452 302.603" fill="#E0E0E0"/>
<path d="M67.9307 277.461C72.8051 282.011 79.6707 284.347 86.3091 283.714C86.6115 283.685 86.9403 283.637 87.1459 283.414C87.6083 282.911 87.0539 282.134 86.5147 281.714C81.1107 277.5 74.5659 275.754 67.9307 277.461Z" fill="#E0E0E0"/>
<path d="M72.5713 275.762C79.0145 270.931 87.8505 269.474 95.5041 271.978C92.6161 274.825 88.6089 276.356 84.5761 276.776C80.5433 277.196 76.5049 276.748 72.5713 275.762Z" fill="#E0E0E0"/>
<path d="M70.7272 264.094C70.1968 258.701 70.5408 254.444 70.1664 249.025C70.1368 248.592 70.0432 248.072 69.6384 247.916C69.0744 247.699 68.6048 248.392 68.4192 248.967C66.8136 253.962 67.6912 259.69 70.7184 263.976" fill="#E0E0E0"/>
<path d="M70.3394 264.689C73.9946 262.429 76.737 259.477 79.273 256.007C81.0378 253.593 82.525 250.701 82.1242 247.737C79.6466 247.687 77.2914 249.053 75.6802 250.937C74.0682 252.82 73.1106 255.173 72.3954 257.546C71.6794 259.919 71.1786 262.357 70.3394 264.689Z" fill="#E0E0E0"/>
<path d="M79.1164 262.251C87.1388 259.285 94.6236 254.871 101.102 249.287C98.4756 248.229 95.4692 248.862 92.8436 249.922C86.8452 252.344 81.9436 256.431 79.002 262.193" fill="#E0E0E0"/>
<path d="M72.8066 267.64C76.865 268.084 80.9882 268.373 85.0146 267.699C88.9722 267.038 92.713 265.469 96.4114 263.912C96.7178 263.783 97.0514 263.628 97.1858 263.324C97.3314 262.994 97.1762 262.591 96.9082 262.349C96.6402 262.106 96.2842 261.99 95.9362 261.894C91.9154 260.769 87.5762 261.295 83.6202 262.63C79.6642 263.964 76.421 265.549 72.8066 267.64Z" fill="#E0E0E0"/>
<path d="M49.6323 277.645C46.8635 272.056 47.0435 265.533 49.4355 259.772C51.1195 262.338 51.3251 265.605 51.0171 268.659C50.7091 271.712 49.7795 274.855 49.7195 277.923" fill="#E0E0E0"/>
<path d="M38.5706 272.066C31.657 271.934 24.7418 274.879 20.0474 279.957C23.4978 280.499 27.0514 279.609 30.1906 278.076C33.329 276.543 36.1186 274.393 38.8826 272.259" fill="#E0E0E0"/>
<path d="M31.1338 269.579C27.7514 269.304 24.4978 268.886 21.2458 269.882C17.9938 270.879 15.0346 273.14 13.709 276.272C16.8722 276.629 20.0802 275.836 22.9794 274.522C25.8786 273.208 28.5146 271.388 31.1338 269.579Z" fill="#E0E0E0"/>
<path d="M42.1449 269.693C39.1025 267.7 35.9785 265.669 32.4353 264.844C28.8929 264.018 24.7873 264.628 22.3169 267.298C25.1849 268.981 28.6641 269.18 31.9889 269.177C35.3137 269.175 39.3905 269.137 42.5249 270.246" fill="#E0E0E0"/>
<path d="M42.1626 269.853C36.961 264.745 34.989 255.57 37.0818 248.587C41.1714 254.8 43.0018 262.464 42.1626 269.853Z" fill="#E0E0E0"/>
<path d="M56.4658 255.382C57.4466 253.101 58.137 250.708 59.017 248.387C59.897 246.065 60.9906 243.781 62.6538 241.938C64.317 240.095 66.6162 238.722 69.0962 238.6C67.5442 245.628 62.8762 251.908 56.593 255.42" fill="#E0E0E0"/>
<path d="M53.8777 258.397C52.2545 256.162 50.3785 253.13 48.1777 251.462C45.9761 249.794 43.1097 248.785 40.4233 249.425C43.1545 254.31 48.3177 257.752 53.8777 258.397Z" fill="#E0E0E0"/>
<path d="M54.3955 255.568C53.3315 252.864 52.2595 250.132 51.8291 247.258C51.3987 244.385 51.6603 241.315 53.1299 238.809C55.9851 244.206 56.9051 250 54.5403 255.629" fill="#E0E0E0"/>
<path d="M56.4922 238.807C58.109 233.457 63.009 229.517 68.2978 227.709C68.965 227.481 69.6714 227.292 70.3674 227.399C71.0642 227.507 71.7466 227.983 71.893 228.673C72.0858 229.583 71.3338 230.398 70.6266 231.003C66.5082 234.525 61.6666 237.198 56.4922 238.807Z" fill="#E0E0E0"/>
<path d="M56.5506 234.432C56.7562 230.983 56.9714 227.483 58.0938 224.214C59.2162 220.945 61.3786 217.879 64.5242 216.448C65.0594 219.932 63.5218 223.399 61.6682 226.397C59.8146 229.395 57.5802 232.225 56.4658 235.57" fill="#E0E0E0"/>
<path d="M56.4658 236.807C55.129 232.907 54.9906 227.955 52.6562 224.557C51.0242 222.183 48.4106 220.565 47.0042 218.05C46.0698 220.399 46.3562 223.106 47.333 225.437C48.3098 227.769 49.925 229.775 51.6522 231.621C53.3802 233.467 54.8594 234.855 56.4658 236.807Z" fill="#E0E0E0"/>
<path d="M56.4921 351.639C56.3881 351.639 56.2977 325.627 56.2905 293.547C56.2833 261.455 56.3617 235.448 56.4657 235.448C56.5697 235.448 56.6593 261.455 56.6665 293.547C56.6737 325.627 56.5953 351.639 56.4921 351.639Z" fill="#E0E0E0"/>
<path d="M79.2233 273.72C79.2305 273.745 78.8817 273.875 78.2457 274.088C77.5433 274.324 76.6393 274.63 75.5537 274.996C73.2841 275.768 70.1665 276.888 66.7825 278.275C63.4321 279.712 60.2721 280.879 58.4729 282.438C57.5737 283.208 57.0577 284.04 56.8033 284.647C56.5449 285.257 56.4993 285.631 56.4649 285.624C56.4521 285.623 56.4561 285.529 56.4761 285.352C56.5057 285.176 56.5513 284.914 56.6673 284.593C56.8865 283.952 57.3881 283.061 58.2969 282.239C59.2017 281.414 60.4601 280.673 61.9025 279.999C63.3449 279.326 64.9433 278.624 66.6401 277.926C70.0345 276.535 73.1761 275.452 75.4713 274.742C76.6185 274.384 77.5545 274.12 78.2033 273.947C78.8537 273.777 79.2161 273.695 79.2233 273.72Z" fill="#E0E0E0"/>
<path d="M86.6748 255.418C86.6836 255.427 86.5892 255.528 86.4012 255.711C86.1796 255.919 85.9036 256.178 85.5668 256.495C84.7916 257.199 83.7364 258.157 82.4508 259.326C79.7604 261.722 76.1116 264.971 72.0796 268.561C68.0308 272.165 64.5324 275.608 62.1076 278.201C60.8932 279.495 59.9372 280.568 59.2852 281.317C58.9804 281.665 58.7316 281.949 58.5316 282.178C58.3572 282.373 58.2604 282.471 58.25 282.463C58.2396 282.455 58.3164 282.341 58.4724 282.131C58.63 281.922 58.8588 281.61 59.1724 281.223C59.7916 280.444 60.7196 279.342 61.9116 278.021C64.2924 275.375 67.7724 271.891 71.8284 268.281C75.8908 264.686 79.5876 261.456 82.274 259.127C83.5924 257.996 84.674 257.068 85.4692 256.386C85.8252 256.091 86.1164 255.849 86.3508 255.655C86.5548 255.49 86.666 255.408 86.6748 255.418Z" fill="#E0E0E0"/>
<path d="M67.7073 272.224C67.6009 272.177 68.4473 270.224 69.2897 267.755C70.1401 265.285 70.5401 263.201 70.6481 263.219C70.7465 263.229 70.5065 265.374 69.6457 267.875C69.2217 269.124 68.7545 270.222 68.3865 271.001C68.0185 271.781 67.7537 272.245 67.7073 272.224Z" fill="#E0E0E0"/>
<path d="M56.5153 287.969C56.4945 287.984 56.2729 287.726 55.8913 287.245C55.4681 286.703 54.9321 286.015 54.2929 285.195C52.9505 283.46 51.0945 281.065 49.0145 278.443C46.9329 275.822 45.0209 273.47 43.6361 271.769C42.9833 270.96 42.4353 270.283 42.0025 269.747C41.6209 269.267 41.4193 268.992 41.4393 268.975C41.4593 268.959 41.6985 269.2 42.1137 269.652C42.5305 270.103 43.1201 270.768 43.8393 271.598C45.2777 273.257 47.2249 275.584 49.3089 278.21C51.3913 280.835 53.2161 283.259 54.5057 285.036C55.1505 285.925 55.6641 286.65 56.0089 287.159C56.3553 287.666 56.5369 287.954 56.5153 287.969Z" fill="#E0E0E0"/>
<path d="M51.5314 281.571C51.4698 281.637 50.1402 280.059 49.4434 277.662C48.9298 275.973 48.9066 274.428 48.9698 273.721L49.1362 273.734C49.0618 274.036 49.0074 274.194 48.9778 274.189C48.9482 274.185 48.9466 274.017 48.9714 273.707L49.1378 273.721C49.1986 274.421 49.305 275.913 49.8042 277.554C50.477 279.877 51.6322 281.507 51.5314 281.571Z" fill="#E0E0E0"/>
<path d="M45.0971 273.476C45.0491 273.528 44.6211 272.989 43.6395 272.629C42.6659 272.252 41.2003 272.169 39.5923 272.308C37.9827 272.426 36.5451 272.712 35.5163 272.965C34.4875 273.22 33.8587 273.42 33.8387 273.368C33.8219 273.324 34.4203 273.033 35.4443 272.709C36.4667 272.388 37.9243 272.053 39.5635 271.932C41.1899 271.792 42.7323 271.917 43.7387 272.383C44.7587 272.835 45.1307 273.467 45.0971 273.476Z" fill="#E0E0E0"/>
<path d="M43.5715 271.515C43.5427 271.573 42.7219 271.174 41.3379 270.701C39.9563 270.226 37.9875 269.727 35.7651 269.554C33.5411 269.388 31.5203 269.583 30.0819 269.843C28.6419 270.1 27.7707 270.37 27.7507 270.308C27.7427 270.283 27.9531 270.195 28.3427 270.056C28.7307 269.911 29.3075 269.746 30.0291 269.583C31.4715 269.251 33.5291 269.011 35.7923 269.179C38.0547 269.355 40.0515 269.906 41.4275 270.451C42.1163 270.723 42.6619 270.973 43.0227 271.175C43.3883 271.372 43.5835 271.491 43.5715 271.515Z" fill="#E0E0E0"/>
<path d="M56.4656 263.219C56.3648 263.244 55.6352 260.711 54.8368 257.561C54.0376 254.41 53.472 251.835 53.572 251.81C53.6728 251.784 54.4016 254.317 55.2008 257.468C56 260.619 56.5664 263.193 56.4656 263.219Z" fill="#E0E0E0"/>
<path d="M56.5696 263.219C56.4576 263.255 55.9888 261.562 54.764 259.831C53.572 258.064 52.0512 257.177 52.1064 257.089C52.1264 257.05 52.5456 257.203 53.132 257.618C53.7192 258.027 54.4456 258.719 55.0712 259.615C56.3424 261.417 56.66 263.212 56.5696 263.219Z" fill="#E0E0E0"/>
<path d="M56.4922 337.773C56.4514 337.779 56.3754 337.147 56.0818 336.043C55.7922 334.938 55.2466 333.372 54.3434 331.539C52.5466 327.866 49.2762 323.21 45.1202 318.546C43.061 316.193 41.0634 313.974 39.3682 311.849C37.6698 309.727 36.2738 307.705 35.2546 305.916C34.2322 304.129 33.5666 302.595 33.1786 301.514C32.9874 300.971 32.8474 300.547 32.7706 300.254C32.6882 299.963 32.6514 299.809 32.6634 299.805C32.697 299.794 32.8866 300.4 33.3146 301.461C33.7426 302.521 34.4402 304.026 35.4842 305.782C36.525 307.54 37.933 309.531 39.6378 311.631C41.3402 313.734 43.341 315.941 45.4034 318.298C49.5698 322.974 52.8321 327.69 54.5826 331.422C55.4626 333.286 55.9754 334.882 56.2234 336.006C56.3442 336.57 56.425 337.009 56.4538 337.311C56.4914 337.613 56.505 337.771 56.4922 337.773Z" fill="#E0E0E0"/>
<path d="M77.033 314.572C77.045 314.6 76.6522 314.798 75.9562 315.176C75.2658 315.564 74.2858 316.161 73.1634 317.021C72.041 317.88 70.7858 319.009 69.4962 320.366C68.209 321.726 66.8834 323.304 65.5298 324.996C62.8242 328.391 60.2938 331.395 58.7786 333.792C58.009 334.982 57.4498 335.984 57.0834 336.688C56.7138 337.389 56.5178 337.784 56.4906 337.772C56.4786 337.766 56.513 337.661 56.5906 337.466C56.6706 337.272 56.7794 336.982 56.9522 336.623C57.2802 335.896 57.8074 334.867 58.5538 333.65C60.025 331.195 62.5354 328.149 65.2362 324.76C66.5922 323.065 67.9338 321.483 69.2458 320.125C70.5594 318.77 71.8482 317.648 73.0034 316.808C74.1594 315.965 75.1706 315.396 75.8874 315.045C76.2442 314.866 76.5354 314.756 76.7274 314.673C76.9234 314.596 77.0282 314.56 77.033 314.572Z" fill="#E0E0E0"/>
<path d="M77.4351 322.098C77.4399 322.153 76.5663 322.259 75.1599 322.429C73.7583 322.61 71.8071 322.844 69.7632 323.492C67.7264 324.155 66.0335 325.166 64.9311 326.028C63.8175 326.889 63.292 327.601 63.2408 327.559C63.2224 327.546 63.3319 327.352 63.5775 327.035C63.8207 326.717 64.2192 326.29 64.7632 325.822C65.848 324.886 67.5575 323.815 69.6479 323.134C71.7415 322.472 73.7191 322.279 75.1335 322.165C76.5519 322.062 77.4311 322.049 77.4351 322.098Z" fill="#E0E0E0"/>
<path d="M63.9049 326.731C63.7865 326.664 64.8121 325.098 65.6073 322.991C66.3537 320.865 66.5281 319.001 66.6625 319.023C66.7113 319.028 66.7089 319.495 66.6249 320.243C66.5353 320.989 66.3561 322.027 65.9609 323.119C65.5633 324.211 65.0417 325.122 64.6409 325.757C64.2345 326.391 63.9465 326.758 63.9049 326.731Z" fill="#E0E0E0"/>
<path d="M83.6857 294.364C83.6905 294.376 83.5648 294.443 83.3217 294.558C83.0393 294.686 82.6857 294.847 82.2521 295.044C81.7841 295.245 81.2153 295.5 80.5745 295.838C79.9313 296.169 79.1817 296.511 78.4001 296.98C78.0033 297.206 77.5897 297.441 77.1585 297.686C76.7281 297.934 76.3025 298.228 75.8489 298.511C74.9336 299.066 74.0168 299.75 73.0385 300.447C71.1241 301.9 69.1104 303.621 67.172 305.607C65.252 307.612 63.6017 309.683 62.2145 311.647C61.5505 312.65 60.8985 313.589 60.3745 314.523C60.1065 314.985 59.8272 315.421 59.5944 315.86C59.3648 316.298 59.1433 316.72 58.9313 317.124C58.4889 317.921 58.1737 318.682 57.8641 319.336C57.5481 319.988 57.3137 320.565 57.1289 321.04C56.9465 321.48 56.7985 321.838 56.6801 322.125C56.5737 322.372 56.5113 322.499 56.4993 322.495C56.4873 322.491 56.5249 322.356 56.6089 322.1C56.7105 321.806 56.8369 321.438 56.9929 320.987C57.1569 320.502 57.3736 319.915 57.672 319.252C57.9648 318.588 58.2648 317.814 58.6944 317.005C58.9008 316.595 59.1161 316.167 59.3401 315.721C59.5673 315.276 59.8425 314.834 60.1065 314.365C60.6217 313.418 61.2689 312.466 61.9297 311.451C63.3113 309.462 64.9673 307.367 66.9017 305.345C68.8553 303.343 70.8921 301.617 72.8321 300.168C73.8233 299.473 74.7537 298.794 75.6817 298.247C76.1416 297.967 76.5737 297.677 77.0105 297.435C77.4481 297.196 77.8688 296.966 78.2712 296.746C79.0648 296.289 79.8272 295.962 80.4824 295.647C81.1344 295.326 81.7144 295.089 82.1928 294.908C82.6384 294.737 83.0016 294.598 83.292 294.487C83.5464 294.395 83.6809 294.352 83.6857 294.364Z" fill="#E0E0E0"/>
<path d="M67.4291 305.258C67.3955 305.252 67.5771 304.621 68.3227 303.926C69.0507 303.233 70.3787 302.591 71.9243 302.545C73.4651 302.504 74.8019 302.935 75.7147 303.285C76.6323 303.646 77.1659 303.938 77.1475 303.982C77.1259 304.034 76.5547 303.828 75.6275 303.537C74.7035 303.254 73.3971 302.881 71.9363 302.921C70.4811 302.965 69.2243 303.526 68.4963 304.128C67.7515 304.727 67.4891 305.294 67.4291 305.258Z" fill="#E0E0E0"/>
<path d="M64.9988 307.763C64.8956 307.706 65.8124 306.362 66.0212 304.436C66.2612 302.514 65.6788 300.994 65.7924 300.962C65.8332 300.946 66.038 301.299 66.2148 301.931C66.3924 302.561 66.51 303.478 66.3948 304.479C66.2764 305.48 65.9508 306.345 65.6332 306.917C65.3156 307.493 65.0356 307.79 64.9988 307.763Z" fill="#E0E0E0"/>
<path d="M38.5264 341.5C39.0872 351.441 42.0824 361.551 46.6904 371.773H66.7272C71.1216 361.653 73.9104 351.558 74.4056 341.5H38.5264Z" fill="#E0E0E0"/>
<path d="M71.1579 357.585C71.1579 357.689 64.5611 357.773 56.4243 357.773C48.2851 357.773 41.6899 357.689 41.6899 357.585C41.6899 357.481 48.2859 357.397 56.4243 357.397C64.5611 357.397 71.1579 357.482 71.1579 357.585Z" fill="#FAFAFA"/>
<path d="M70.7106 361.187C70.7106 361.291 64.5258 361.375 56.8986 361.375C49.269 361.375 43.085 361.291 43.085 361.187C43.085 361.083 49.2682 360.999 56.8986 360.999C64.5258 360.999 70.7106 361.083 70.7106 361.187Z" fill="#FAFAFA"/>
<path d="M47.0132 348.026C47.1172 348.026 47.2012 350.093 47.2012 352.642C47.2012 355.191 47.1172 357.257 47.0132 357.257C46.9092 357.257 46.8252 355.19 46.8252 352.642C46.8252 350.093 46.91 348.026 47.0132 348.026Z" fill="#FAFAFA"/>
<path d="M57.749 348.026C57.853 348.026 57.937 350.166 57.937 352.806C57.937 355.446 57.853 357.586 57.749 357.586C57.645 357.586 57.561 355.446 57.561 352.806C57.561 350.166 57.645 348.026 57.749 348.026Z" fill="#FAFAFA"/>
<path d="M67.8272 347.946C67.9312 347.946 68.0152 350.129 68.0152 352.821C68.0152 355.513 67.9312 357.696 67.8272 357.696C67.7232 357.696 67.6392 355.513 67.6392 352.821C67.6392 350.129 67.7232 347.946 67.8272 347.946Z" fill="#FAFAFA"/>
<path d="M73.7689 348.027C73.7689 348.131 66.0313 348.215 56.4881 348.215C46.9425 348.215 39.2065 348.131 39.2065 348.027C39.2065 347.923 46.9425 347.839 56.4881 347.839C66.0313 347.839 73.7689 347.924 73.7689 348.027Z" fill="#FAFAFA"/>
<path d="M70.0309 63.5433L35.126 69.0381L40.6207 103.943L75.5256 98.4482L70.0309 63.5433Z" stroke="#E0E0E0" stroke-width="0.5" stroke-miterlimit="10"/>
<path d="M104.936 58.0482L70.0312 63.543L75.526 98.4479L110.431 92.9531L104.936 58.0482Z" stroke="#E0E0E0" stroke-width="0.5" stroke-miterlimit="10"/>
<path d="M140.032 52.5238L105.127 58.0186L110.622 92.9235L145.527 87.4287L140.032 52.5238Z" stroke="#E0E0E0" stroke-width="0.5" stroke-miterlimit="10"/>
<path d="M174.774 47.0541L139.869 52.5488L145.364 87.4537L180.269 81.959L174.774 47.0541Z" stroke="#E0E0E0" stroke-width="0.5" stroke-miterlimit="10"/>
<path d="M35.1891 69.416L32.3955 72.996L37.0043 102.267L40.6259 103.945L35.1891 69.416Z" stroke="#E0E0E0" stroke-width="0.5" stroke-miterlimit="10"/>
<path d="M99.441 23.1439L64.5361 28.6387L70.0309 63.5436L104.936 58.0488L99.441 23.1439Z" stroke="#E0E0E0" stroke-width="0.5" stroke-miterlimit="10"/>
<path d="M64.354 28.665L61.5708 32.3122L66.2804 62.2218L69.9092 63.9482L64.354 28.665Z" stroke="#E0E0E0" stroke-width="0.5" stroke-miterlimit="10" stroke-linecap="round" stroke-linejoin="round"/>
<path d="M99.4165 22.9512L103.185 25.5664L107.895 55.4768L104.972 58.2344L99.4165 22.9512Z" stroke="#E0E0E0" stroke-width="0.5" stroke-miterlimit="10" stroke-linecap="round" stroke-linejoin="round"/>
<path d="M99.4459 23.1396L95.8323 20.3516L66.2411 25.0108L64.5396 28.6364L99.4459 23.1396Z" stroke="#E0E0E0" stroke-width="0.5" stroke-miterlimit="10" stroke-linecap="round" stroke-linejoin="round"/>
<path d="M81.0599 133.408L115.965 127.913L110.47 93.0082L75.5652 98.5029L81.0599 133.408Z" stroke="#E0E0E0" stroke-width="0.5" stroke-miterlimit="10"/>
<path d="M116.145 127.885L118.928 124.238L114.218 94.3272L110.589 92.6016L116.145 127.885Z" stroke="#E0E0E0" stroke-width="0.5" stroke-miterlimit="10" stroke-linecap="round" stroke-linejoin="round"/>
<path d="M81.0829 133.599L77.3141 130.983L72.6045 101.073L75.5269 98.3154L81.0829 133.599Z" stroke="#E0E0E0" stroke-width="0.5" stroke-miterlimit="10" stroke-linecap="round" stroke-linejoin="round"/>
<path d="M81.0532 133.409L84.666 136.198L114.257 131.539L115.959 127.913L81.0532 133.409Z" stroke="#E0E0E0" stroke-width="0.5" stroke-miterlimit="10" stroke-linecap="round" stroke-linejoin="round"/>
<path d="M306.961 253.663C308.758 252.578 310.67 251.754 312.643 251.194L313.814 245.569L323.317 245.402L324.685 250.982C326.676 251.472 328.617 252.228 330.451 253.25L335.254 250.102L342.091 256.705L339.114 261.614C340.201 263.412 341.024 265.326 341.584 267.298L347.208 268.469L347.375 277.971L341.796 279.339C341.306 281.33 340.55 283.27 339.528 285.105L342.676 289.908L336.075 296.746L331.165 293.768C329.368 294.854 327.454 295.677 325.482 296.238L324.311 301.862L314.809 302.029L313.441 296.449C311.45 295.958 309.509 295.202 307.675 294.18L302.873 297.328L296.035 290.726L299.012 285.817C297.926 284.02 297.102 282.107 296.542 280.134L290.918 278.963L290.752 269.461L296.332 268.093C296.822 266.102 297.579 264.162 298.6 262.327L295.452 257.524L302.053 250.686L306.961 253.663ZM312.027 266.322C308.116 270.374 308.23 276.828 312.281 280.739C316.332 284.65 322.786 284.537 326.698 280.486C330.608 276.434 330.495 269.98 326.444 266.069C322.392 262.158 315.938 262.272 312.027 266.322Z" fill="#EBEBEB"/>
<path d="M342.765 35.5944C344.103 34.7856 345.527 34.1728 346.996 33.7552L347.867 29.5664L354.944 29.4424L355.963 33.5968C357.446 33.9624 358.891 34.5248 360.256 35.2864L363.833 32.9416L368.925 37.8576L366.708 41.5136C367.517 42.852 368.13 44.2768 368.547 45.7464L372.735 46.6184L372.859 53.6944L368.704 54.7128C368.339 56.1952 367.776 57.64 367.015 59.0064L369.359 62.5832L364.444 67.6752L360.788 65.4584C359.45 66.2672 358.025 66.88 356.556 67.2976L355.684 71.4864L348.608 71.6104L347.59 67.4552C346.107 67.0896 344.662 66.5272 343.296 65.7656L339.72 68.1096L334.628 63.1936L336.845 59.5376C336.036 58.1992 335.423 56.7752 335.006 55.3056L330.818 54.4336L330.694 47.3576L334.849 46.3392C335.215 44.8568 335.778 43.4112 336.538 42.0456L334.194 38.4688L339.11 33.3768L342.765 35.5944ZM346.537 45.0208C343.624 48.0376 343.709 52.844 346.726 55.7568C349.743 58.6696 354.549 58.5848 357.461 55.568C360.373 52.5512 360.289 47.7448 357.272 44.832C354.256 41.92 349.45 42.0048 346.537 45.0208Z" fill="#F5F5F5"/>
<path d="M348.807 306.052C349.644 305.546 350.537 305.162 351.457 304.9L352.003 302.277L356.435 302.199L357.072 304.802C358.001 305.03 358.906 305.383 359.761 305.859L362.001 304.391L365.19 307.47L363.802 309.76C364.308 310.598 364.692 311.49 364.954 312.41L367.577 312.956L367.655 317.388L365.052 318.026C364.823 318.954 364.471 319.859 363.995 320.714L365.463 322.954L362.384 326.143L360.095 324.754C359.256 325.261 358.364 325.645 357.444 325.906L356.898 328.53L352.466 328.607L351.828 326.005C350.899 325.776 349.995 325.423 349.139 324.947L346.899 326.415L343.711 323.336L345.099 321.046C344.593 320.208 344.209 319.316 343.947 318.396L341.324 317.85L341.247 313.418L343.849 312.78C344.078 311.851 344.431 310.946 344.907 310.091L343.439 307.851L346.517 304.662L348.807 306.052ZM351.17 311.956C349.346 313.846 349.399 316.856 351.288 318.68C353.178 320.504 356.187 320.451 358.011 318.562C359.835 316.672 359.783 313.662 357.893 311.838C356.003 310.014 352.994 310.066 351.17 311.956Z" fill="#EBEBEB"/>
<path d="M155.365 217.64C156.202 217.133 157.095 216.749 158.015 216.488L158.561 213.865L162.993 213.787L163.63 216.39C164.559 216.618 165.464 216.971 166.319 217.448L168.559 215.98L171.748 219.059L170.36 221.349C170.866 222.187 171.25 223.079 171.512 224L174.135 224.546L174.213 228.977L171.61 229.616C171.382 230.545 171.029 231.45 170.553 232.305L172.021 234.545L168.942 237.733L166.653 236.345C165.814 236.851 164.922 237.235 164.002 237.496L163.457 240.119L159.025 240.197L158.387 237.594C157.458 237.366 156.554 237.013 155.698 236.536L153.458 238.004L150.27 234.925L151.658 232.635C151.152 231.797 150.768 230.905 150.506 229.985L147.883 229.439L147.806 225.007L150.408 224.369C150.637 223.44 150.99 222.535 151.466 221.68L149.998 219.44L153.076 216.251L155.365 217.64ZM157.728 223.544C155.904 225.433 155.957 228.443 157.846 230.267C159.735 232.091 162.746 232.038 164.57 230.149C166.394 228.259 166.341 225.25 164.451 223.426C162.562 221.602 159.552 221.655 157.728 223.544Z" fill="#EBEBEB"/>
<path d="M377.072 371.982C377.072 372.098 298.504 372.19 201.609 372.19C104.679 372.19 26.1289 372.097 26.1289 371.982C26.1289 371.868 104.68 371.774 201.609 371.774C298.504 371.774 377.072 371.867 377.072 371.982Z" fill="#263238"/>
<path d="M300.376 304.305L205.728 304.251C194.345 304.246 185.121 295.397 185.123 284.486L185.169 57.0416C185.171 46.124 194.408 37.2768 205.799 37.2832L300.447 37.3368C311.831 37.3432 321.055 46.192 321.052 57.1032L321.006 284.547C321.003 295.464 311.766 304.311 300.376 304.305Z" fill="#1155CC"/>
<path d="M300.347 45.3808L281.996 45.3704L228.403 45.3399L221.949 45.3359L205.888 45.3272C197.911 45.3232 191.443 51.5192 191.441 59.1648L191.396 281.166C191.394 288.809 197.854 295.006 205.826 295.01L300.285 295.063C308.261 295.068 314.731 288.872 314.732 281.226L314.777 59.2231C314.779 51.5815 308.32 45.3856 300.347 45.3808Z" fill="white"/>
<path d="M299.556 148.483H225.138V216.699H299.556V148.483Z" fill="#1155CC"/>
<g opacity="0.3">
<path d="M299.556 148.483H225.138V216.699H299.556V148.483Z" fill="black"/>
</g>
<path d="M269.322 148.483H206.619V216.699H269.322V148.483Z" fill="#1155CC"/>
<path d="M269.322 216.822C269.207 216.822 269.114 201.523 269.114 182.655C269.114 163.78 269.207 148.484 269.322 148.484C269.437 148.484 269.53 163.78 269.53 182.655C269.531 201.523 269.437 216.822 269.322 216.822Z" fill="#263238"/>
<path d="M299.556 182.652C299.556 182.768 292.605 182.86 284.032 182.86C275.457 182.86 268.507 182.767 268.507 182.652C268.507 182.537 275.457 182.444 284.032 182.444C292.605 182.444 299.556 182.537 299.556 182.652Z" fill="#263238"/>
<path d="M292.574 212.314H288.654C288.489 212.314 288.354 212.18 288.354 212.014C288.354 211.849 288.489 211.714 288.654 211.714H292.274V208.114C292.274 207.949 292.408 207.814 292.574 207.814C292.739 207.814 292.874 207.949 292.874 208.114V212.014C292.874 212.18 292.739 212.314 292.574 212.314Z" fill="white"/>
<path d="M292.573 203.637C292.408 203.637 292.273 203.503 292.273 203.337V199.258H288.551C288.385 199.258 288.251 199.124 288.251 198.958C288.251 198.793 288.385 198.658 288.551 198.658H292.573C292.739 198.658 292.873 198.793 292.873 198.958V203.337C292.873 203.503 292.739 203.637 292.573 203.637Z" fill="white"/>
<path d="M279.518 203.74C279.353 203.74 279.218 203.605 279.218 203.44V198.958C279.218 198.793 279.353 198.658 279.518 198.658H283.518C283.684 198.658 283.818 198.793 283.818 198.958C283.818 199.124 283.684 199.258 283.518 199.258H279.818V203.44C279.818 203.605 279.684 203.74 279.518 203.74Z" fill="white"/>
<path d="M283.415 212.314H279.518C279.353 212.314 279.218 212.18 279.218 212.014V208.32C279.218 208.154 279.353 208.02 279.518 208.02C279.684 208.02 279.818 208.154 279.818 208.32V211.714H283.415C283.581 211.714 283.715 211.848 283.715 212.014C283.715 212.18 283.581 212.314 283.415 212.314Z" fill="white"/>
<path d="M288.549 209.527H283.622C283.457 209.527 283.322 209.392 283.322 209.227V201.629C283.322 201.464 283.457 201.329 283.622 201.329H288.549C288.715 201.329 288.849 201.464 288.849 201.629V209.227C288.849 209.392 288.715 209.527 288.549 209.527ZM283.922 208.927H288.249V201.929H283.922V208.927Z" fill="white"/>
<path d="M286.572 207.964C286.572 208.198 286.381 208.389 286.147 208.389C285.913 208.389 285.722 208.198 285.722 207.964C285.722 207.729 285.913 207.539 286.147 207.539C286.381 207.539 286.572 207.729 286.572 207.964Z" fill="white"/>
<path d="M286.64 203.082H285.532C285.366 203.082 285.232 202.948 285.232 202.782C285.232 202.617 285.366 202.482 285.532 202.482H286.64C286.806 202.482 286.94 202.617 286.94 202.782C286.94 202.948 286.806 203.082 286.64 203.082Z" fill="white"/>
<path d="M249.545 186.191H217.914C216.856 186.191 215.998 185.333 215.998 184.274C215.998 183.216 216.856 182.357 217.914 182.357H249.545C250.603 182.357 251.462 183.216 251.462 184.274C251.462 185.333 250.603 186.191 249.545 186.191Z" fill="white"/>
<path d="M226.447 192.108H217.915C216.857 192.108 215.999 191.25 215.999 190.191C215.999 189.133 216.857 188.274 217.915 188.274H226.447C227.505 188.274 228.363 189.133 228.363 190.191C228.363 191.25 227.505 192.108 226.447 192.108Z" fill="white"/>
<path d="M225.137 198.771C225.137 198.886 223.396 198.979 221.249 198.979C219.101 198.979 217.36 198.885 217.36 198.771C217.36 198.656 219.101 198.563 221.249 198.563C223.396 198.562 225.137 198.655 225.137 198.771Z" fill="white"/>
<path d="M249.742 212.234H248.564C247.676 212.234 246.956 211.514 246.956 210.626V209.449C246.956 208.561 247.676 207.841 248.564 207.841H249.742C250.63 207.841 251.35 208.561 251.35 209.449V210.626C251.35 211.514 250.63 212.234 249.742 212.234Z" fill="white"/>
<path d="M255.882 212.234H254.705C253.817 212.234 253.097 211.514 253.097 210.626V209.449C253.097 208.561 253.817 207.841 254.705 207.841H255.882C256.77 207.841 257.49 208.561 257.49 209.449V210.626C257.49 211.514 256.77 212.234 255.882 212.234Z" fill="white"/>
<path d="M262.023 212.18H260.846C259.958 212.18 259.238 211.46 259.238 210.572V209.394C259.238 208.506 259.958 207.786 260.846 207.786H262.023C262.911 207.786 263.631 208.506 263.631 209.394V210.572C263.631 211.46 262.911 212.18 262.023 212.18Z" fill="white"/>
<path d="M240.537 160.97H216.189V170.794H240.537V160.97Z" fill="white"/>
<path d="M375.796 122.165H343.739C342.287 122.165 341.111 120.989 341.111 119.537C341.111 118.086 342.287 116.91 343.739 116.91H375.796C377.247 116.91 378.423 118.086 378.423 119.537C378.423 120.989 377.247 122.165 375.796 122.165Z" fill="#E0E0E0"/>
<path d="M375.796 132.486H343.739C342.287 132.486 341.111 131.31 341.111 129.859C341.111 128.407 342.287 127.231 343.739 127.231H375.796C377.247 127.231 378.423 128.407 378.423 129.859C378.423 131.309 377.247 132.486 375.796 132.486Z" fill="#E0E0E0"/>
<path d="M353.393 142.583H343.739C342.287 142.583 341.111 141.407 341.111 139.955C341.111 138.504 342.287 137.328 343.739 137.328H353.393C354.844 137.328 356.02 138.504 356.02 139.955C356.02 141.407 354.843 142.583 353.393 142.583Z" fill="#E0E0E0"/>
<path d="M335.515 110.052C335.598 110.131 327.302 118.995 316.987 129.848C306.668 140.705 298.239 149.439 298.155 149.359C298.072 149.28 306.367 140.418 316.685 129.561C326.999 118.708 335.431 109.973 335.515 110.052Z" fill="#263238"/>
<path d="M302.858 149.115C302.858 150.939 301.379 152.417 299.555 152.417C297.731 152.417 296.253 150.939 296.253 149.115C296.253 147.291 297.731 145.813 299.555 145.813C301.379 145.812 302.858 147.291 302.858 149.115Z" fill="#263238"/>
<path d="M206.619 189.552C208.443 189.552 209.922 188.074 209.922 186.25C209.922 184.426 208.443 182.947 206.619 182.947C204.795 182.947 203.317 184.426 203.317 186.25C203.317 188.074 204.795 189.552 206.619 189.552Z" fill="#263238"/>
<path d="M300.766 210.841C302.59 210.841 304.068 209.363 304.068 207.539C304.068 205.715 302.59 204.236 300.766 204.236C298.942 204.236 297.463 205.715 297.463 207.539C297.463 209.363 298.942 210.841 300.766 210.841Z" fill="#263238"/>
<path d="M291.971 87.962H218.506C216.309 87.962 214.528 86.1812 214.528 83.9844C214.528 81.7876 216.309 80.0068 218.506 80.0068H291.971C294.168 80.0068 295.948 81.7876 295.948 83.9844C295.948 86.1812 294.167 87.962 291.971 87.962Z" fill="#E0E0E0"/>
<path d="M276.888 104.4H233.587C231.391 104.4 229.61 102.619 229.61 100.422C229.61 98.2251 231.391 96.4443 233.587 96.4443H276.888C279.085 96.4443 280.866 98.2251 280.866 100.422C280.865 102.619 279.085 104.4 276.888 104.4Z" fill="#E0E0E0"/>
<path d="M350.224 99.1133H341.111V108.226H350.224V99.1133Z" fill="#FF725E"/>
<path d="M175.544 112.679H143.487C142.035 112.679 140.859 111.503 140.859 110.052C140.859 108.601 142.035 107.425 143.487 107.425H175.544C176.995 107.425 178.171 108.601 178.171 110.052C178.172 111.503 176.995 112.679 175.544 112.679Z" fill="#E0E0E0"/>
<path d="M175.544 123H143.487C142.035 123 140.859 121.824 140.859 120.373C140.859 118.922 142.035 117.746 143.487 117.746H175.544C176.995 117.746 178.171 118.922 178.171 120.373C178.172 121.824 176.995 123 175.544 123Z" fill="#E0E0E0"/>
<path d="M153.141 133.097H143.487C142.035 133.097 140.859 131.921 140.859 130.47C140.859 129.019 142.035 127.843 143.487 127.843H153.141C154.592 127.843 155.768 129.019 155.768 130.47C155.768 131.92 154.592 133.097 153.141 133.097Z" fill="#E0E0E0"/>
<path d="M149.972 89.626H140.859V98.738H149.972V89.626Z" fill="#FF725E"/>
<path d="M381.681 221.626H349.623C348.172 221.626 346.996 220.45 346.996 218.999C346.996 217.548 348.172 216.372 349.623 216.372H381.681C383.132 216.372 384.308 217.548 384.308 218.999C384.308 220.45 383.132 221.626 381.681 221.626Z" fill="#E0E0E0"/>
<path d="M381.681 231.947H349.623C348.172 231.947 346.996 230.771 346.996 229.32C346.996 227.868 348.172 226.692 349.623 226.692H381.681C383.132 226.692 384.308 227.868 384.308 229.32C384.308 230.77 383.132 231.947 381.681 231.947Z" fill="#E0E0E0"/>
<path d="M359.277 242.044H349.622C348.171 242.044 346.995 240.868 346.995 239.417C346.995 237.966 348.171 236.79 349.622 236.79H359.277C360.728 236.79 361.904 237.966 361.904 239.417C361.905 240.868 360.728 242.044 359.277 242.044Z" fill="#E0E0E0"/>
<path d="M356.109 200.8H346.996V209.913H356.109V200.8Z" fill="#FF725E"/>
<path d="M339.835 207.539C339.835 207.568 339.354 207.595 338.484 207.62C337.544 207.637 336.302 207.659 334.799 207.686C331.688 207.724 327.391 207.747 322.643 207.747C317.895 207.747 313.596 207.724 310.486 207.686C308.984 207.659 307.743 207.637 306.802 207.62C305.932 207.595 305.451 207.567 305.451 207.539C305.451 207.51 305.932 207.483 306.802 207.458C307.743 207.441 308.984 207.419 310.486 207.392C313.597 207.354 317.895 207.331 322.643 207.331C327.391 207.331 331.688 207.354 334.799 207.392C336.301 207.419 337.544 207.441 338.484 207.458C339.355 207.483 339.835 207.51 339.835 207.539Z" fill="#263238"/>
<path d="M163.282 143.051C163.363 142.97 173.131 152.606 185.097 164.571C197.067 176.541 206.701 186.307 206.619 186.388C206.538 186.47 196.772 176.835 184.803 164.866C172.837 152.9 163.201 143.132 163.282 143.051Z" fill="#263238"/>
<path d="M199.639 137.471C199.418 137.471 199.239 137.292 199.239 137.071V125.265C199.239 125.044 199.418 124.865 199.639 124.865H211.466C211.686 124.865 211.866 125.044 211.866 125.265C211.866 125.486 211.686 125.665 211.466 125.665H200.039V137.071C200.039 137.292 199.861 137.471 199.639 137.471Z" fill="#FF725E"/>
<path d="M304.068 137.481C303.848 137.481 303.668 137.302 303.668 137.081V125.654H292.263C292.042 125.654 291.863 125.475 291.863 125.254C291.863 125.034 292.042 124.854 292.263 124.854H304.068C304.289 124.854 304.468 125.034 304.468 125.254V137.081C304.468 137.302 304.289 137.481 304.068 137.481Z" fill="#FF725E"/>
<path d="M304.068 236.453H292.242C292.021 236.453 291.842 236.274 291.842 236.053C291.842 235.832 292.021 235.653 292.242 235.653H303.668V224.247C303.668 224.026 303.847 223.847 304.068 223.847C304.289 223.847 304.468 224.026 304.468 224.247V236.053C304.468 236.274 304.289 236.453 304.068 236.453Z" fill="#FF725E"/>
<path d="M211.445 236.32H199.639C199.418 236.32 199.239 236.141 199.239 235.92V224.093C199.239 223.873 199.418 223.693 199.639 223.693C199.86 223.693 200.039 223.873 200.039 224.093V235.52H211.445C211.666 235.52 211.845 235.699 211.845 235.92C211.845 236.141 211.666 236.32 211.445 236.32Z" fill="#FF725E"/>
<path d="M255.212 285.444C260.183 283.367 262.529 277.654 260.452 272.683C258.376 267.712 252.663 265.366 247.692 267.443C242.721 269.52 240.375 275.233 242.452 280.204C244.528 285.174 250.242 287.52 255.212 285.444Z" fill="#E0E0E0"/>
<path d="M205.201 65.9419C207.399 63.7819 209.595 61.6219 211.793 59.4619C212.354 58.9107 212.387 57.8851 211.793 57.3403C211.19 56.7867 210.27 56.7523 209.671 57.3403C207.474 59.5003 205.277 61.6603 203.079 63.8211C202.519 64.3723 202.486 65.3979 203.079 65.9427C203.683 66.4955 204.603 66.5299 205.201 65.9419Z" fill="#E0E0E0"/>
<path d="M211.738 63.8765C209.578 61.6789 207.418 59.4821 205.258 57.2845C204.707 56.7237 203.681 56.6909 203.136 57.2845C202.583 57.8877 202.548 58.8078 203.136 59.4062C205.296 61.6037 207.456 63.8005 209.616 65.9981C210.167 66.5589 211.193 66.5917 211.738 65.9981C212.291 65.3949 212.325 64.4749 211.738 63.8765Z" fill="#E0E0E0"/>
<path d="M314.987 216.698C314.987 216.813 287.271 216.906 253.089 216.906C218.895 216.906 191.185 216.813 191.185 216.698C191.185 216.583 218.895 216.49 253.089 216.49C287.271 216.49 314.987 216.583 314.987 216.698Z" fill="#263238"/>
<path d="M291.765 255.179H164.569V371.772H291.765V255.179Z" fill="#FF725E"/>
<g opacity="0.3">
<path d="M291.765 255.179H164.569V371.772H291.765V255.179Z" fill="black"/>
</g>
<path d="M240.089 255.179H132.917V371.772H240.089V255.179Z" fill="#FF725E"/>
<path d="M240.089 371.983C239.974 371.983 239.881 345.833 239.881 313.584C239.881 281.323 239.975 255.179 240.089 255.179C240.204 255.179 240.297 281.323 240.297 313.584C240.298 345.833 240.205 371.983 240.089 371.983Z" fill="#263238"/>
<path d="M291.765 313.58C291.765 313.695 279.884 313.788 265.232 313.788C250.575 313.788 238.697 313.694 238.697 313.58C238.697 313.465 250.576 313.372 265.232 313.372C279.884 313.372 291.765 313.466 291.765 313.58Z" fill="#263238"/>
<path d="M279.833 364.566H273.133C272.69 364.566 272.333 364.209 272.333 363.766C272.333 363.324 272.69 362.966 273.133 362.966H279.033V357.1C279.033 356.657 279.39 356.3 279.833 356.3C280.275 356.3 280.633 356.657 280.633 357.1V363.766C280.633 364.209 280.274 364.566 279.833 364.566Z" fill="white"/>
<path d="M279.832 349.736C279.39 349.736 279.032 349.379 279.032 348.936V342.251H272.956C272.514 342.251 272.156 341.894 272.156 341.451C272.156 341.009 272.514 340.651 272.956 340.651H279.832C280.275 340.651 280.632 341.009 280.632 341.451V348.936C280.632 349.379 280.274 349.736 279.832 349.736Z" fill="white"/>
<path d="M257.517 349.911C257.075 349.911 256.717 349.554 256.717 349.111V341.451C256.717 341.009 257.075 340.651 257.517 340.651H264.354C264.796 340.651 265.154 341.009 265.154 341.451C265.154 341.894 264.796 342.251 264.354 342.251H258.317V349.111C258.317 349.554 257.96 349.911 257.517 349.911Z" fill="white"/>
<path d="M264.178 364.566H257.517C257.075 364.566 256.717 364.208 256.717 363.766V357.451C256.717 357.009 257.075 356.651 257.517 356.651C257.96 356.651 258.317 357.009 258.317 357.451V362.966H264.178C264.62 362.966 264.978 363.323 264.978 363.766C264.978 364.208 264.62 364.566 264.178 364.566Z" fill="white"/>
<path d="M272.954 359.803H264.532C264.09 359.803 263.732 359.446 263.732 359.003V346.017C263.732 345.574 264.09 345.217 264.532 345.217H272.954C273.396 345.217 273.754 345.574 273.754 346.017V359.003C273.754 359.446 273.396 359.803 272.954 359.803ZM265.332 358.203H272.154V346.817H265.332V358.203Z" fill="white"/>
<path d="M268.848 357.569C269.248 357.569 269.573 357.244 269.573 356.844C269.573 356.443 269.248 356.118 268.848 356.118C268.447 356.118 268.122 356.443 268.122 356.844C268.122 357.244 268.447 357.569 268.848 357.569Z" fill="white"/>
<path d="M269.69 348.787H267.797C267.354 348.787 266.997 348.429 266.997 347.987C266.997 347.544 267.354 347.187 267.797 347.187H269.69C270.133 347.187 270.49 347.544 270.49 347.987C270.49 348.428 270.133 348.787 269.69 348.787Z" fill="white"/>
<path d="M206.287 319.628H152.224C150.414 319.628 148.948 318.162 148.948 316.352C148.948 314.543 150.415 313.076 152.224 313.076H206.286C208.096 313.076 209.562 314.543 209.562 316.352C209.563 318.162 208.096 319.628 206.287 319.628Z" fill="white"/>
<path d="M166.806 329.741H152.224C150.414 329.741 148.948 328.275 148.948 326.465C148.948 324.656 150.415 323.189 152.224 323.189H166.806C168.616 323.189 170.082 324.656 170.082 326.465C170.083 328.275 168.616 329.741 166.806 329.741Z" fill="white"/>
<path d="M164.569 341.129C164.569 341.244 161.593 341.337 157.923 341.337C154.251 341.337 151.276 341.243 151.276 341.129C151.276 341.014 154.251 340.921 157.923 340.921C161.593 340.921 164.569 341.014 164.569 341.129Z" fill="white"/>
<path d="M207.764 364.143H203.47C202.582 364.143 201.862 363.423 201.862 362.535V358.242C201.862 357.354 202.582 356.634 203.47 356.634H207.764C208.652 356.634 209.372 357.354 209.372 358.242V362.535C209.372 363.423 208.652 364.143 207.764 364.143Z" fill="white"/>
<path d="M218.259 364.143H213.965C213.077 364.143 212.357 363.423 212.357 362.535V358.242C212.357 357.354 213.077 356.634 213.965 356.634H218.259C219.147 356.634 219.867 357.354 219.867 358.242V362.535C219.868 363.423 219.148 364.143 218.259 364.143Z" fill="white"/>
<path d="M228.755 364.049H224.462C223.574 364.049 222.854 363.329 222.854 362.441V358.147C222.854 357.259 223.574 356.539 224.462 356.539H228.755C229.643 356.539 230.363 357.259 230.363 358.147V362.441C230.364 363.329 229.644 364.049 228.755 364.049Z" fill="white"/>
<path d="M199.681 283.207H150.122V300.179H199.681V283.207Z" fill="white"/>
<path d="M305.092 333.58C310.093 337.185 310.338 344.755 306.187 349.007C304.388 350.851 307.213 353.682 309.016 351.836C311.865 348.918 313.381 344.8 313.054 340.724C312.709 336.419 310.615 332.652 307.111 330.127C306.234 329.495 304.883 329.975 304.375 330.844C303.785 331.851 304.213 332.947 305.092 333.58Z" fill="#1155CC"/>
<path d="M311.31 328.518C319.314 334.25 319.907 346.422 313.161 353.293C311.356 355.131 314.182 357.961 315.989 356.121C322.45 349.541 323.682 338.876 318.896 330.98C317.467 328.622 315.564 326.665 313.33 325.065C312.451 324.436 311.103 324.912 310.593 325.783C310.004 326.788 310.43 327.888 311.31 328.518Z" fill="#1155CC"/>
<path d="M318.052 322.634C326.578 328.715 329.207 340.384 325.324 349.798C324.264 352.37 322.637 354.785 320.66 356.79C318.851 358.626 321.677 361.456 323.489 359.619C331.957 351.026 333.512 337.013 327.199 326.728C325.36 323.732 322.926 321.217 320.071 319.18C319.191 318.553 317.845 319.025 317.335 319.898C316.747 320.902 317.17 322.005 318.052 322.634Z" fill="#1155CC"/>
<path d="M99.7089 347.013L99.2017 371.231L131.081 371.981C130.97 369.099 114.63 362.933 114.63 362.933L115.629 347.428L99.7089 347.013Z" fill="#455A64"/>
<g opacity="0.6">
<path d="M104.807 361.394C104.186 361.54 103.742 362.184 103.87 362.777C103.998 363.37 104.688 363.801 105.312 363.667C105.936 363.532 106.494 362.772 106.296 362.197C106.099 361.622 105.259 361.156 104.687 361.428" fill="white"/>
</g>
<g opacity="0.6">
<path d="M99.2017 371.23L99.3537 368.791L129.862 370.423C129.862 370.423 131.266 371.04 131.08 371.981L99.2017 371.23Z" fill="white"/>
</g>
<path d="M115.151 362.791C115.142 362.938 114.362 362.986 113.583 363.442C112.792 363.878 112.381 364.506 112.239 364.443C112.097 364.411 112.352 363.538 113.305 363.002C114.251 362.459 115.188 362.657 115.151 362.791Z" fill="#263238"/>
<path d="M118.46 364.177C118.492 364.32 117.811 364.555 117.266 365.164C116.702 365.759 116.551 366.428 116.396 366.418C116.248 366.438 116.164 365.574 116.856 364.828C117.543 364.077 118.46 364.037 118.46 364.177Z" fill="#263238"/>
<path d="M120.259 368.004C120.117 368.032 119.92 367.292 120.341 366.496C120.756 365.697 121.499 365.396 121.561 365.52C121.646 365.643 121.162 366.064 120.827 366.723C120.475 367.374 120.415 367.993 120.259 368.004Z" fill="#263238"/>
<path d="M114.963 359.233C114.894 359.366 114.186 359.146 113.304 359.182C112.422 359.201 111.73 359.464 111.652 359.335C111.565 359.227 112.247 358.699 113.286 358.67C114.325 358.634 115.043 359.119 114.963 359.233Z" fill="#263238"/>
<path d="M114.298 355.642C114.298 355.703 113.681 355.779 112.702 355.596C112.214 355.505 111.642 355.34 111.044 355.072C110.746 354.938 110.441 354.779 110.139 354.591C109.995 354.498 109.823 354.404 109.666 354.224C109.498 354.067 109.41 353.674 109.615 353.44C109.785 353.212 110.076 353.119 110.306 353.12C110.541 353.119 110.73 353.167 110.902 353.212C111.255 353.302 111.585 353.421 111.886 353.557C112.489 353.833 112.974 354.176 113.334 354.505C114.057 355.17 114.295 355.725 114.241 355.752C114.169 355.799 113.821 355.33 113.082 354.778C112.714 354.503 112.242 354.217 111.678 353.986C111.396 353.872 111.091 353.772 110.769 353.697C110.434 353.605 110.146 353.596 110.056 353.736C110.023 353.79 110.018 353.811 110.086 353.906C110.157 353.994 110.292 354.081 110.434 354.173C110.711 354.353 110.991 354.511 111.265 354.648C111.814 354.922 112.341 355.113 112.794 355.243C113.703 355.507 114.303 355.562 114.298 355.642Z" fill="#263238"/>
<path d="M114.09 355.847C114.034 355.869 113.74 355.335 113.708 354.38C113.694 353.907 113.761 353.335 113.97 352.733C114.076 352.433 114.217 352.127 114.4 351.827C114.594 351.533 114.834 351.14 115.438 351.089C115.754 351.085 116.01 351.324 116.094 351.526C116.194 351.732 116.211 351.907 116.244 352.083C116.294 352.436 116.277 352.781 116.218 353.099C116.102 353.738 115.81 354.264 115.495 354.641C114.852 355.407 114.198 355.567 114.186 355.517C114.135 355.442 114.686 355.171 115.182 354.432C115.427 354.068 115.649 353.585 115.725 353.027C115.763 352.748 115.766 352.452 115.718 352.154C115.677 351.832 115.557 351.571 115.429 351.601C115.27 351.595 114.994 351.83 114.858 352.082C114.686 352.348 114.55 352.621 114.441 352.891C114.226 353.431 114.126 353.95 114.092 354.389C114.023 355.272 114.175 355.827 114.09 355.847Z" fill="#263238"/>
<path d="M75.5473 349.024L72.5017 373.055L40.8569 369.128C41.3889 366.293 58.4553 362.587 58.4553 362.587L59.7385 347.103L75.5473 349.024Z" fill="#455A64"/>
<g opacity="0.6">
<path d="M68.398 362.505C68.9908 362.739 69.3356 363.442 69.1228 364.01C68.91 364.578 68.1636 364.904 67.566 364.679C66.9684 364.454 66.5284 363.622 66.8076 363.082C67.0868 362.542 67.9868 362.204 68.5116 362.557" fill="white"/>
</g>
<g opacity="0.6">
<path d="M72.5018 373.055L72.7082 370.62L42.2906 367.765C42.2906 367.765 40.8114 368.169 40.857 369.128L72.5018 373.055Z" fill="white"/>
</g>
<path d="M57.9612 362.371C57.9484 362.517 58.7132 362.68 59.4164 363.244C60.1348 363.791 60.45 364.473 60.5996 364.432C60.746 364.421 60.6212 363.519 59.7572 362.85C58.8996 362.174 57.9436 362.233 57.9612 362.371Z" fill="#263238"/>
<path d="M54.484 363.257C54.4312 363.395 55.0704 363.726 55.5208 364.409C55.992 365.079 56.0432 365.764 56.1976 365.777C56.34 365.818 56.5504 364.975 55.9744 364.136C55.4056 363.292 54.504 363.118 54.484 363.257Z" fill="#263238"/>
<path d="M52.1443 366.779C52.2811 366.828 52.5843 366.125 52.2843 365.275C51.9907 364.424 51.3003 364.017 51.2203 364.131C51.1187 364.241 51.5355 364.728 51.7707 365.429C52.0227 366.124 51.9923 366.745 52.1443 366.779Z" fill="#263238"/>
<path d="M58.6676 358.88C58.7164 359.021 59.45 358.908 60.3164 359.072C61.1868 359.22 61.8324 359.581 61.9284 359.466C62.0308 359.372 61.4324 358.748 60.4092 358.568C59.3868 358.38 58.6052 358.756 58.6676 358.88Z" fill="#263238"/>
<path d="M59.8512 355.423C59.8424 355.483 60.4416 355.65 61.4376 355.612C61.9328 355.593 62.5232 355.514 63.1536 355.336C63.4688 355.247 63.7936 355.134 64.1192 354.992C64.276 354.922 64.4592 354.854 64.64 354.699C64.8296 354.568 64.9744 354.193 64.8048 353.93C64.6704 353.68 64.396 353.546 64.168 353.513C63.9352 353.477 63.7408 353.498 63.564 353.517C63.2016 353.554 62.8576 353.623 62.54 353.714C61.904 353.899 61.3728 354.167 60.9688 354.44C60.1568 354.991 59.84 355.506 59.8888 355.541C59.9528 355.598 60.3656 355.185 61.1776 354.746C61.5824 354.529 62.0912 354.314 62.6824 354.169C62.9784 354.098 63.2944 354.044 63.6248 354.017C63.9704 353.975 64.2552 354.008 64.3248 354.16C64.3496 354.218 64.3512 354.239 64.2696 354.323C64.1864 354.4 64.0408 354.466 63.8864 354.537C63.5856 354.674 63.2856 354.79 62.9944 354.886C62.4112 355.076 61.8616 355.187 61.3952 355.251C60.4592 355.378 59.8576 355.343 59.8512 355.423Z" fill="#263238"/>
<path d="M60.0276 355.658C60.0796 355.687 60.45 355.202 60.6212 354.263C60.7044 353.796 60.722 353.222 60.6044 352.595C60.5436 352.283 60.4484 351.959 60.3108 351.635C60.1612 351.317 59.9828 350.893 59.3916 350.753C59.0796 350.703 58.7916 350.902 58.6788 351.089C58.55 351.279 58.5076 351.45 58.4492 351.618C58.3484 351.96 58.314 352.303 58.326 352.627C58.3484 353.276 58.5596 353.84 58.8148 354.259C59.3396 355.111 59.9628 355.365 59.982 355.317C60.0428 355.25 59.538 354.901 59.1556 354.098C58.9668 353.702 58.818 353.191 58.8252 352.627C58.8276 352.346 58.8676 352.053 58.9588 351.765C59.0468 351.453 59.2044 351.212 59.326 351.26C59.4836 351.277 59.722 351.55 59.8204 351.819C59.95 352.107 60.046 352.399 60.1148 352.68C60.2476 353.246 60.2716 353.774 60.2404 354.214C60.1772 355.099 59.946 355.625 60.0276 355.658Z" fill="#263238"/>
<path d="M127.361 218.381L74.8009 220.062C74.8009 220.062 63.1041 298.182 63.4265 303.609L56.2129 360.274L77.2049 361.01C77.2049 361.01 80.5073 342.634 82.8105 330.058C84.3425 321.69 87.1385 309.413 87.8969 302.426C88.6553 295.438 99.1153 247.346 99.1153 247.346C99.1153 247.346 100.025 303.286 100.046 305.613C100.066 307.94 97.6193 360.966 97.6193 360.966H118.463C119.54 351.395 122.098 313.097 122.649 305.357C123.643 291.385 128.53 251.184 128.987 241.096C129.442 231.009 127.361 218.381 127.361 218.381Z" fill="#263238"/>
<path d="M82.7776 226.767C82.6776 226.77 82.5632 225.682 82.5224 224.336C82.4816 222.99 82.5296 221.897 82.6296 221.894C82.7296 221.89 82.844 222.979 82.8848 224.325C82.9264 225.67 82.8784 226.764 82.7776 226.767Z" fill="#455A64"/>
<path d="M84.6946 226.199C84.5946 226.189 84.6002 225.259 84.7066 224.121C84.813 222.983 84.9802 222.068 85.0802 222.077C85.1802 222.087 85.1746 223.016 85.0682 224.155C84.9618 225.293 84.7946 226.208 84.6946 226.199Z" fill="#455A64"/>
<path d="M116.771 226.203C116.872 226.203 116.953 225.406 116.953 224.423C116.953 223.44 116.872 222.643 116.771 222.643C116.671 222.643 116.59 223.44 116.59 224.423C116.59 225.406 116.671 226.203 116.771 226.203Z" fill="#455A64"/>
<path d="M118.832 227.139C118.739 227.154 118.52 226.132 118.629 224.858C118.732 223.584 119.117 222.611 119.207 222.641C119.308 222.671 119.089 223.657 118.99 224.888C118.884 226.118 118.937 227.127 118.832 227.139Z" fill="#455A64"/>
<path d="M102.089 246.094C102.064 246.088 102.109 245.763 102.211 245.18C102.323 244.525 102.464 243.697 102.632 242.709C102.977 240.623 103.383 237.728 103.645 234.514C103.904 231.298 103.968 228.376 103.964 226.261C103.957 225.259 103.951 224.419 103.946 223.756C103.94 223.164 103.948 222.835 103.973 222.834C103.998 222.832 104.037 223.159 104.088 223.749C104.14 224.34 104.188 225.197 104.222 226.257C104.292 228.377 104.268 231.313 104.008 234.544C103.744 237.772 103.296 240.674 102.886 242.755C102.682 243.796 102.497 244.634 102.35 245.209C102.205 245.784 102.114 246.1 102.089 246.094Z" fill="#455A64"/>
<path d="M100.292 223.42C100.307 223.484 99.7394 223.415 99.2418 224.006C99.0106 224.286 98.8114 224.725 98.8986 225.182C98.9706 225.639 99.4098 226.029 99.9498 226.13C100.49 226.234 101.041 226.033 101.276 225.634C101.525 225.241 101.501 224.759 101.388 224.414C101.142 223.682 100.588 223.538 100.626 223.483C100.629 223.467 100.765 223.464 100.976 223.574C101.187 223.68 101.455 223.926 101.628 224.323C101.789 224.71 101.865 225.279 101.561 225.808C101.264 226.351 100.536 226.62 99.8818 226.486C99.2242 226.37 98.6458 225.853 98.569 225.239C98.4802 224.635 98.7602 224.135 99.0514 223.833C99.357 223.527 99.6978 223.397 99.9322 223.375C100.17 223.351 100.295 223.403 100.292 223.42Z" fill="#455A64"/>
<path d="M77.4099 309.613C77.3715 309.706 74.9915 308.816 72.0939 307.626C69.1955 306.435 66.8771 305.395 66.9155 305.303C66.9539 305.21 69.3331 306.099 72.2315 307.29C75.1299 308.481 77.4483 309.52 77.4099 309.613Z" fill="#455A64"/>
<path d="M130.139 221.894C129.953 221.223 125.767 186.543 125.767 186.543L127.94 141.535L109.212 134.967L106.248 132.704L87.4234 132.923L85.2906 136.098L67.4658 144.211L72.433 181.085L73.8266 211.942L75.1442 223.37L127.975 226.521L130.139 221.894Z" fill="#1155CC"/>
<g opacity="0.3">
<path d="M127.266 198.762L107.497 201.137C107.305 202.6 108.419 203.995 109.78 204.564C111.142 205.134 112.683 205.048 114.144 204.84C115.605 204.632 117.072 204.311 118.542 204.44C120.016 204.571 121.45 205.153 122.928 205.062C124.392 204.971 125.798 204.177 126.63 202.968C127.463 201.759 127.704 200.162 127.266 198.762Z" fill="black"/>
</g>
<path d="M127.941 141.534C127.941 141.534 132.324 142.148 134.884 149.829C137.444 157.509 143.461 185.415 143.845 187.335C144.229 189.255 142.561 195.384 135.879 198.125C129.46 200.759 124.388 199.927 124.388 199.927V185.799L127.204 182.727L126.101 177.744L127.941 141.534Z" fill="#1155CC"/>
<path d="M139.847 183.483C139.84 183.497 139.604 183.39 139.178 183.202C138.752 183.014 138.134 182.742 137.352 182.454C136.572 182.167 135.626 181.863 134.548 181.657C134.01 181.553 133.439 181.473 132.844 181.441C132.248 181.4 131.638 181.426 131.02 181.549C128.54 182.056 126.559 183.449 125.552 184.746C125.033 185.395 124.775 186.021 124.602 186.449C124.472 186.893 124.404 187.143 124.388 187.141C124.382 187.139 124.39 187.076 124.413 186.954C124.438 186.833 124.469 186.653 124.528 186.425C124.679 185.983 124.924 185.334 125.439 184.66C126.442 183.31 128.444 181.87 130.982 181.351C131.613 181.225 132.256 181.198 132.857 181.243C133.462 181.279 134.041 181.363 134.585 181.473C135.675 181.693 136.625 182.013 137.404 182.32C138.184 182.626 138.795 182.919 139.212 183.13C139.421 183.234 139.58 183.321 139.688 183.381C139.795 183.442 139.85 183.477 139.847 183.483Z" fill="#263238"/>
<path d="M135.879 180.848C135.865 180.884 135.35 180.644 134.465 180.464C133.587 180.281 132.316 180.2 130.983 180.533C129.65 180.867 128.567 181.538 127.879 182.113C127.184 182.689 126.843 183.142 126.814 183.118C126.804 183.11 126.879 182.99 127.038 182.789C127.196 182.588 127.445 182.312 127.787 182.005C128.463 181.392 129.563 180.68 130.935 180.338C132.306 179.995 133.611 180.103 134.496 180.326C134.942 180.436 135.292 180.562 135.526 180.665C135.761 180.766 135.883 180.836 135.879 180.848Z" fill="#263238"/>
<path d="M126.499 153.044C126.555 153.045 126.516 159.918 126.413 168.394C126.31 176.874 126.182 183.745 126.126 183.744C126.07 183.743 126.108 176.871 126.211 168.392C126.315 159.916 126.443 153.043 126.499 153.044Z" fill="#263238"/>
<path d="M126.842 184.318L116.316 184.182C115.595 184.174 114.925 184.559 114.568 185.186L107.368 200.775L107.639 201.826H119.875L127.029 185.752L126.842 184.318Z" fill="#263238"/>
<path d="M126.748 186.384L126.359 187.263L124.227 191.576C124.227 191.576 118.709 191.082 117.842 190.966C116.974 190.85 116.512 191.776 116.454 192.321C116.396 192.865 116.916 193.489 116.916 193.489C116.916 193.489 113.504 192.412 112.347 191.602C111.19 190.793 110.612 191.301 110.612 191.301C109.571 190.248 108.24 191.313 108.182 191.602C108.124 191.891 109.396 194.957 109.86 195.665C110.323 196.373 112.868 198.833 113.041 199.122C113.215 199.412 115.181 199.932 117.437 201.169C119.532 202.317 121.127 200.965 121.344 200.768C121.38 200.769 121.469 200.764 121.66 200.742C122.181 200.685 123.569 199.354 123.916 199.396C124.264 199.437 124.552 199.353 125.247 198.585C125.941 197.817 127.792 194.553 128.301 192.817C128.705 191.441 128.468 191.085 128.353 190.996C128.524 191.089 129.172 191.407 130.395 191.603C131.841 191.834 132.593 190.793 132.708 188.827C132.823 186.859 128.368 186.905 126.748 186.384Z" fill="#FFBF9D"/>
<path d="M126.001 195.376C126.003 195.388 125.873 195.419 125.635 195.464C125.398 195.512 125.049 195.557 124.617 195.59C123.754 195.657 122.545 195.625 121.248 195.346C119.951 195.063 118.837 194.591 118.079 194.173C117.699 193.965 117.401 193.78 117.205 193.638C117.008 193.499 116.901 193.417 116.909 193.407C116.926 193.381 117.37 193.677 118.137 194.062C118.903 194.448 120.008 194.894 121.286 195.173C122.565 195.449 123.756 195.5 124.612 195.465C125.468 195.432 125.996 195.345 126.001 195.376Z" fill="#FF9A6C"/>
<path d="M126.102 191.431C126.118 191.473 125.553 191.694 124.815 191.724C124.076 191.76 123.494 191.591 123.506 191.547C123.516 191.496 124.094 191.582 124.807 191.547C125.52 191.519 126.088 191.38 126.102 191.431Z" fill="#FF9A6C"/>
<path d="M128.719 191.246C128.697 191.294 127.916 190.963 126.912 190.687C125.91 190.406 125.07 190.287 125.076 190.235C125.079 190.189 125.94 190.231 126.96 190.515C127.98 190.796 128.739 191.206 128.719 191.246Z" fill="#FF9A6C"/>
<path d="M128.212 187.531C128.262 187.548 128.063 188.148 128.055 188.915C128.055 189.295 128.07 189.65 128.152 189.871C128.231 190.1 128.387 190.156 128.376 190.182C128.373 190.192 128.329 190.195 128.258 190.16C128.187 190.127 128.099 190.045 128.037 189.922C127.91 189.672 127.879 189.308 127.877 188.912C127.887 188.109 128.171 187.509 128.212 187.531Z" fill="#FF9A6C"/>
<path d="M122.902 198.729C122.901 198.735 122.843 198.737 122.731 198.735C122.598 198.73 122.436 198.725 122.241 198.718C121.816 198.696 121.2 198.663 120.443 198.575C119.687 198.486 118.783 198.342 117.819 198.025C117.338 197.866 116.843 197.658 116.359 197.394C115.875 197.13 115.397 196.821 114.909 196.51C112.711 195.106 110.754 193.842 109.49 193.011L109.459 192.991L109.463 192.958C109.545 192.317 109.904 191.909 110.163 191.702C110.295 191.595 110.411 191.534 110.491 191.495C110.571 191.46 110.615 191.446 110.617 191.451C110.624 191.466 110.451 191.53 110.203 191.748C109.964 191.962 109.637 192.366 109.576 192.968L109.551 192.915C110.835 193.712 112.807 194.956 115.004 196.359C115.494 196.671 115.967 196.979 116.443 197.24C116.917 197.502 117.399 197.708 117.871 197.869C118.816 198.189 119.709 198.344 120.459 198.449C121.21 198.552 121.823 198.604 122.246 198.647C122.44 198.667 122.601 198.684 122.733 198.698C122.843 198.713 122.902 198.722 122.902 198.729Z" fill="#FF9A6C"/>
<path d="M121.037 200.607C121.035 200.618 120.851 200.602 120.519 200.55C120.189 200.499 119.711 200.416 119.126 200.289C117.958 200.027 116.348 199.619 114.655 198.909C113.811 198.547 113.05 198.09 112.435 197.582C111.818 197.078 111.323 196.557 110.926 196.109C110.528 195.66 110.227 195.281 110.02 195.018C109.814 194.754 109.706 194.604 109.715 194.596C109.725 194.588 109.851 194.723 110.073 194.974C110.296 195.222 110.611 195.589 111.019 196.024C111.426 196.458 111.924 196.965 112.538 197.454C113.148 197.947 113.892 198.389 114.726 198.746C116.399 199.447 118 199.876 119.155 200.166C119.734 200.309 120.207 200.41 120.532 200.482C120.859 200.554 121.039 200.594 121.037 200.607Z" fill="#FF9A6C"/>
<path d="M69.5402 153.235C69.4874 153.251 68.9898 151.822 68.4298 150.042C67.869 148.262 67.4586 146.805 67.5114 146.788C67.5642 146.771 68.0618 148.201 68.6218 149.981C69.1818 151.761 69.593 153.218 69.5402 153.235Z" fill="#263238"/>
<path d="M127.777 143.684C127.805 143.689 127.76 144.051 127.679 144.633C127.591 145.288 127.488 146.058 127.374 146.908C127.275 147.76 127.187 148.532 127.111 149.189C127.046 149.773 127 150.135 126.971 150.133C126.944 150.132 126.94 149.767 126.969 149.177C126.998 148.588 127.063 147.776 127.175 146.883C127.287 145.99 127.423 145.187 127.539 144.609C127.656 144.031 127.751 143.678 127.777 143.684Z" fill="#263238"/>
<path d="M109.398 196.576C109.413 196.598 109.133 196.821 108.612 197.205C108.093 197.591 107.324 198.124 106.357 198.759C104.424 200.031 101.673 201.673 98.5077 203.244C95.3397 204.812 92.3677 206.008 90.1853 206.777C89.0941 207.162 88.2037 207.452 87.5821 207.631C86.9613 207.814 86.6141 207.902 86.6061 207.876C86.5981 207.85 86.9285 207.713 87.5333 207.486C88.2085 207.23 89.0653 206.905 90.0885 206.517C92.2397 205.685 95.1805 204.454 98.3333 202.893C101.484 201.329 104.243 199.734 106.208 198.525C107.136 197.946 107.913 197.461 108.526 197.078C109.073 196.734 109.383 196.554 109.398 196.576Z" fill="#263238"/>
<g opacity="0.3">
<path d="M69.4515 200.045C67.5187 199.02 65.5659 197.988 63.4571 197.409C61.3475 196.829 59.0379 196.733 57.0147 197.564C56.7891 197.657 56.5363 197.805 56.5195 198.048C56.4963 198.386 56.9227 198.546 57.2579 198.599C61.2747 199.237 65.5211 199.533 69.5459 200.123" fill="black"/>
</g>
<path d="M91.6401 234.742C91.6401 234.742 87.5201 231.396 86.3265 229.876C85.1329 228.356 84.3537 227.476 84.3537 227.476C84.3537 227.476 79.4193 225.997 77.6049 223.912C75.7913 221.825 72.8105 218.812 72.8105 218.812L66.9609 224.942C66.9609 224.942 70.3345 230.411 70.6089 232.213C70.8841 234.016 72.9433 238.983 72.9433 238.983L84.1697 232.271C84.1697 232.271 86.5609 235.617 88.0921 235.983C89.3473 236.282 91.5425 237.189 91.6401 234.742Z" fill="#FFBF9D"/>
<path d="M67.466 144.211C67.466 144.211 63.4196 145.241 59.4092 160.324C55.7884 173.942 50.866 200.23 51.034 202.874C51.2012 205.518 66.8412 229.237 66.8412 229.237L70.2196 230.438L77.4844 224.399C77.4844 224.399 79.8556 220.466 79.1804 219.506C78.5052 218.546 75.49 216.534 75.49 216.534L69.5444 200.123L72.8444 178.372L67.466 144.211Z" fill="#1155CC"/>
<path d="M63.4195 199.095C63.4219 199.08 63.5731 199.089 63.8571 199.122C64.1923 199.167 64.5995 199.221 65.0915 199.287C66.2251 199.46 67.7427 199.691 69.5699 199.969L69.6579 199.983L69.6899 200.069C70.6299 202.629 71.8107 205.847 73.0947 209.345C74.0227 211.931 74.8955 214.365 75.6523 216.473L75.5979 216.398C76.0875 216.811 76.5707 217.161 77.0043 217.589C77.4251 218.017 77.7451 218.497 77.9683 218.982C78.4203 219.957 78.4739 220.923 78.3763 221.674C78.2691 222.436 78.0035 222.978 77.8635 223.349C77.7123 223.721 77.6235 223.917 77.6059 223.911C77.5883 223.905 77.6435 223.697 77.7627 223.313C77.8739 222.926 78.1027 222.38 78.1747 221.652C78.2395 220.929 78.1595 220.013 77.7123 219.105C77.4907 218.653 77.1819 218.209 76.7811 217.816C76.3827 217.433 75.8707 217.069 75.3827 216.669L75.3451 216.637L75.3283 216.593C74.5587 214.489 73.6707 212.06 72.7267 209.48C71.4723 205.971 70.3179 202.743 69.4003 200.175L69.5195 200.274C67.7011 199.941 66.1915 199.665 65.0635 199.459C64.5771 199.361 64.1739 199.279 63.8427 199.212C63.5627 199.15 63.4171 199.11 63.4195 199.095Z" fill="#263238"/>
<path d="M71.1307 160.525C71.2387 160.52 71.9219 171.613 72.6563 185.301C73.3907 198.994 73.8987 210.095 73.7899 210.101C73.6819 210.106 72.9987 199.015 72.2643 185.322C71.5299 171.634 71.0227 160.531 71.1307 160.525Z" fill="#263238"/>
<path d="M100.744 145.366C100.747 145.39 100.518 145.436 100.099 145.475C99.6794 145.515 99.069 145.536 98.3154 145.492C96.8138 145.411 94.7194 144.997 92.6554 143.94C90.5898 142.884 89.029 141.428 88.085 140.257C87.609 139.672 87.2682 139.164 87.0554 138.801C86.8418 138.438 86.7458 138.226 86.7658 138.214C86.821 138.179 87.2994 138.976 88.2866 140.084C89.2658 141.191 90.8138 142.577 92.8258 143.606C94.8362 144.636 96.8658 145.08 98.3362 145.228C99.8138 145.38 100.74 145.3 100.744 145.366Z" fill="#263238"/>
<path d="M109.086 135.749C109.125 135.736 109.371 136.294 109.474 137.266C109.581 138.228 109.49 139.622 108.89 141.002C108.29 142.383 107.333 143.4 106.555 143.977C105.773 144.564 105.197 144.765 105.181 144.727C105.152 144.672 105.676 144.389 106.387 143.771C107.097 143.16 107.974 142.164 108.545 140.852C109.115 139.541 109.245 138.221 109.209 137.284C109.177 136.341 109.026 135.764 109.086 135.749Z" fill="#263238"/>
<path d="M115.19 99.7604C117.001 99.998 118.884 98.6956 119.302 96.918C119.72 95.1404 118.615 93.1356 116.888 92.5412C118.036 91.4036 118.349 89.5116 117.631 88.0644C116.912 86.6164 115.216 85.7228 113.616 85.9484C113.576 84.3532 112.649 82.8092 111.26 82.0244C109.872 81.2396 108.07 81.242 106.684 82.0308C104.947 80.4908 102.108 80.3868 100.263 81.7956C98.7187 81.4836 97.0155 82.2804 96.2651 83.666C95.5147 85.0516 95.7779 86.9132 96.8835 88.0364" fill="#263238"/>
<path d="M115.722 100.29C115.205 92.0664 108.457 85.6208 100.219 85.4744L99.4005 85.46C90.5629 85.82 85.9309 93.5264 86.5349 102.35L87.3789 133.359C89.3669 138.086 92.6229 141.916 98.6293 142.927C101.056 143.336 103.572 142.733 105.394 141.08C106.736 139.862 107.549 138.324 107.664 136.302L107.748 130.151C107.748 130.151 116.259 128.982 116.514 120.498C116.637 116.4 116.204 107.941 115.722 100.29Z" fill="#FFBF9D"/>
<path d="M107.819 130.14C107.819 130.14 102.394 130.37 96.7578 126.689C96.7578 126.689 99.265 132.842 107.746 132.228L107.819 130.14Z" fill="#FF9A6C"/>
<path d="M113.432 107.692C113.444 108.332 112.911 108.87 112.242 108.894C111.575 108.918 111.024 108.419 111.012 107.779C111.001 107.139 111.534 106.601 112.201 106.576C112.87 106.552 113.421 107.052 113.432 107.692Z" fill="#263238"/>
<path d="M113.825 104.412C113.672 104.567 112.767 103.872 111.462 103.852C110.16 103.813 109.191 104.468 109.052 104.305C108.984 104.233 109.142 103.951 109.564 103.655C109.98 103.36 110.684 103.079 111.496 103.096C112.308 103.116 112.987 103.426 113.374 103.74C113.77 104.054 113.9 104.343 113.825 104.412Z" fill="#263238"/>
<path d="M102.043 107.962C102.054 108.602 101.521 109.139 100.852 109.163C100.185 109.187 99.6339 108.69 99.6227 108.049C99.6115 107.409 100.144 106.871 100.812 106.847C101.48 106.822 102.032 107.322 102.043 107.962Z" fill="#263238"/>
<path d="M101.003 104.428C100.85 104.583 99.9427 103.888 98.6403 103.868C97.3379 103.83 96.3691 104.484 96.2307 104.322C96.1627 104.25 96.3187 103.967 96.7427 103.671C97.1579 103.376 97.8627 103.095 98.6755 103.113C99.4875 103.131 100.166 103.443 100.553 103.756C100.947 104.071 101.078 104.359 101.003 104.428Z" fill="#263238"/>
<path d="M105.565 114.183C105.56 114.108 106.373 113.983 107.689 113.838C108.023 113.81 108.34 113.749 108.4 113.523C108.482 113.283 108.349 112.922 108.195 112.531C107.896 111.72 107.584 110.87 107.255 109.979C105.951 106.344 105.014 103.359 105.161 103.307C105.308 103.256 106.483 106.16 107.787 109.795C108.101 110.691 108.401 111.545 108.685 112.362C108.805 112.743 109.014 113.175 108.835 113.671C108.741 113.919 108.493 114.095 108.279 114.149C108.065 114.211 107.877 114.211 107.713 114.218C106.389 114.265 105.569 114.256 105.565 114.183Z" fill="#263238"/>
<path d="M100.755 100.069C100.677 100.434 99.497 100.39 98.1506 100.719C96.797 101.017 95.7426 101.579 95.5282 101.283C95.4314 101.139 95.5882 100.787 95.997 100.399C96.4026 100.011 97.0722 99.6122 97.8818 99.4234C98.6914 99.2362 99.4578 99.3018 99.9786 99.4746C100.504 99.6458 100.787 99.8962 100.755 100.069Z" fill="#263238"/>
<path d="M113.787 100.787C113.512 101.062 112.557 100.676 111.379 100.566C110.206 100.419 109.186 100.589 108.982 100.261C108.893 100.103 109.075 99.8197 109.533 99.5757C109.985 99.3317 110.723 99.1621 111.531 99.2501C112.339 99.3389 113.019 99.6637 113.405 99.9989C113.797 100.337 113.909 100.652 113.787 100.787Z" fill="#263238"/>
<path d="M114.976 96.387C114.976 96.387 112.832 91.0334 110.291 89.7478C107.216 88.1918 105.82 91.5734 102.878 90.6942C99.9365 89.8158 97.0005 88.323 93.9389 90.555C90.5877 92.9974 92.1061 94.7798 91.8349 98.5414C90.7365 113.792 87.8733 118.059 87.2069 110.855C87.1341 110.065 84.9589 109.401 84.6941 106.067C84.3501 101.744 84.2773 96.5006 85.2941 93.4558C86.1517 90.8886 87.6549 89.131 90.3293 87.2118C94.5501 84.1814 100.274 84.2158 104.154 84.6758C108.033 85.135 115.447 89.739 114.976 96.387Z" fill="#263238"/>
<path d="M87.7524 110.633C87.722 109.323 86.6116 108.268 85.3044 108.37C83.7196 108.492 81.942 109.36 81.9892 112.632C82.0716 118.436 87.8828 117.156 87.89 116.99C87.8956 116.876 87.8084 113.062 87.7524 110.633Z" fill="#FFBF9D"/>
<path d="M86.5965 114.823C86.5709 114.805 86.4965 114.896 86.3261 114.976C86.1605 115.054 85.8749 115.111 85.5701 115.002C84.9533 114.786 84.4237 113.82 84.3805 112.774C84.3581 112.246 84.4621 111.741 84.6429 111.322C84.8141 110.895 85.0845 110.594 85.3925 110.535C85.6989 110.46 85.9197 110.641 85.9933 110.804C86.0733 110.965 86.0381 111.081 86.0693 111.091C86.0861 111.105 86.1925 110.992 86.1421 110.753C86.1165 110.637 86.0461 110.501 85.9085 110.393C85.7677 110.281 85.5621 110.226 85.3469 110.253C84.8997 110.29 84.5029 110.708 84.3037 111.168C84.0797 111.63 83.9509 112.197 83.9757 112.791C84.0301 113.961 84.6437 115.046 85.4869 115.277C85.8965 115.377 86.2357 115.249 86.4093 115.11C86.5877 114.964 86.6165 114.833 86.5965 114.823Z" fill="#FF9A6C"/>
<path d="M88.0643 99.3953C88.8091 99.9233 89.5955 100.467 90.5019 100.573C91.4083 100.679 92.4555 100.176 92.6243 99.2793C92.7003 98.8769 92.6099 98.4065 92.8811 98.0993C93.2043 97.7329 93.7867 97.8593 94.2723 97.9201C95.9563 98.1289 97.7043 96.9665 98.1627 95.3329C98.5811 95.9849 99.5859 95.9745 100.244 95.5665C100.903 95.1585 101.334 94.4785 101.854 93.9041C102.374 93.3297 103.098 92.8209 103.863 92.9433C104.291 93.0121 104.688 93.2745 105.12 93.2441C105.883 93.1897 106.27 92.3041 106.399 91.5497C106.528 90.7953 106.632 89.9153 107.285 89.5153C107.89 89.1449 108.661 89.3785 109.36 89.4945C110.06 89.6105 110.968 89.4617 111.16 88.7793C111.26 88.4209 111.112 88.0401 110.919 87.7225C110.04 86.2841 108.082 85.6177 106.509 86.2217C105.976 84.2945 104.209 82.7713 102.224 82.5265C100.24 82.2817 98.1555 83.3297 97.1699 85.0697C95.9635 83.9353 94.1899 83.4369 92.5691 83.7769C90.9483 84.1161 89.5243 85.2849 88.8747 86.8081C87.4699 86.4121 85.8515 86.9297 84.9371 88.0665C84.0227 89.2041 83.8659 90.8953 84.5547 92.1825C83.5011 92.7601 82.5899 93.7801 82.5475 94.9809C82.5051 96.1817 83.6531 97.3985 84.8179 97.1033C84.3331 98.0297 84.6915 99.3057 85.5883 99.8441C86.4851 100.383 87.7795 100.099 88.3691 99.2361" fill="#263238"/>
<path d="M106.909 87.9358C106.914 87.9366 106.913 87.9718 106.906 88.0422C106.897 88.1118 106.891 88.2174 106.864 88.351C106.805 88.6182 106.691 89.0126 106.423 89.4614C106.153 89.903 105.738 90.4118 105.113 90.8102C104.499 91.2134 103.662 91.5142 102.725 91.4462L102.825 91.319C102.997 91.8182 102.937 92.4126 102.681 92.919C102.437 93.4334 102.061 93.887 101.662 94.3278C101.459 94.5398 101.281 94.7894 101.001 94.9822C100.729 95.167 100.406 95.2718 100.076 95.307C99.4197 95.379 98.6853 95.1638 98.2205 94.6046L98.4381 94.5462C98.2701 95.6966 97.5941 96.839 96.5397 97.5246C95.9813 97.9134 95.2949 98.1446 94.6237 98.115C93.9517 98.0966 93.3317 97.8886 92.7533 97.6702L92.9093 97.6046C92.5845 98.3206 92.0949 98.927 91.5045 99.371C90.9253 99.8142 90.1597 100.067 89.4741 99.8854C88.1101 99.5718 87.2221 98.4166 87.0581 97.3414L87.1885 97.4046C86.5029 97.763 85.7725 97.7854 85.1901 97.6622C84.5989 97.543 84.1381 97.2774 83.8109 97.0174C83.4829 96.7526 83.2901 96.483 83.1749 96.2966C83.0693 96.103 83.0269 95.9966 83.0333 95.9942C83.0629 95.971 83.2181 96.4382 83.8709 96.9398C84.1965 97.179 84.6477 97.423 85.2173 97.523C85.7789 97.6294 86.4701 97.591 87.1037 97.2478L87.2133 97.1878L87.2341 97.311C87.4005 98.3142 88.2565 99.3926 89.5213 99.6694C90.1429 99.827 90.8165 99.6006 91.3653 99.1814C91.9165 98.763 92.3837 98.1782 92.6853 97.5054L92.7333 97.399L92.8421 97.4398C93.4117 97.6534 94.0109 97.8486 94.6309 97.8638C95.2517 97.8878 95.8677 97.6822 96.4005 97.3142C97.3965 96.6662 98.0317 95.5974 98.1957 94.5078L98.2365 94.2342L98.4133 94.4502C98.8053 94.9278 99.4629 95.1334 100.052 95.0694C100.348 95.039 100.635 94.9478 100.872 94.7886C101.103 94.6358 101.289 94.3894 101.495 94.1758C101.893 93.7422 102.259 93.3062 102.49 92.8278C102.734 92.355 102.788 91.8326 102.642 91.3806L102.597 91.2414L102.743 91.2534C103.626 91.3286 104.432 91.0582 105.031 90.6798C105.642 90.3078 106.056 89.8254 106.333 89.4046C106.874 88.5366 106.868 87.9222 106.909 87.9358Z" fill="#455A64"/>
<path d="M101.709 115.861C103.29 116.181 104.833 116.693 106.291 117.381L106.304 117.423C106.107 118.503 105.771 119.687 104.829 120.251C104.129 120.671 103.197 120.629 102.499 120.207C101.8 119.785 101.358 119.133 101.237 118.325C101.117 117.518 101.441 116.611 101.709 115.861Z" fill="#FF9A6C"/>
<path d="M103.868 120.422C103.872 120.346 103.191 120.565 102.4 119.986C102.017 119.708 101.653 119.25 101.511 118.641C101.358 118.036 101.415 117.319 101.639 116.617C101.691 116.458 101.769 116.232 101.821 116.141C101.86 116.11 101.791 116.134 101.848 116.131L102.09 116.206C102.431 116.312 102.763 116.416 103.087 116.518C103.683 116.694 104.249 116.863 104.784 117.022C105.754 117.298 106.363 117.442 106.38 117.387C106.398 117.333 105.821 117.091 104.875 116.743C104.347 116.557 103.791 116.361 103.205 116.154C102.883 116.045 102.553 115.934 102.215 115.819C102.121 115.79 102.059 115.763 101.933 115.73C101.81 115.673 101.535 115.774 101.479 115.91C101.347 116.145 101.316 116.288 101.243 116.491C101.001 117.25 100.944 118.05 101.14 118.738C101.324 119.431 101.783 119.954 102.235 120.228C102.69 120.517 103.142 120.578 103.434 120.554C103.731 120.527 103.875 120.442 103.868 120.422Z" fill="#263238"/>
</svg>
