<svg width="304" height="302" viewBox="0 0 304 302" fill="none" xmlns="http://www.w3.org/2000/svg">
<path d="M267.34 258.234C261.166 264.674 255.325 268.827 250.709 272.108C196.457 310.675 132.262 299.433 118.619 296.687C98.4727 292.633 59.5297 284.796 31.3745 251.992C-11.2218 202.362 -4.58893 124.172 28.4517 72.557C34.4954 63.1158 66.4197 10.7148 131.306 2.31139C170.574 -2.77432 216.348 7.48293 249.497 34.9983C319.078 92.7556 314.125 209.436 267.34 258.234Z" fill="url(#paint0_linear_130_2753)"/>
<path d="M64.8321 54.7407C63.2429 45.6177 88.0963 30.2648 81.0192 11.9304L62.4832 4.92176C62.4832 4.92176 64.4387 29.6138 58.0929 38.5821C51.7471 47.5504 47.7325 41.6872 48.8574 35.0901C49.9822 28.4933 60.4285 12.239 56.5486 4.95098C56.5486 4.95098 53.4328 -0.798883 46.8957 4.62699C40.3589 10.0528 26.3883 4.903 22.0509 0.0566406C22.0509 0.0566406 22.1654 3.87335 18.3568 12.6239C14.5482 21.3745 10.0888 29.9095 17.6974 33.9553C25.3058 38.0013 36.9402 39.2604 36.7295 44.5632C36.5185 49.8658 14.8623 51.9938 8.42153 36.1024C8.42153 36.1024 1.30304 49.5581 2.66983 54.1117C4.03641 58.6653 12.0765 63.4993 24.8021 60.6862C37.5278 57.8727 44.1992 60.3953 44.041 64.3723C43.8829 68.3494 5.76223 70.98 1.33431 57.6436C1.33431 57.6436 -1.00564 85.9139 0.511884 89.1789C2.02919 92.4438 18.6686 92.4558 28.6263 88.5956C38.5839 84.7359 48.5782 88.5147 50.7356 92.0217C52.893 95.5287 39.4449 93.135 33.2519 95.2786C27.0589 97.4222 0.222502 94.9002 0.222502 94.9002C0.222502 94.9002 3.40169 96.9995 4.03339 106.658C4.66477 116.316 11.3498 131.851 17.246 130.492C23.1423 129.133 49.7276 117.207 58.869 116.627C68.0103 116.046 75.4744 117.523 71.3139 120.884C67.1533 124.244 55.3608 125.168 47.1051 128.326C38.8495 131.484 18.6381 142.232 13.7375 138.585C13.7375 138.585 21.9821 163.232 46.3015 165.25C46.3015 165.25 57.6299 158.769 63.5279 147.992C69.4259 137.214 72.3838 132.95 76.605 133.649C80.8261 134.348 76.6813 141.751 72.833 148.37C68.9848 154.989 60.3478 170.561 54.625 171.538C54.625 171.538 91.4055 172.437 96.2956 147.822C100.882 124.738 98.4741 121.891 98.1572 121.625C99.4058 122.526 137.407 149.428 151.347 99.1149C151.347 99.1149 144.955 109.705 136.718 108.833C128.48 107.962 115.434 114.69 115.286 108.803C115.138 102.916 145.05 106.153 150.597 94.7943C156.144 83.4355 149.783 65.2116 136.649 60.5297C136.649 60.5297 136.91 72.1262 126.415 79.3709C115.919 86.6157 99.8034 93.53 103.188 84.0448C106.572 74.5596 137.149 60.8386 138.402 52.4234C139.654 44.0086 114.206 28.2751 114.206 28.2751C114.206 28.2751 113.872 32.7172 107.394 46.2895C100.917 59.8621 90.7545 73.961 89.0009 70.1584C87.2477 66.3555 94.5299 57.6207 100.744 49.5669C106.957 41.5132 110.114 28.6907 106.009 25.176C101.905 21.6613 86.7729 14.1054 86.7729 14.1054C86.7729 14.1054 81.9383 33.1241 80.5878 41.9457C79.2368 50.7681 66.4211 63.8636 64.8321 54.7407ZM97.2104 102.846C88.8834 111.788 88.9564 101.463 90.5099 94.5018C91.6895 89.2174 105.538 93.9045 97.2104 102.846ZM83.8074 83.8937C78.4344 89.9358 74.3322 89.0952 74.7697 84.624C75.7753 74.3501 89.1803 77.8517 83.8074 83.8937ZM67.3212 65.5496C64.6187 69.0134 62.6863 69.6283 60.9741 64.944C59.2617 60.2598 70.0235 62.0861 67.3212 65.5496Z" fill="#BDD0FB"/>
<path d="M303.316 149.27C300.151 221.366 234.499 277.042 156.678 273.626C78.8577 270.209 18.3375 208.995 21.5025 136.898C24.6675 64.8024 90.3193 9.12645 168.14 12.5427C245.961 15.959 306.481 77.174 303.316 149.27Z" fill="url(#paint1_linear_130_2753)"/>
<path opacity="0.11" d="M154.776 238.209C215.9 238.209 265.45 191.399 265.45 133.657C265.45 75.9141 215.9 29.1045 154.776 29.1045C93.6518 29.1045 44.1011 75.9141 44.1011 133.657C44.1011 191.399 93.6518 238.209 154.776 238.209Z" fill="white"/>
<g opacity="0.68">
<path d="M198.441 143.716C198.407 166.762 196.827 189.855 192.765 212.575C191.737 218.25 190.545 223.898 189.125 229.492C187.7 235.085 186.055 240.628 184.042 246.049C182.011 251.455 179.654 256.783 176.458 261.653C174.848 264.07 173.021 266.386 170.767 268.291C169.64 269.238 168.402 270.077 167.041 270.692C165.683 271.303 164.198 271.69 162.692 271.717C161.187 271.761 159.68 271.466 158.295 270.908C156.904 270.356 155.637 269.554 154.483 268.639C152.174 266.793 150.307 264.502 148.668 262.105C145.416 257.269 143.027 251.952 140.975 246.554C138.936 241.143 137.275 235.604 135.838 230.015C134.403 224.425 133.199 218.779 132.163 213.106C130.094 201.756 128.683 190.298 127.73 178.808C126.785 167.316 126.311 155.788 126.253 144.257C126.224 138.493 126.382 132.73 126.587 126.97C126.803 121.21 127.12 115.454 127.544 109.706C128.396 98.2105 129.67 86.7411 131.563 75.3658C132.513 69.6795 133.62 64.0172 134.953 58.405C136.288 52.7948 137.841 47.229 139.766 41.784C140.734 39.064 141.792 36.373 142.998 33.7453C144.203 31.1181 145.552 28.5484 147.136 26.1187C148.725 23.6999 150.55 21.3909 152.824 19.5427C153.961 18.6267 155.213 17.8296 156.585 17.2896C157.951 16.7427 159.434 16.4657 160.909 16.5218C162.384 16.5637 163.839 16.9317 165.182 17.5228C166.526 18.1168 167.761 18.9246 168.895 19.8403C171.163 21.6833 173.04 23.9365 174.705 26.3028C178.016 31.0682 180.511 36.3236 182.673 41.6709C184.82 47.0328 186.592 52.5336 188.135 58.0913C189.673 63.6515 190.976 69.2738 192.103 74.929C196.563 97.5696 198.374 120.666 198.441 143.716ZM196.735 143.716C196.756 132.232 196.32 120.746 195.365 109.303C194.424 97.8598 192.999 86.4496 190.876 75.1659C189.815 69.5248 188.58 63.9156 187.111 58.3686C185.636 52.8243 183.934 47.3366 181.862 41.991C179.775 36.6604 177.354 31.4233 174.142 26.6919C172.528 24.3428 170.707 22.1117 168.521 20.2966C167.429 19.3945 166.243 18.6018 164.96 18.0181C163.678 17.4412 162.297 17.0632 160.892 17.0264C159.489 16.9818 158.088 17.2642 156.789 17.7984C155.487 18.3274 154.291 19.1056 153.2 20.004C151.019 21.8163 149.252 24.0959 147.716 26.4933C146.182 28.901 144.877 31.4546 143.713 34.0683C142.547 36.6825 141.526 39.3628 140.595 42.073C138.743 47.499 137.26 53.05 135.992 58.646C134.728 64.2441 133.687 69.8931 132.803 75.5658C131.041 86.9139 129.897 98.355 129.173 109.817C128.441 121.281 128.189 132.77 128.21 144.255C128.179 155.738 128.563 167.224 129.416 178.675C130.277 190.125 131.594 201.546 133.566 212.855C134.554 218.508 135.708 224.132 137.091 229.698C138.476 235.263 140.083 240.775 142.062 246.149C144.051 251.508 146.376 256.781 149.52 261.53C151.102 263.885 152.902 266.118 155.083 267.889C156.173 268.767 157.359 269.528 158.642 270.048C159.92 270.57 161.292 270.86 162.667 270.814C164.041 270.778 165.394 270.415 166.651 269.839C167.91 269.258 169.071 268.46 170.137 267.549C172.272 265.718 174.033 263.456 175.587 261.081C178.676 256.295 180.968 251.01 182.935 245.641C184.886 240.258 186.476 234.741 187.847 229.173C189.214 223.603 190.354 217.976 191.333 212.322C193.291 201.011 194.592 189.588 195.458 178.139C196.335 166.688 196.74 155.201 196.735 143.716Z" fill="white"/>
<path d="M256.579 143.715C256.499 158.556 254.592 173.404 250.619 187.716C246.577 201.995 240.483 215.732 232.21 228.065C228.073 234.224 223.387 240.023 218.15 245.283C212.915 250.542 207.126 255.261 200.842 259.216C194.552 263.156 187.758 266.31 180.647 268.45C173.539 270.595 166.12 271.714 158.694 271.721C151.267 271.721 143.846 270.608 136.735 268.47C129.619 266.336 122.82 263.187 116.524 259.251C110.233 255.3 104.436 250.584 99.1925 245.328C93.947 240.069 89.2509 234.273 85.1046 228.113C76.815 215.778 70.7087 202.035 66.6475 187.749C64.6484 180.593 63.1629 173.296 62.1788 165.933C61.1998 158.57 60.7081 151.144 60.6743 143.715C60.7127 136.287 61.2092 128.861 62.1926 121.499C63.1815 114.138 64.6726 106.842 66.6764 99.689C70.7477 85.4087 76.8634 71.6752 85.1584 59.3534C89.3064 53.1993 94.0031 47.4088 99.248 42.1577C104.491 36.909 110.285 32.198 116.574 28.2595C122.869 24.3337 129.666 21.2081 136.769 19.075C143.867 16.933 151.277 15.8158 158.694 15.8086C166.11 15.8221 173.518 16.9455 180.613 19.0929C187.712 21.2317 194.504 24.3635 200.791 28.2936C207.074 32.2366 212.86 36.9515 218.094 42.2024C223.33 47.4559 228.018 53.2475 232.156 59.4017C240.434 71.7218 246.538 85.4492 250.59 99.7227C254.572 114.029 256.489 128.874 256.579 143.715ZM254.624 143.715C254.602 129.043 252.774 114.354 248.903 100.191C245.01 86.049 239.149 72.3963 231.079 60.1184C227.047 53.9857 222.466 48.2052 217.337 42.9507C212.205 37.7043 206.537 32.9578 200.337 29.0127C194.13 25.0897 187.428 21.9319 180.4 19.7962C173.375 17.6588 166.041 16.5353 158.694 16.5108C151.346 16.5415 144.014 17.6712 136.993 19.814C129.969 21.9554 123.272 25.1194 117.072 29.0467C110.879 32.9963 105.219 37.7467 100.096 42.9952C94.9749 48.252 90.4041 54.0337 86.3808 60.1664C78.3281 72.4428 72.4792 86.0894 68.6055 100.224C66.6757 107.3 65.2784 114.514 64.3317 121.783C63.3827 129.052 62.9143 136.382 62.8979 143.715C62.9189 151.048 63.3918 158.378 64.3454 165.646C65.2969 172.913 66.6998 180.125 68.6343 187.198C72.518 201.327 78.3766 214.964 86.4347 227.228C90.4595 233.355 95.0311 239.13 100.152 244.38C105.275 249.621 110.931 254.367 117.122 258.304C123.32 262.221 130.015 265.361 137.028 267.502C144.036 269.648 151.356 270.783 158.694 270.82C166.032 270.79 173.354 269.661 180.366 267.522C187.382 265.387 194.082 262.251 200.287 258.338C206.485 254.405 212.149 249.663 217.281 244.425C222.41 239.177 226.991 233.403 231.025 227.276C239.1 215.011 244.971 201.368 248.874 187.232C252.754 173.074 254.592 158.388 254.624 143.715Z" fill="white"/>
<path d="M44.4698 93.3197C44.3989 93.3191 44.3417 93.2611 44.3423 93.1901C44.3428 93.1198 44.3999 93.0631 44.4698 93.0626L73.8661 92.8251L103.262 92.6905L162.055 92.582L220.847 92.7015L250.243 92.8486L279.64 93.1049C279.687 93.1054 279.725 93.1443 279.725 93.1921C279.725 93.2392 279.686 93.2771 279.64 93.2776L250.243 93.5339L220.847 93.6809L162.055 93.8005L103.262 93.6919L73.8661 93.5573L44.4698 93.3197Z" fill="white"/>
<path d="M78.4463 43.9528C78.4474 43.8833 78.5038 43.8274 78.5729 43.8262C85.5297 43.7161 92.4865 43.6688 99.4433 43.5888L120.314 43.4543C127.271 43.3969 134.227 43.4032 141.184 43.3854L162.055 43.3457L203.795 43.4653L224.666 43.6122C231.623 43.6994 238.579 43.7504 245.536 43.8686C245.584 43.8694 245.622 43.9087 245.621 43.9564C245.62 44.003 245.583 44.0404 245.536 44.0412C238.579 44.1594 231.623 44.2104 224.666 44.2976L203.795 44.4446L162.055 44.5641L141.184 44.5245C134.227 44.5068 127.271 44.5129 120.314 44.4556L99.4433 44.321C92.4865 44.241 85.5297 44.1938 78.5729 44.0836C78.5018 44.0823 78.4452 44.0239 78.4463 43.9528Z" fill="white"/>
<path d="M34.2541 142.556C34.1832 142.555 34.126 142.497 34.1265 142.427C34.127 142.356 34.1839 142.3 34.2541 142.299L66.2042 142.062L98.1543 141.927L162.054 141.818L225.954 141.938L257.904 142.085L289.854 142.341C289.902 142.342 289.94 142.381 289.94 142.428C289.94 142.476 289.902 142.513 289.854 142.514L257.904 142.77L225.954 142.917L162.054 143.037L98.1543 142.928L66.2042 142.793L34.2541 142.556Z" fill="white"/>
<path d="M44.4698 191.535L73.8661 191.298L103.262 191.163L162.055 191.055L220.847 191.174L250.243 191.321L279.64 191.578C279.687 191.578 279.725 191.617 279.725 191.665C279.725 191.712 279.686 191.75 279.64 191.75L250.243 192.007L220.847 192.154L162.055 192.273L103.262 192.165L73.8661 192.03L44.4698 191.793C44.3989 191.792 44.3417 191.734 44.3423 191.663C44.3428 191.593 44.3999 191.536 44.4698 191.535Z" fill="white"/>
<path d="M250.193 240.9C250.193 241.149 249.992 241.351 249.743 241.351H82.7793C82.5301 241.351 82.3286 241.149 82.3286 240.9C82.3286 240.651 82.5301 240.449 82.7793 240.449H249.742C249.992 240.449 250.193 240.651 250.193 240.9Z" fill="white"/>
</g>
<path d="M218.775 137.523C222.222 137.803 224.799 140.835 224.519 144.282C224.239 147.728 221.206 150.305 217.76 150.025C214.313 149.746 211.736 146.713 212.016 143.267C212.296 139.82 215.328 137.243 218.775 137.523ZM218.573 140.004C216.495 139.835 214.666 141.389 214.497 143.468C214.328 145.547 215.882 147.376 217.961 147.544C220.04 147.713 221.869 146.159 222.037 144.08C222.206 142.001 220.652 140.173 218.573 140.004Z" fill="white"/>
<path d="M231.603 144.857C232.2 137.503 226.704 131.035 219.35 130.438C218.894 130.401 218.442 130.389 217.995 130.4C217.393 130.414 216.934 129.871 217.071 129.285L217.518 127.368C217.616 126.949 217.993 126.66 218.423 126.663C218.83 126.666 219.24 126.683 219.652 126.716C229.058 127.48 236.089 135.754 235.325 145.159C235.267 145.872 235.164 146.57 235.021 147.252C234.914 147.763 234.407 148.085 233.901 147.956L232.04 147.482C231.57 147.362 231.278 146.895 231.376 146.419C231.482 145.91 231.56 145.389 231.603 144.857Z" fill="white"/>
<path d="M241.218 145.637C242.246 132.982 232.786 121.851 220.131 120.823L220.12 120.822C219.566 120.778 219.177 120.26 219.303 119.719L219.742 117.838C220.11 117.569 220.347 117.395 220.715 117.126C235.28 118.462 246.126 131.327 244.94 145.94C244.836 147.215 244.639 148.461 244.364 149.674C244.252 150.167 243.745 150.465 243.255 150.34L241.399 149.867C240.926 149.746 240.627 149.274 240.734 148.798C240.965 147.771 241.13 146.717 241.218 145.637Z" fill="white"/>
<path d="M250.832 146.418C252.252 128.929 239.553 113.497 222.301 111.359C221.759 111.291 221.389 110.78 221.513 110.248L221.948 108.382C222.054 107.929 222.486 107.622 222.948 107.681C242.077 110.152 256.131 127.296 254.554 146.72C254.406 148.545 254.117 150.324 253.711 152.055C253.596 152.549 253.09 152.846 252.598 152.721L250.745 152.249C250.262 152.125 249.975 151.639 250.088 151.153C250.446 149.616 250.701 148.037 250.832 146.418Z" fill="white"/>
<path d="M205.211 289.36C205.157 294.743 200.532 299.107 194.88 299.119L58.2609 299.417C52.5684 299.429 47.8432 295.068 47.708 289.664L41.3419 35.2005C41.1905 29.1502 45.9684 24.2574 52.0123 24.2863L197.032 24.9795C203.03 25.0082 207.841 29.926 207.78 35.95L205.211 289.36Z" fill="url(#paint2_linear_130_2753)"/>
<path d="M192.897 50.6359C192.938 44.822 188.168 40.0772 182.241 40.0511L67.14 39.545C61.1768 39.5188 56.4452 44.2382 56.5728 50.073L61.3045 266.428C61.4204 271.727 66.1071 276.006 71.7713 275.997L181.122 275.824C186.754 275.815 191.347 271.535 191.384 266.253L192.897 50.6359Z" fill="#7D97F4"/>
<path d="M142.033 31.8189C142.036 32.947 141.129 33.8568 140.007 33.8518L110.052 33.716C108.927 33.711 108.005 32.7917 107.991 31.6623C107.977 30.5322 108.879 29.6197 110.005 29.625L139.994 29.765C141.117 29.7701 142.03 30.69 142.033 31.8189Z" fill="url(#paint3_linear_130_2753)"/>
<g opacity="0.27">
<path d="M168.303 204.098L185.558 186.967L184.918 223.11L168.34 204.139L168.303 204.098Z" fill="url(#paint4_linear_130_2753)"/>
<path d="M159.969 212.374L184.357 240.299L184.604 240.585L183.901 262.712C183.845 264.835 182.709 266.877 180.91 268.387C179.324 269.715 177.266 270.529 175.112 270.703L140.651 231.559L159.969 212.374Z" fill="url(#paint5_linear_130_2753)"/>
<path d="M180.418 175.799L160.721 195.434L152.412 203.719L133.093 222.978L101.331 186.904L101.336 186.9L120.58 167.393L120.524 167.392L120.42 167.337V167.332L128.807 158.932L128.886 158.941L128.906 158.948L128.92 158.942L128.933 158.932L148.64 138.975L187.914 99.2578L186.431 164.411L180.418 175.799Z" fill="url(#paint6_linear_130_2753)"/>
<path d="M159.915 270.749L101.138 270.793L132.466 239.685L159.915 270.749Z" fill="url(#paint7_linear_130_2753)"/>
<path d="M124.914 231.133L85.1182 270.805L81.4821 270.808C79.06 270.809 76.7116 269.992 74.949 268.525C73.1807 267.057 72.1417 265.063 72.0668 262.977L70.4116 218.245L93.1576 195.187L124.914 231.133Z" fill="url(#paint8_linear_130_2753)"/>
<path d="M85.4808 186.484L69.8533 202.407L68.5835 167.376L85.4666 186.484H85.4808Z" fill="white"/>
<path d="M149.311 121.511L117.728 84.7838L151.003 50.3565L178.469 50.1799C184.317 50.1423 188.885 54.7705 188.743 60.5576L188.22 81.9145L149.311 121.511Z" fill="url(#paint9_linear_130_2753)"/>
<path d="M88.4644 50.7585L134.157 50.4648L109.894 75.6717L88.4644 50.7585Z" fill="url(#paint10_linear_130_2753)"/>
<path d="M109.335 93.4688L140.913 130.055L121.23 150.09L112.946 158.522L93.9506 178.138L68.5008 148.86V148.856L67.6617 136.86L67.5928 136.795L109.335 93.4688Z" fill="url(#paint11_linear_130_2753)"/>
<path d="M72.7477 51.0732L101.498 84.3912L66.7845 120.447L64.5999 61.5348C64.4068 56.417 67.9141 52.0974 72.7477 51.0732Z" fill="url(#paint12_linear_130_2753)"/>
</g>
<path d="M125.152 63.1546C125.152 64.0402 124.434 64.7582 123.548 64.7582H73.4581C72.5724 64.7582 71.8545 64.0402 71.8545 63.1546V63.1455C71.8545 62.2599 72.5724 61.542 73.4581 61.542H123.548C124.434 61.542 125.152 62.2599 125.152 63.1455V63.1546Z" fill="white"/>
<path d="M125.152 71.884C125.152 72.7696 124.434 73.4875 123.548 73.4875H73.4581C72.5724 73.4875 71.8545 72.7696 71.8545 71.884V71.875C71.8545 70.9894 72.5724 70.2715 73.4581 70.2715H123.548C124.434 70.2715 125.152 70.9894 125.152 71.875V71.884Z" fill="white"/>
<path d="M125.152 80.6146C125.152 81.5002 124.434 82.2181 123.548 82.2181H73.4581C72.5724 82.2181 71.8545 81.5002 71.8545 80.6146V80.6055C71.8545 79.7199 72.5724 79.002 73.4581 79.002H123.548C124.434 79.002 125.152 79.7199 125.152 80.6055V80.6146Z" fill="white"/>
<path d="M159.689 78.6857C157.878 78.6857 156.277 77.7378 155.407 76.1499C150.879 67.8925 145.482 57.0188 145.482 52.1085C145.482 44.2752 151.855 37.9023 159.689 37.9023C167.522 37.9023 173.895 44.2752 173.895 52.1085C173.895 57.0193 168.498 67.8928 163.971 76.1499C163.1 77.7377 161.499 78.6857 159.689 78.6857ZM159.689 40.1785C153.11 40.1785 147.759 45.5303 147.759 52.1085C147.759 55.5136 151.274 63.8773 157.403 75.0556C157.868 75.9033 158.722 76.4095 159.689 76.4095C160.655 76.4095 161.51 75.9033 161.975 75.0556C168.104 63.8778 171.619 55.5139 171.619 52.1085C171.619 45.5303 166.267 40.1785 159.689 40.1785Z" fill="white"/>
<path d="M159.689 61.0364C154.939 61.0364 151.075 57.1723 151.075 52.4225C151.075 47.6727 154.939 43.8086 159.689 43.8086C164.438 43.8086 168.302 47.6727 168.302 52.4225C168.302 57.1723 164.438 61.0364 159.689 61.0364ZM159.689 46.0847C156.194 46.0847 153.351 48.9278 153.351 52.4225C153.351 55.9172 156.194 58.7602 159.689 58.7602C163.183 58.7602 166.026 55.9171 166.026 52.4225C166.026 48.9279 163.183 46.0847 159.689 46.0847Z" fill="white"/>
<path d="M164.871 90.0917C165.557 87.1861 163.758 84.2744 160.852 83.5883C157.946 82.9022 155.035 84.7015 154.349 87.6071C153.663 90.5127 155.462 93.4244 158.367 94.1104C161.273 94.7965 164.185 92.9973 164.871 90.0917Z" fill="white"/>
<path d="M169.451 274.688C169.103 274.688 168.756 274.547 168.504 274.269L166.053 271.564C165.579 271.041 165.619 270.233 166.142 269.759C166.665 269.286 167.473 269.326 167.946 269.848L170.397 272.553C170.871 273.076 170.831 273.884 170.309 274.358C170.064 274.579 169.757 274.688 169.451 274.688ZM163.324 267.926C162.976 267.926 162.629 267.785 162.377 267.507L159.926 264.802C159.452 264.279 159.492 263.471 160.015 262.997C160.538 262.523 161.345 262.563 161.819 263.086L164.27 265.791C164.744 266.314 164.704 267.122 164.181 267.596C163.937 267.817 163.63 267.926 163.324 267.926ZM157.196 261.164C156.848 261.164 156.502 261.023 156.249 260.745L153.798 258.039C153.325 257.517 153.364 256.709 153.887 256.235C154.411 255.761 155.218 255.801 155.692 256.324L158.143 259.029C158.617 259.552 158.577 260.36 158.054 260.833C157.809 261.055 157.502 261.164 157.196 261.164ZM151.069 254.402C150.721 254.402 150.374 254.261 150.122 253.982L147.671 251.277C147.197 250.755 147.237 249.947 147.76 249.473C148.284 248.999 149.091 249.039 149.565 249.562L152.016 252.267C152.489 252.79 152.45 253.598 151.927 254.071C151.682 254.293 151.375 254.402 151.069 254.402ZM144.942 247.64C144.594 247.64 144.247 247.499 143.995 247.22L141.544 244.515C141.07 243.993 141.11 243.185 141.632 242.711C142.155 242.237 142.963 242.277 143.437 242.8L145.888 245.505C146.362 246.027 146.322 246.835 145.799 247.309C145.555 247.531 145.248 247.64 144.942 247.64ZM138.815 240.878C138.467 240.878 138.12 240.736 137.868 240.458L135.417 237.753C134.943 237.231 134.983 236.423 135.505 235.949C136.029 235.475 136.836 235.515 137.31 236.038L139.761 238.742C140.235 239.265 140.195 240.073 139.672 240.547C139.428 240.769 139.121 240.878 138.815 240.878ZM132.687 234.116C132.339 234.116 131.992 233.974 131.74 233.696L129.29 230.991C128.816 230.468 128.856 229.66 129.379 229.187C129.902 228.713 130.71 228.753 131.183 229.276L133.634 231.98C134.108 232.503 134.068 233.311 133.545 233.785C133.3 234.006 132.993 234.116 132.687 234.116ZM126.56 227.354C126.212 227.354 125.865 227.212 125.613 226.934L123.162 224.229C122.688 223.706 122.728 222.898 123.251 222.424C123.775 221.951 124.582 221.991 125.056 222.513L127.507 225.218C127.98 225.741 127.94 226.549 127.418 227.023C127.173 227.244 126.866 227.354 126.56 227.354ZM120.433 220.592C120.085 220.592 119.738 220.45 119.486 220.172L117.035 217.467C116.561 216.944 116.601 216.136 117.124 215.662C117.647 215.189 118.456 215.229 118.929 215.751L121.379 218.456C121.853 218.979 121.813 219.787 121.29 220.261C121.046 220.482 120.739 220.592 120.433 220.592ZM114.306 213.829C113.957 213.829 113.611 213.688 113.359 213.409L110.908 210.705C110.434 210.182 110.474 209.374 110.996 208.9C111.519 208.427 112.327 208.466 112.801 208.989L115.252 211.694C115.726 212.217 115.686 213.025 115.163 213.498C114.918 213.72 114.612 213.829 114.306 213.829ZM108.179 207.067C107.83 207.067 107.484 206.926 107.232 206.647L104.781 203.943C104.307 203.42 104.347 202.612 104.869 202.138C105.392 201.665 106.2 201.704 106.674 202.227L109.125 204.932C109.599 205.454 109.559 206.262 109.036 206.736C108.792 206.958 108.484 207.067 108.179 207.067ZM102.051 200.305C101.703 200.305 101.356 200.164 101.104 199.885L98.6531 197.18C98.1793 196.658 98.2192 195.85 98.7418 195.376C99.2651 194.902 100.072 194.942 100.547 195.465L102.998 198.17C103.471 198.692 103.431 199.5 102.909 199.974C102.664 200.196 102.357 200.305 102.051 200.305ZM96.0931 193.414C95.6347 193.414 95.1916 193.167 94.9624 192.733C94.3536 191.581 94.0317 190.28 94.0317 188.972C94.0317 188.831 94.0356 188.69 94.0427 188.549C94.0784 187.845 94.6743 187.308 95.3833 187.339C96.088 187.375 96.6302 187.975 96.5942 188.68C96.5893 188.777 96.5868 188.874 96.5868 188.972C96.5868 189.866 96.8063 190.754 97.2216 191.54C97.5513 192.164 97.3125 192.937 96.6887 193.266C96.4984 193.367 96.2942 193.414 96.0931 193.414ZM97.6443 185.088C97.3256 185.088 97.007 184.97 96.7593 184.732C96.2506 184.243 96.2342 183.435 96.723 182.926L99.2516 180.293C99.7406 179.784 100.55 179.769 101.058 180.257C101.567 180.746 101.583 181.555 101.094 182.064L98.5658 184.696C98.3149 184.957 97.9798 185.088 97.6443 185.088ZM103.966 178.508C103.647 178.508 103.329 178.389 103.081 178.151C102.572 177.663 102.556 176.854 103.045 176.345L105.573 173.713C106.063 173.204 106.871 173.188 107.38 173.677C107.888 174.165 107.905 174.974 107.416 175.483L104.887 178.115C104.637 178.376 104.301 178.508 103.966 178.508ZM110.288 171.927C109.969 171.927 109.651 171.809 109.403 171.571C108.894 171.082 108.878 170.273 109.366 169.764L111.895 167.132C112.385 166.623 113.193 166.607 113.702 167.096C114.21 167.585 114.227 168.393 113.738 168.902L111.209 171.534C110.958 171.796 110.623 171.927 110.288 171.927ZM116.61 165.346C116.291 165.346 115.972 165.228 115.724 164.99C115.216 164.501 115.199 163.693 115.688 163.184L118.217 160.552C118.706 160.042 119.515 160.027 120.023 160.515C120.532 161.004 120.548 161.813 120.06 162.322L117.531 164.954C117.28 165.215 116.945 165.346 116.61 165.346ZM122.931 158.766C122.612 158.766 122.294 158.647 122.046 158.409C121.537 157.921 121.521 157.112 122.01 156.603L124.538 153.971C125.027 153.462 125.837 153.446 126.345 153.934C126.854 154.423 126.87 155.232 126.381 155.741L123.853 158.373C123.602 158.634 123.267 158.766 122.931 158.766ZM129.253 152.185C128.934 152.185 128.616 152.067 128.368 151.829C127.859 151.34 127.843 150.531 128.331 150.022L130.86 147.39C131.349 146.881 132.158 146.865 132.667 147.354C133.175 147.843 133.192 148.651 132.703 149.16L130.174 151.792C129.923 152.054 129.588 152.185 129.253 152.185ZM135.575 145.604C135.256 145.604 134.937 145.486 134.69 145.248C134.181 144.759 134.164 143.951 134.653 143.442L137.182 140.809C137.671 140.3 138.48 140.285 138.988 140.773C139.497 141.262 139.513 142.071 139.025 142.58L136.496 145.212C136.245 145.473 135.91 145.604 135.575 145.604ZM141.896 139.024C141.578 139.024 141.259 138.905 141.011 138.667C140.503 138.179 140.486 137.37 140.975 136.861L143.504 134.229C143.993 133.72 144.801 133.704 145.31 134.193C145.819 134.681 145.835 135.49 145.346 135.999L142.818 138.631C142.567 138.892 142.232 139.024 141.896 139.024ZM148.218 132.443C147.899 132.443 147.581 132.325 147.333 132.087C146.824 131.598 146.808 130.789 147.297 130.28L149.825 127.648C150.314 127.14 151.123 127.123 151.632 127.612C152.14 128.101 152.157 128.909 151.668 129.418L149.139 132.05C148.888 132.312 148.553 132.443 148.218 132.443ZM154.54 125.862C154.221 125.862 153.902 125.744 153.655 125.506C153.146 125.017 153.13 124.209 153.618 123.7L156.147 121.067C156.636 120.558 157.445 120.543 157.953 121.031C158.462 121.52 158.479 122.329 157.99 122.838L155.461 125.47C155.21 125.731 154.875 125.862 154.54 125.862ZM160.861 119.282C160.543 119.282 160.224 119.163 159.976 118.925C159.468 118.437 159.451 117.628 159.94 117.119L162.469 114.487C162.958 113.978 163.767 113.962 164.275 114.451C164.784 114.939 164.8 115.748 164.312 116.257L161.783 118.889C161.532 119.15 161.197 119.282 160.861 119.282ZM167.183 112.701C166.864 112.701 166.546 112.583 166.298 112.345C165.789 111.856 165.773 111.047 166.262 110.538L168.655 108.048C168.692 108.008 168.729 107.97 168.764 107.93C169.239 107.408 170.046 107.369 170.569 107.843C171.091 108.317 171.13 109.126 170.656 109.648C170.604 109.705 170.551 109.762 170.496 109.819L168.105 112.308C167.854 112.57 167.519 112.701 167.183 112.701ZM171.46 105.034C170.793 105.034 170.232 104.517 170.187 103.842C170.121 102.849 169.788 101.892 169.226 101.075C168.826 100.494 168.972 99.6983 169.553 99.2981C170.134 98.8986 170.93 99.0447 171.33 99.6259C172.153 100.821 172.639 102.221 172.736 103.672C172.783 104.376 172.25 104.985 171.546 105.032C171.517 105.033 171.488 105.034 171.46 105.034ZM166.717 97.4715C166.36 97.4715 166.006 97.323 165.753 97.0329L164.049 95.0764C163.586 94.5444 163.642 93.7374 164.174 93.274C164.705 92.8109 165.512 92.8662 165.976 93.3986L167.68 95.3552C168.143 95.8871 168.087 96.6942 167.556 97.1576C167.314 97.3681 167.014 97.4715 166.717 97.4715Z" fill="white"/>
<path d="M82.7196 115.436C82.7196 115.436 78.5839 117.447 77.8234 119.758C77.2133 121.612 72.6403 121.851 72.1885 125.498C71.9553 127.381 70.562 128.889 68.6867 129.176C64.0162 129.892 56.8184 132.317 55.6667 140.426C54.7876 146.616 57.943 148.963 61.2545 149.775C63.6867 150.372 65.303 152.738 64.811 155.193C64.3391 157.549 65.0428 160.271 69.1231 162.424C78.2666 167.249 87.3979 150.994 87.3979 150.994L89.2693 122.612L82.7196 115.436Z" fill="url(#paint13_linear_130_2753)"/>
<path d="M132.473 108.707C132.473 108.707 114.216 137.583 92.5073 143.161C92.5073 143.161 96.7374 155.209 100.002 156.588C100.002 156.588 126.71 134.303 133.574 112.81L132.473 108.707Z" fill="url(#paint14_linear_130_2753)"/>
<path d="M45.1361 293.401L44.5444 298.265C44.4322 299.188 43.7057 299.917 42.7822 300.023C41.2228 300.201 38.7205 300.384 36.2723 300.125C35.1977 300.011 34.5 298.923 34.8274 297.893C35.4242 296.016 36.5161 293.197 38.0903 291.538H43.4861C44.4836 291.538 45.2566 292.411 45.1361 293.401Z" fill="url(#paint15_linear_130_2753)"/>
<path d="M87.3982 236.421L88.3089 241.778C88.3089 241.778 85.259 272.671 84.7166 285.028C84.6315 286.965 85.1328 288.88 86.1496 290.531L91.4528 299.143L77.9747 291.19L77.7063 289.545L79.9127 286.511L77.0227 251.904C76.8529 249.871 77.2724 247.832 78.231 246.031L81.0188 240.794L87.3982 236.421Z" fill="url(#paint16_linear_130_2753)"/>
<path d="M92.3402 300.39H88.0391C87.2341 300.39 86.4748 300.02 85.9838 299.382C84.643 297.64 81.8649 294.241 80.5365 294.152C78.7482 294.033 78.977 300.39 78.977 300.39H77.9746L76.705 292.49C76.3855 290.503 77.374 288.534 79.1588 287.603C79.1588 287.603 79.5675 290.626 81.784 291.963C84.0005 293.3 90.8036 298.089 90.8036 298.089C90.8036 298.089 91.637 297.97 92.5518 298.135C93.9089 298.38 93.7193 300.39 92.3402 300.39Z" fill="url(#paint17_linear_130_2753)"/>
<path d="M68.9379 238.965C68.9379 238.965 51.0708 272.857 48.2306 280.595C45.3904 288.333 44.3955 294.788 44.3574 295.4C44.2979 296.355 43.1099 297.271 39.835 297.271C38.145 297.271 37.3173 296.594 36.912 295.938C36.5662 295.378 36.5483 294.678 36.8398 294.089C37.8733 291.997 41.1532 285.313 42.3679 282.281C43.8182 278.661 46.9379 262.257 48.6487 256.554C50.3597 250.851 52.2936 244.664 59.7442 238.965C59.7442 238.965 64.8589 233.955 68.9379 238.965Z" fill="url(#paint18_linear_130_2753)"/>
<path d="M80.2246 183.431C84.8334 163.902 73.1577 152.856 73.1577 152.856C80.5248 145.784 93.9477 142.566 93.9477 142.566C93.9477 142.566 106.756 151.93 105.237 159.26C104.346 163.556 96.2335 184.991 96.2335 184.991C96.2335 184.991 88.7321 188.541 80.2246 183.431Z" fill="url(#paint19_linear_130_2753)"/>
<path d="M70.0061 193.1C71.8818 187.45 80.2246 183.432 80.2246 183.432C88.7321 188.541 96.2337 184.991 96.2337 184.991C96.2337 184.991 97.9161 191.421 96.7549 197.397C95.5938 203.373 88.3089 241.778 88.3089 241.778C76.8305 244.104 59.1768 239.438 59.1768 239.438C66.4881 226.458 68.1305 198.751 70.0061 193.1Z" fill="url(#paint20_linear_130_2753)"/>
<path d="M85.5746 129.661L81.8274 146.492C81.4686 147.974 82.8202 147.732 84.3191 147.449C86.7738 146.987 89.9374 146.033 90.995 144.123C91.1026 143.929 91.1564 143.709 91.1868 143.489L92.7966 131.818C92.9244 130.892 92.4238 129.993 91.5692 129.614L88.4627 128.237C87.2667 127.706 85.8823 128.389 85.5746 129.661Z" fill="url(#paint21_linear_130_2753)"/>
<path d="M73.1579 152.855C73.1579 152.855 47.0048 171.567 69.8131 191.228C69.8131 191.228 70.6828 192.212 72.3937 192.723C73.2574 192.982 75.8126 194.915 77.108 195.923C77.5245 196.247 78.1262 196.136 78.4061 195.689C78.6255 195.339 78.6513 194.901 78.4746 194.527L75.2368 187.68C74.3376 186.841 72.9615 186.782 71.9932 187.54C71.3755 188.024 70.4706 187.821 70.1248 187.117C68.3617 183.526 65.0324 172.964 78.659 161.03C79.1713 160.582 79.3009 159.84 78.9865 159.236C78.0292 157.396 75.8395 153.744 73.1579 152.855Z" fill="url(#paint22_linear_130_2753)"/>
<path d="M92.7516 114.316C92.7516 114.316 96.7408 117.017 98.4549 123.894C100.169 130.771 97.3834 133.237 94.5279 133.086C91.6725 132.935 87.5322 132.052 83.9449 127.118C80.3576 122.185 87.524 111.017 92.7516 114.316Z" fill="url(#paint23_linear_130_2753)"/>
<path d="M87.5624 124.345C87.5624 124.345 86.1007 114.491 94.2821 115.998L95.9363 117.721C95.9363 117.721 99.9409 113.211 95.5093 109.802C91.0777 106.393 84.928 107.266 81.5258 113.472C78.1235 119.678 76.8887 124.039 79.7404 127.896C82.5922 131.752 84.7372 128.444 84.7372 128.444C84.7372 128.444 83.4294 125.107 84.5145 123.674C85.5997 122.242 86.9998 124.507 86.9998 124.507L87.5624 124.345Z" fill="url(#paint24_linear_130_2753)"/>
<path d="M86.4442 125.189C86.4442 125.189 85.7226 120.119 83.1334 121.568C80.5441 123.017 84.0665 126.304 85.4788 127.422L86.4442 125.189Z" fill="url(#paint25_linear_130_2753)"/>
<path d="M132.347 114.652C132.402 115.248 130.187 115.66 129.482 113.12C129.676 112.018 130.02 107.19 130.866 106.44C135.368 102.445 143.396 97.9512 143.396 97.9512C144.294 99.322 143.116 100.225 143.116 100.225L139.109 102.929C139.527 104.314 140.137 105.538 140.206 107.119C140.258 108.316 139.816 109.488 139.022 110.396C138.224 111.307 137.15 112.484 136.182 113.377C134.35 115.068 132.347 114.652 132.347 114.652Z" fill="url(#paint26_linear_130_2753)"/>
<path d="M134.524 112.685L133.911 112.433C133.993 112.234 135.916 107.561 136.846 106.589C137.2 106.22 137.37 105.904 137.354 105.65C137.347 105.512 137.278 105.376 137.149 105.237L133.906 106.971L132.474 109.214L131.916 108.857L133.441 106.468L137.239 104.438L137.41 104.577C137.795 104.891 137.993 105.228 138.016 105.609C138.044 106.062 137.818 106.533 137.326 107.048C136.625 107.779 135.066 111.365 134.524 112.685Z" fill="url(#paint27_linear_130_2753)"/>
<path d="M283.419 301.941C290.256 302.071 295.868 296.564 295.868 289.726V235.369C295.868 228.227 290.129 222.416 282.987 222.339C261.555 222.105 217.351 222.094 181.182 225.142C176.246 225.557 172.407 229.603 172.228 234.552L168.848 287.105C168.597 294.056 174.093 299.863 181.047 299.995L283.419 301.941Z" fill="url(#paint28_linear_130_2753)"/>
<path d="M283.455 241.25C283.546 245.876 283.409 253.214 283.296 257.956C283.238 260.422 281.072 262.302 278.621 262.015L260.983 259.948C258.633 259.672 256.978 257.507 257.328 255.167L259.493 240.724C259.801 238.673 261.562 237.156 263.635 237.156H279.267C281.545 237.156 283.41 238.973 283.455 241.25Z" fill="white"/>
<path opacity="0.37" d="M237.359 268.622L222.646 270.209C220.587 270.431 218.83 268.733 218.982 266.668L222.198 222.899C228.366 222.704 234.45 222.561 240.321 222.461V265.324C240.321 267.018 239.044 268.44 237.359 268.622Z" fill="white"/>
<path d="M231.328 261.036C231.283 261.823 230.631 262.43 229.852 262.43C229.823 262.43 229.794 262.429 229.766 262.427C228.949 262.38 228.326 261.68 228.374 260.864L230.593 222.664C231.588 222.64 232.574 222.618 233.561 222.596L231.328 261.036Z" fill="white"/>
<path d="M275.298 255.038C275.556 255.038 275.774 254.837 275.79 254.575L276.553 242.543C276.571 242.272 276.364 242.038 276.092 242.02C275.805 241.998 275.586 242.21 275.568 242.482L274.805 254.514C274.788 254.785 274.994 255.019 275.267 255.037C275.277 255.038 275.288 255.038 275.298 255.038Z" fill="url(#paint29_linear_130_2753)"/>
<path d="M273.727 255.038C273.991 255.038 274.211 254.828 274.22 254.561L274.62 242.299C274.628 242.026 274.414 241.798 274.143 241.789C273.829 241.773 273.643 241.994 273.633 242.266L273.233 254.528C273.224 254.801 273.439 255.029 273.71 255.038C273.71 255.038 273.722 255.038 273.727 255.038Z" fill="url(#paint30_linear_130_2753)"/>
<path d="M271.597 255.037C271.325 255.025 271.115 254.793 271.128 254.522C271.324 250.402 271.697 242.546 271.702 242.278C271.704 242.008 271.925 241.789 272.196 241.789C272.468 241.789 272.689 242.01 272.689 242.282C272.689 242.486 272.209 252.552 272.113 254.568C272.1 254.833 271.883 255.038 271.62 255.038C271.613 255.038 271.605 255.038 271.597 255.037Z" fill="url(#paint31_linear_130_2753)"/>
<path d="M268.332 255.531C268.861 255.531 269.298 255.112 269.317 254.579C269.734 242.698 269.661 242.431 269.613 242.253C269.47 241.726 268.923 241.417 268.401 241.561C267.919 241.692 267.617 242.161 267.683 242.644C267.714 243.357 267.494 250.27 267.345 254.51C267.326 255.054 267.752 255.512 268.296 255.53C268.308 255.531 268.32 255.531 268.332 255.531Z" fill="url(#paint32_linear_130_2753)"/>
<path d="M266.193 255.038C266.466 255.038 266.687 254.817 266.687 254.545V242.513C266.687 242.24 266.466 242.02 266.193 242.02C265.921 242.02 265.7 242.24 265.7 242.513V254.545C265.7 254.817 265.921 255.038 266.193 255.038Z" fill="url(#paint33_linear_130_2753)"/>
<path d="M264.467 255.038C264.735 255.038 264.955 254.824 264.96 254.556C265.055 250.376 265.275 243.547 265.473 242.726C265.56 242.571 265.559 242.374 265.455 242.214C265.305 241.985 265 241.923 264.772 242.073C264.503 242.249 264.247 242.416 263.974 254.533C263.968 254.806 264.184 255.031 264.456 255.038L264.467 255.038Z" fill="url(#paint34_linear_130_2753)"/>
<path d="M277.952 256.133C278.473 256.133 278.909 255.725 278.937 255.198L279.595 242.563C279.623 242.019 279.204 241.555 278.66 241.527C278.144 241.49 277.652 241.917 277.623 242.461L276.965 255.095C276.937 255.64 277.355 256.103 277.9 256.132C277.917 256.133 277.934 256.133 277.952 256.133Z" fill="url(#paint35_linear_130_2753)"/>
<path d="M286.402 214.397V176.223C286.402 171.208 282.371 167.127 277.356 167.072C262.304 166.908 231.261 166.9 205.86 169.04C202.394 169.333 199.698 172.173 199.573 175.65L197.199 212.556C197.022 217.437 200.882 221.516 205.766 221.608L277.659 222.975C282.46 223.066 286.402 219.199 286.402 214.397Z" fill="url(#paint36_linear_130_2753)"/>
<path d="M277.684 180.354C277.748 183.602 277.652 188.756 277.573 192.085C277.532 193.818 276.011 195.138 274.29 194.936L261.903 193.484C260.252 193.291 259.09 191.77 259.336 190.127L260.857 179.984C261.073 178.544 262.309 177.479 263.765 177.479H274.743C276.343 177.479 277.652 178.754 277.684 180.354Z" fill="white"/>
<path opacity="0.37" d="M245.313 199.576L234.979 200.691C233.534 200.847 232.3 199.654 232.406 198.204L234.665 167.466C238.997 167.329 243.27 167.229 247.392 167.158V197.26C247.392 198.45 246.495 199.448 245.313 199.576Z" fill="white"/>
<path d="M241.077 194.248C241.045 194.801 240.587 195.228 240.04 195.228C240.02 195.228 240 195.227 239.979 195.225C239.406 195.192 238.969 194.701 239.002 194.128L240.56 167.301C241.259 167.284 241.952 167.268 242.645 167.253L241.077 194.248Z" fill="white"/>
<path d="M271.955 190.036C272.137 190.036 272.29 189.895 272.301 189.711L272.837 181.261C272.849 181.07 272.704 180.906 272.513 180.894C272.312 180.878 272.158 181.027 272.146 181.218L271.61 189.668C271.598 189.858 271.742 190.023 271.934 190.035C271.941 190.036 271.949 190.036 271.955 190.036Z" fill="url(#paint37_linear_130_2753)"/>
<path d="M270.853 190.035C271.039 190.035 271.193 189.888 271.199 189.7L271.48 181.089C271.486 180.897 271.336 180.737 271.145 180.731C270.924 180.72 270.794 180.875 270.787 181.066L270.506 189.677C270.5 189.869 270.65 190.029 270.841 190.035C270.841 190.035 270.849 190.035 270.853 190.035Z" fill="url(#paint38_linear_130_2753)"/>
<path d="M269.357 190.035C269.165 190.026 269.018 189.864 269.027 189.673C269.165 186.78 269.427 181.263 269.431 181.075C269.432 180.885 269.587 180.731 269.777 180.731C269.969 180.731 270.124 180.886 270.124 181.078C270.124 181.221 269.787 188.29 269.719 189.706C269.71 189.892 269.557 190.036 269.373 190.036C269.368 190.036 269.362 190.036 269.357 190.035Z" fill="url(#paint39_linear_130_2753)"/>
<path d="M267.064 190.383C267.435 190.383 267.742 190.088 267.755 189.714C268.048 181.371 267.997 181.183 267.963 181.058C267.863 180.688 267.478 180.471 267.112 180.572C266.773 180.664 266.561 180.993 266.607 181.332C266.63 181.834 266.475 186.688 266.371 189.665C266.357 190.048 266.656 190.369 267.038 190.382C267.047 190.383 267.055 190.383 267.064 190.383Z" fill="url(#paint40_linear_130_2753)"/>
<path d="M265.562 190.036C265.754 190.036 265.909 189.881 265.909 189.69V181.24C265.909 181.048 265.754 180.894 265.562 180.894C265.371 180.894 265.216 181.048 265.216 181.24V189.69C265.216 189.881 265.371 190.036 265.562 190.036Z" fill="url(#paint41_linear_130_2753)"/>
<path d="M264.349 190.036C264.538 190.036 264.692 189.885 264.696 189.697C264.762 186.761 264.917 181.965 265.056 181.389C265.117 181.28 265.116 181.142 265.043 181.03C264.938 180.869 264.724 180.825 264.563 180.93C264.375 181.054 264.195 181.171 264.003 189.681C263.999 189.873 264.151 190.031 264.341 190.036L264.349 190.036Z" fill="url(#paint42_linear_130_2753)"/>
<path d="M273.82 190.805C274.186 190.805 274.492 190.518 274.511 190.148L274.973 181.276C274.993 180.893 274.699 180.568 274.317 180.547C273.955 180.522 273.609 180.821 273.589 181.204L273.127 190.076C273.107 190.459 273.401 190.784 273.783 190.805C273.795 190.805 273.808 190.805 273.82 190.805Z" fill="url(#paint43_linear_130_2753)"/>
<path d="M232.577 293.213V255.039C232.577 250.024 229.094 245.943 224.76 245.889C211.752 245.725 184.923 245.716 162.972 247.857C159.976 248.149 157.646 250.99 157.538 254.466L155.486 291.372C155.334 296.254 158.669 300.332 162.89 300.425L225.022 301.791C229.171 301.882 232.577 298.015 232.577 293.213Z" fill="url(#paint44_linear_130_2753)"/>
<path d="M225.043 259.17C225.099 262.418 225.015 267.572 224.947 270.902C224.912 272.634 223.597 273.954 222.11 273.752L211.405 272.301C209.979 272.107 208.974 270.586 209.187 268.943L210.501 258.8C210.687 257.36 211.756 256.295 213.015 256.295H222.502C223.884 256.295 225.016 257.571 225.043 259.17Z" fill="white"/>
<path opacity="0.37" d="M197.067 278.392L188.137 279.507C186.887 279.663 185.821 278.471 185.913 277.02L187.865 246.283C191.609 246.145 195.301 246.045 198.864 245.975V276.076C198.864 277.266 198.09 278.265 197.067 278.392Z" fill="white"/>
<path d="M193.407 273.065C193.38 273.618 192.984 274.044 192.511 274.044C192.493 274.044 192.476 274.043 192.458 274.042C191.963 274.009 191.585 273.518 191.614 272.944L192.96 246.118C193.564 246.1 194.163 246.085 194.762 246.069L193.407 273.065Z" fill="white"/>
<path d="M220.092 268.852C220.249 268.852 220.381 268.711 220.391 268.527L220.854 260.078C220.865 259.887 220.739 259.722 220.574 259.71C220.4 259.694 220.267 259.843 220.256 260.034L219.793 268.484C219.783 268.675 219.908 268.839 220.073 268.851C220.08 268.852 220.086 268.852 220.092 268.852Z" fill="url(#paint45_linear_130_2753)"/>
<path d="M219.139 268.852C219.3 268.852 219.433 268.704 219.438 268.517L219.681 259.905C219.686 259.714 219.557 259.554 219.392 259.547C219.201 259.537 219.088 259.692 219.082 259.882L218.84 268.494C218.834 268.685 218.964 268.846 219.129 268.852C219.129 268.852 219.136 268.852 219.139 268.852Z" fill="url(#paint46_linear_130_2753)"/>
<path d="M217.847 268.852C217.681 268.843 217.554 268.68 217.562 268.49C217.681 265.597 217.907 260.079 217.91 259.891C217.912 259.701 218.046 259.548 218.21 259.548C218.375 259.548 218.509 259.703 218.509 259.894C218.509 260.037 218.218 267.106 218.16 268.522C218.152 268.708 218.02 268.852 217.861 268.852C217.856 268.852 217.851 268.852 217.847 268.852Z" fill="url(#paint47_linear_130_2753)"/>
<path d="M215.865 269.199C216.186 269.199 216.452 268.905 216.463 268.531C216.716 260.187 216.671 259.999 216.642 259.875C216.556 259.504 216.223 259.287 215.907 259.388C215.614 259.481 215.431 259.81 215.471 260.148C215.49 260.65 215.356 265.504 215.266 268.482C215.254 268.864 215.513 269.186 215.843 269.198C215.85 269.199 215.858 269.199 215.865 269.199Z" fill="url(#paint48_linear_130_2753)"/>
<path d="M214.567 268.853C214.732 268.853 214.866 268.698 214.866 268.506V260.056C214.866 259.865 214.732 259.71 214.567 259.71C214.401 259.71 214.268 259.865 214.268 260.056V268.506C214.267 268.698 214.401 268.853 214.567 268.853Z" fill="url(#paint49_linear_130_2753)"/>
<path d="M213.519 268.852C213.682 268.852 213.815 268.702 213.818 268.514C213.876 265.578 214.01 260.782 214.13 260.205C214.182 260.096 214.182 259.958 214.119 259.846C214.028 259.685 213.843 259.642 213.704 259.747C213.541 259.87 213.386 259.987 213.22 268.497C213.216 268.689 213.347 268.847 213.512 268.852L213.519 268.852Z" fill="url(#paint50_linear_130_2753)"/>
<path d="M221.704 269.622C222.02 269.622 222.285 269.335 222.301 268.965L222.701 260.092C222.718 259.71 222.464 259.384 222.133 259.364C221.82 259.338 221.522 259.638 221.504 260.02L221.105 268.893C221.088 269.275 221.342 269.601 221.672 269.621C221.683 269.622 221.693 269.622 221.704 269.622Z" fill="url(#paint51_linear_130_2753)"/>
<defs>
<linearGradient id="paint0_linear_130_2753" x1="340.242" y1="389.578" x2="72.9613" y2="57.6314" gradientUnits="userSpaceOnUse">
<stop stop-color="#DAE3FE"/>
<stop offset="1" stop-color="#E9EFFD"/>
</linearGradient>
<linearGradient id="paint1_linear_130_2753" x1="21.3838" y1="143.084" x2="303.435" y2="143.084" gradientUnits="userSpaceOnUse">
<stop stop-color="#4F52FF"/>
<stop offset="1" stop-color="#4042E2"/>
</linearGradient>
<linearGradient id="paint2_linear_130_2753" x1="243.798" y1="-78.2012" x2="100.336" y2="207.628" gradientUnits="userSpaceOnUse">
<stop stop-color="#09005D"/>
<stop offset="1" stop-color="#1A0F91"/>
</linearGradient>
<linearGradient id="paint3_linear_130_2753" x1="130.605" y1="-56.3646" x2="127.685" y2="-10.3733" gradientUnits="userSpaceOnUse">
<stop stop-color="#09005D"/>
<stop offset="1" stop-color="#1A0F91"/>
</linearGradient>
<linearGradient id="paint4_linear_130_2753" x1="168.303" y1="205.038" x2="185.558" y2="205.038" gradientUnits="userSpaceOnUse">
<stop stop-color="#DAE3FE"/>
<stop offset="1" stop-color="#E9EFFD"/>
</linearGradient>
<linearGradient id="paint5_linear_130_2753" x1="140.651" y1="241.538" x2="184.604" y2="241.538" gradientUnits="userSpaceOnUse">
<stop stop-color="#DAE3FE"/>
<stop offset="1" stop-color="#E9EFFD"/>
</linearGradient>
<linearGradient id="paint6_linear_130_2753" x1="101.331" y1="161.118" x2="187.914" y2="161.118" gradientUnits="userSpaceOnUse">
<stop stop-color="#DAE3FE"/>
<stop offset="1" stop-color="#E9EFFD"/>
</linearGradient>
<linearGradient id="paint7_linear_130_2753" x1="101.138" y1="255.239" x2="159.915" y2="255.239" gradientUnits="userSpaceOnUse">
<stop stop-color="#DAE3FE"/>
<stop offset="1" stop-color="#E9EFFD"/>
</linearGradient>
<linearGradient id="paint8_linear_130_2753" x1="70.4115" y1="232.997" x2="124.914" y2="232.997" gradientUnits="userSpaceOnUse">
<stop stop-color="#DAE3FE"/>
<stop offset="1" stop-color="#E9EFFD"/>
</linearGradient>
<linearGradient id="paint9_linear_130_2753" x1="117.728" y1="85.8455" x2="188.746" y2="85.8455" gradientUnits="userSpaceOnUse">
<stop stop-color="#DAE3FE"/>
<stop offset="1" stop-color="#E9EFFD"/>
</linearGradient>
<linearGradient id="paint10_linear_130_2753" x1="88.4644" y1="63.0683" x2="134.157" y2="63.0683" gradientUnits="userSpaceOnUse">
<stop stop-color="#DAE3FE"/>
<stop offset="1" stop-color="#E9EFFD"/>
</linearGradient>
<linearGradient id="paint11_linear_130_2753" x1="67.5927" y1="135.803" x2="140.913" y2="135.803" gradientUnits="userSpaceOnUse">
<stop stop-color="#DAE3FE"/>
<stop offset="1" stop-color="#E9EFFD"/>
</linearGradient>
<linearGradient id="paint12_linear_130_2753" x1="64.5922" y1="85.76" x2="101.498" y2="85.76" gradientUnits="userSpaceOnUse">
<stop stop-color="#DAE3FE"/>
<stop offset="1" stop-color="#E9EFFD"/>
</linearGradient>
<linearGradient id="paint13_linear_130_2753" x1="89.9936" y1="98.882" x2="77.726" y2="129.655" gradientUnits="userSpaceOnUse">
<stop stop-color="#09005D"/>
<stop offset="1" stop-color="#1A0F91"/>
</linearGradient>
<linearGradient id="paint14_linear_130_2753" x1="118.84" y1="122.335" x2="85.8245" y2="167.971" gradientUnits="userSpaceOnUse">
<stop stop-color="#FEBBBA"/>
<stop offset="1" stop-color="#FF928E"/>
</linearGradient>
<linearGradient id="paint15_linear_130_2753" x1="45.1485" y1="295.896" x2="34.746" y2="295.896" gradientUnits="userSpaceOnUse">
<stop stop-color="#4F52FF"/>
<stop offset="1" stop-color="#4042E2"/>
</linearGradient>
<linearGradient id="paint16_linear_130_2753" x1="89.1045" y1="336.918" x2="74.1345" y2="161.956" gradientUnits="userSpaceOnUse">
<stop stop-color="#FEBBBA"/>
<stop offset="1" stop-color="#FF928E"/>
</linearGradient>
<linearGradient id="paint17_linear_130_2753" x1="93.4776" y1="293.996" x2="76.6455" y2="293.996" gradientUnits="userSpaceOnUse">
<stop stop-color="#4F52FF"/>
<stop offset="1" stop-color="#4042E2"/>
</linearGradient>
<linearGradient id="paint18_linear_130_2753" x1="58.9916" y1="339.52" x2="44.0177" y2="164.513" gradientUnits="userSpaceOnUse">
<stop stop-color="#FEBBBA"/>
<stop offset="1" stop-color="#FF928E"/>
</linearGradient>
<linearGradient id="paint19_linear_130_2753" x1="180.079" y1="132.083" x2="134.817" y2="148.874" gradientUnits="userSpaceOnUse">
<stop stop-color="#FF928E"/>
<stop offset="1" stop-color="#FE7062"/>
</linearGradient>
<linearGradient id="paint20_linear_130_2753" x1="47.5018" y1="163.889" x2="84.9288" y2="223.772" gradientUnits="userSpaceOnUse">
<stop stop-color="#4F52FF"/>
<stop offset="1" stop-color="#4042E2"/>
</linearGradient>
<linearGradient id="paint21_linear_130_2753" x1="90.7463" y1="164.458" x2="87.9342" y2="143.886" gradientUnits="userSpaceOnUse">
<stop stop-color="#FEBBBA"/>
<stop offset="1" stop-color="#FF928E"/>
</linearGradient>
<linearGradient id="paint22_linear_130_2753" x1="79.1563" y1="174.482" x2="60.476" y2="174.482" gradientUnits="userSpaceOnUse">
<stop stop-color="#FEBBBA"/>
<stop offset="1" stop-color="#FF928E"/>
</linearGradient>
<linearGradient id="paint23_linear_130_2753" x1="95.7533" y1="139.682" x2="80.1699" y2="92.0823" gradientUnits="userSpaceOnUse">
<stop stop-color="#FEBBBA"/>
<stop offset="1" stop-color="#FF928E"/>
</linearGradient>
<linearGradient id="paint24_linear_130_2753" x1="97.9658" y1="101.357" x2="79.9525" y2="129.16" gradientUnits="userSpaceOnUse">
<stop stop-color="#09005D"/>
<stop offset="1" stop-color="#1A0F91"/>
</linearGradient>
<linearGradient id="paint25_linear_130_2753" x1="90.0599" y1="141.546" x2="74.4766" y2="93.9465" gradientUnits="userSpaceOnUse">
<stop stop-color="#FEBBBA"/>
<stop offset="1" stop-color="#FF928E"/>
</linearGradient>
<linearGradient id="paint26_linear_130_2753" x1="122.804" y1="125.203" x2="89.7883" y2="170.839" gradientUnits="userSpaceOnUse">
<stop stop-color="#FEBBBA"/>
<stop offset="1" stop-color="#FF928E"/>
</linearGradient>
<linearGradient id="paint27_linear_130_2753" x1="131.916" y1="108.561" x2="138.018" y2="108.561" gradientUnits="userSpaceOnUse">
<stop stop-color="#FEBBBA"/>
<stop offset="1" stop-color="#FF928E"/>
</linearGradient>
<linearGradient id="paint28_linear_130_2753" x1="299.728" y1="195.578" x2="237.676" y2="259.089" gradientUnits="userSpaceOnUse">
<stop stop-color="#FF928E"/>
<stop offset="1" stop-color="#FE7062"/>
</linearGradient>
<linearGradient id="paint29_linear_130_2753" x1="269.714" y1="239.861" x2="301.288" y2="285.742" gradientUnits="userSpaceOnUse">
<stop stop-color="#09005D"/>
<stop offset="1" stop-color="#1A0F91"/>
</linearGradient>
<linearGradient id="paint30_linear_130_2753" x1="268.579" y1="240.643" x2="300.153" y2="286.523" gradientUnits="userSpaceOnUse">
<stop stop-color="#09005D"/>
<stop offset="1" stop-color="#1A0F91"/>
</linearGradient>
<linearGradient id="paint31_linear_130_2753" x1="267.209" y1="241.585" x2="298.783" y2="287.466" gradientUnits="userSpaceOnUse">
<stop stop-color="#09005D"/>
<stop offset="1" stop-color="#1A0F91"/>
</linearGradient>
<linearGradient id="paint32_linear_130_2753" x1="264.84" y1="243.216" x2="296.414" y2="289.096" gradientUnits="userSpaceOnUse">
<stop stop-color="#09005D"/>
<stop offset="1" stop-color="#1A0F91"/>
</linearGradient>
<linearGradient id="paint33_linear_130_2753" x1="263.277" y1="244.291" x2="294.851" y2="290.171" gradientUnits="userSpaceOnUse">
<stop stop-color="#09005D"/>
<stop offset="1" stop-color="#1A0F91"/>
</linearGradient>
<linearGradient id="paint34_linear_130_2753" x1="262.308" y1="244.959" x2="293.881" y2="290.839" gradientUnits="userSpaceOnUse">
<stop stop-color="#09005D"/>
<stop offset="1" stop-color="#1A0F91"/>
</linearGradient>
<linearGradient id="paint35_linear_130_2753" x1="271.339" y1="238.743" x2="302.912" y2="284.624" gradientUnits="userSpaceOnUse">
<stop stop-color="#09005D"/>
<stop offset="1" stop-color="#1A0F91"/>
</linearGradient>
<linearGradient id="paint36_linear_130_2753" x1="283.216" y1="166.232" x2="221.164" y2="211.493" gradientUnits="userSpaceOnUse">
<stop stop-color="#FF928E"/>
<stop offset="1" stop-color="#FE7062"/>
</linearGradient>
<linearGradient id="paint37_linear_130_2753" x1="268.035" y1="179.377" x2="290.208" y2="211.598" gradientUnits="userSpaceOnUse">
<stop stop-color="#09005D"/>
<stop offset="1" stop-color="#1A0F91"/>
</linearGradient>
<linearGradient id="paint38_linear_130_2753" x1="267.237" y1="179.926" x2="289.411" y2="212.147" gradientUnits="userSpaceOnUse">
<stop stop-color="#09005D"/>
<stop offset="1" stop-color="#1A0F91"/>
</linearGradient>
<linearGradient id="paint39_linear_130_2753" x1="266.275" y1="180.588" x2="288.449" y2="212.809" gradientUnits="userSpaceOnUse">
<stop stop-color="#09005D"/>
<stop offset="1" stop-color="#1A0F91"/>
</linearGradient>
<linearGradient id="paint40_linear_130_2753" x1="264.611" y1="181.734" x2="286.785" y2="213.955" gradientUnits="userSpaceOnUse">
<stop stop-color="#09005D"/>
<stop offset="1" stop-color="#1A0F91"/>
</linearGradient>
<linearGradient id="paint41_linear_130_2753" x1="263.514" y1="182.489" x2="285.688" y2="214.71" gradientUnits="userSpaceOnUse">
<stop stop-color="#09005D"/>
<stop offset="1" stop-color="#1A0F91"/>
</linearGradient>
<linearGradient id="paint42_linear_130_2753" x1="262.833" y1="182.957" x2="285.006" y2="215.178" gradientUnits="userSpaceOnUse">
<stop stop-color="#09005D"/>
<stop offset="1" stop-color="#1A0F91"/>
</linearGradient>
<linearGradient id="paint43_linear_130_2753" x1="269.176" y1="178.593" x2="291.349" y2="210.813" gradientUnits="userSpaceOnUse">
<stop stop-color="#09005D"/>
<stop offset="1" stop-color="#1A0F91"/>
</linearGradient>
<linearGradient id="paint44_linear_130_2753" x1="212.479" y1="244.019" x2="179.629" y2="300.96" gradientUnits="userSpaceOnUse">
<stop stop-color="#FF928E"/>
<stop offset="1" stop-color="#FE7062"/>
</linearGradient>
<linearGradient id="paint45_linear_130_2753" x1="216.128" y1="258.184" x2="238.338" y2="290.459" gradientUnits="userSpaceOnUse">
<stop stop-color="#09005D"/>
<stop offset="1" stop-color="#1A0F91"/>
</linearGradient>
<linearGradient id="paint46_linear_130_2753" x1="215.509" y1="258.748" x2="237.659" y2="290.935" gradientUnits="userSpaceOnUse">
<stop stop-color="#09005D"/>
<stop offset="1" stop-color="#1A0F91"/>
</linearGradient>
<linearGradient id="paint47_linear_130_2753" x1="214.734" y1="259.403" x2="236.915" y2="291.634" gradientUnits="userSpaceOnUse">
<stop stop-color="#09005D"/>
<stop offset="1" stop-color="#1A0F91"/>
</linearGradient>
<linearGradient id="paint48_linear_130_2753" x1="213.409" y1="260.568" x2="235.476" y2="292.633" gradientUnits="userSpaceOnUse">
<stop stop-color="#09005D"/>
<stop offset="1" stop-color="#1A0F91"/>
</linearGradient>
<linearGradient id="paint49_linear_130_2753" x1="212.527" y1="261.316" x2="234.617" y2="293.416" gradientUnits="userSpaceOnUse">
<stop stop-color="#09005D"/>
<stop offset="1" stop-color="#1A0F91"/>
</linearGradient>
<linearGradient id="paint50_linear_130_2753" x1="211.975" y1="261.773" x2="234.154" y2="294.002" gradientUnits="userSpaceOnUse">
<stop stop-color="#09005D"/>
<stop offset="1" stop-color="#1A0F91"/>
</linearGradient>
<linearGradient id="paint51_linear_130_2753" x1="217.04" y1="257.427" x2="239.158" y2="289.566" gradientUnits="userSpaceOnUse">
<stop stop-color="#09005D"/>
<stop offset="1" stop-color="#1A0F91"/>
</linearGradient>
</defs>
</svg>
