<svg width="45" height="40" viewBox="0 0 45 40" fill="none" xmlns="http://www.w3.org/2000/svg">
<path d="M4.33333 40V11.3333L0 1.88889L4 0L9.22222 11.2222H35L40.2222 0L44.2222 1.88889L39.8889 11.3333V40H4.33333ZM17.6667 24.4444H26.5556C27.1852 24.4444 27.7133 24.2311 28.14 23.8044C28.5667 23.3778 28.7793 22.8504 28.7778 22.2222C28.7763 21.5941 28.563 21.0667 28.1378 20.64C27.7126 20.2133 27.1852 20 26.5556 20H17.6667C17.037 20 16.5096 20.2133 16.0844 20.64C15.6593 21.0667 15.4459 21.5941 15.4444 22.2222C15.443 22.8504 15.6563 23.3785 16.0844 23.8067C16.5126 24.2348 17.04 24.4474 17.6667 24.4444Z" fill="#AB090C"/>
</svg>
