<svg width="40" height="40" viewBox="0 0 40 40" fill="none" xmlns="http://www.w3.org/2000/svg">
<path d="M19.3221 0.0661562C19.7693 -0.0220521 20.2309 -0.0220521 20.6801 0.0661562C21.195 0.164621 21.6627 0.408732 22.0976 0.634381L22.2063 0.691819L39.171 9.47162C39.4214 9.60133 39.6313 9.79737 39.7779 10.0383C39.9244 10.2793 40.0019 10.5558 40.0018 10.8378V27.0374C40.0018 27.6179 40.0059 28.2333 39.8111 28.8056C39.6395 29.3042 39.3633 29.7603 39.0008 30.1431C38.5802 30.5821 38.0305 30.8631 37.5176 31.1278L37.3884 31.1955L20.7088 39.8276C20.4901 39.9409 20.2474 40 20.0011 40C19.7548 40 19.5121 39.9409 19.2934 39.8276L2.61384 31.1955L2.48461 31.1278C1.97177 30.8631 1.42201 30.5821 1.00148 30.1431C0.638993 29.7603 0.362703 29.3042 0.191195 28.8056C-0.00368411 28.2313 -0.00163262 27.6158 0.000418735 27.0353V10.8378C0.00039587 10.5558 0.077876 10.2793 0.224394 10.0383C0.370912 9.79737 0.580831 9.60133 0.831217 9.47162L17.7939 0.691819L17.9026 0.636432C18.3395 0.408732 18.8052 0.164621 19.3221 0.0661562ZM19.7857 3.13498C19.5908 3.22704 19.3979 3.32348 19.2073 3.42422L4.96059 10.7988L10.7598 13.6379L25.8495 6.04175L20.7929 3.42422C20.6023 3.32348 20.4094 3.22704 20.2145 3.13498L20.0955 3.08575M29.224 7.78745L14.2286 15.3364L20.0011 18.1591L35.0417 10.7988L29.224 7.78745ZM18.4626 35.932V20.8341L12.3085 17.8206V19.872C12.3085 20.28 12.1465 20.6714 11.8579 20.9599C11.5694 21.2484 11.1781 21.4105 10.77 21.4105C10.362 21.4105 9.97066 21.2484 9.68213 20.9599C9.39361 20.6714 9.23151 20.28 9.23151 19.872V16.3149L3.07745 13.3035V26.8917C3.07745 27.2753 3.07745 27.4948 3.08771 27.661L3.10617 27.821C3.13271 27.8926 3.17236 27.9587 3.2231 28.0159C3.23335 28.0241 3.26617 28.0507 3.35438 28.102C3.49388 28.1882 3.68875 28.2866 4.02723 28.4631L18.4626 35.932Z" fill="#11CCB0"/>
</svg>
