<svg width="38" height="40" viewBox="0 0 38 40" fill="none" xmlns="http://www.w3.org/2000/svg">
<path d="M16.4706 0C13.9744 0 11.5805 0.991594 9.81547 2.75664C8.05042 4.52169 7.05882 6.91561 7.05882 9.41177C7.05882 11.9079 8.05042 14.3018 9.81547 16.0669C11.5805 17.8319 13.9744 18.8235 16.4706 18.8235C18.9667 18.8235 21.3607 17.8319 23.1257 16.0669C24.8908 14.3018 25.8824 11.9079 25.8824 9.41177C25.8824 6.91561 24.8908 4.52169 23.1257 2.75664C21.3607 0.991594 18.9667 0 16.4706 0ZM9.41177 9.41177C9.41177 7.53965 10.1555 5.74421 11.4792 4.42042C12.803 3.09664 14.5985 2.35294 16.4706 2.35294C18.3427 2.35294 20.1381 3.09664 21.4619 4.42042C22.7857 5.74421 23.5294 7.53965 23.5294 9.41177C23.5294 11.2839 22.7857 13.0793 21.4619 14.4031C20.1381 15.7269 18.3427 16.4706 16.4706 16.4706C14.5985 16.4706 12.803 15.7269 11.4792 14.4031C10.1555 13.0793 9.41177 11.2839 9.41177 9.41177ZM4.72706 21.1765C4.10729 21.1737 3.49308 21.2933 2.91969 21.5286C2.3463 21.7638 1.82503 22.11 1.3858 22.5473C0.946573 22.9845 0.598045 23.5043 0.360229 24.0766C0.122413 24.6489 -6.27497e-06 25.2626 2.41239e-10 25.8824C2.4124e-10 29.8612 1.96 32.8612 5.02353 34.8165C8.04 36.7388 12.1059 37.6471 16.4706 37.6471C17.04 37.6471 17.6031 37.6314 18.16 37.6C17.4429 37.4982 16.759 37.2323 16.1616 36.823C15.5641 36.4136 15.0691 35.8719 14.7153 35.24C11.3647 35.0282 8.44 34.2047 6.28941 32.8306C3.81882 31.2541 2.35294 28.9647 2.35294 25.8824C2.35294 24.5812 3.40706 23.5294 4.72706 23.5294H14.1176C14.1176 22.6729 14.3459 21.8682 14.7482 21.1765H4.72706ZM16.4706 23.5294C16.4706 22.9054 16.7185 22.3069 17.1597 21.8656C17.601 21.4244 18.1995 21.1765 18.8235 21.1765H35.2941C35.9182 21.1765 36.5166 21.4244 36.9579 21.8656C37.3992 22.3069 37.6471 22.9054 37.6471 23.5294V32.9412C37.6471 33.5652 37.3992 34.1637 36.9579 34.605C36.5166 35.0462 35.9182 35.2941 35.2941 35.2941H30.5882V37.6471H31.7647C32.0767 37.6471 32.376 37.771 32.5966 37.9916C32.8172 38.2123 32.9412 38.5115 32.9412 38.8235C32.9412 39.1356 32.8172 39.4348 32.5966 39.6554C32.376 39.8761 32.0767 40 31.7647 40H22.3529C22.0409 40 21.7417 39.8761 21.5211 39.6554C21.3004 39.4348 21.1765 39.1356 21.1765 38.8235C21.1765 38.5115 21.3004 38.2123 21.5211 37.9916C21.7417 37.771 22.0409 37.6471 22.3529 37.6471H23.5294V35.2941H18.8235C18.1995 35.2941 17.601 35.0462 17.1597 34.605C16.7185 34.1637 16.4706 33.5652 16.4706 32.9412V23.5294Z" fill="#D50104"/>
</svg>
