<svg width="40" height="42" viewBox="0 0 40 42" fill="none" xmlns="http://www.w3.org/2000/svg">
<mask id="mask0_13_256" style="mask-type:luminance" maskUnits="userSpaceOnUse" x="0" y="0" width="40" height="42">
<path d="M1 3.99996C1 3.20432 1.31607 2.44127 1.87867 1.87867C2.44127 1.31607 3.20432 1 3.99996 1H27.9996C28.7953 1 29.5583 1.31607 30.1209 1.87867C30.6835 2.44127 30.9996 3.20432 30.9996 3.99996V40.9995H3.99996C3.20432 40.9995 2.44127 40.6834 1.87867 40.1208C1.31607 39.5582 1 38.7952 1 37.9995V3.99996Z" fill="white" stroke="white" stroke-width="2" stroke-linejoin="round"/>
<path d="M30.9995 21C30.9995 20.4695 31.2102 19.9608 31.5853 19.5858C31.9604 19.2107 32.4691 19 32.9995 19H36.9994C37.5299 19 38.0386 19.2107 38.4136 19.5858C38.7887 19.9608 38.9994 20.4695 38.9994 21V37.9998C38.9994 38.7954 38.6833 39.5584 38.1207 40.121C37.5581 40.6836 36.7951 40.9997 35.9994 40.9997H30.9995V21Z" stroke="white" stroke-width="2" stroke-linejoin="round"/>
<path d="M7 9H14.9999M7 15.9999H18.9998" stroke="black" stroke-width="2" stroke-linecap="round" stroke-linejoin="round"/>
</mask>
<g mask="url(#mask0_13_256)">
<path d="M-4 -3H43.9994V44.9994H-4V-3Z" fill="#CC6B11"/>
</g>
</svg>
