<svg width="13" height="16" viewBox="0 0 13 16" fill="none" xmlns="http://www.w3.org/2000/svg">
<path d="M5.1247 14.9895C5.56118 15.3496 6.01639 15.6788 6.4824 16C6.94942 15.683 7.40241 15.3459 7.8401 14.9895C8.56973 14.3904 9.25639 13.7408 9.89502 13.0455C11.3672 11.4357 12.9648 9.10201 12.9648 6.4824C12.9648 5.63112 12.7971 4.78817 12.4714 4.00169C12.1456 3.21521 11.6681 2.5006 11.0661 1.89865C10.4642 1.2967 9.74959 0.819214 8.9631 0.493443C8.17662 0.167672 7.33368 0 6.4824 0C5.63112 0 4.78817 0.167672 4.00169 0.493443C3.21521 0.819214 2.5006 1.2967 1.89865 1.89865C1.2967 2.5006 0.819214 3.21521 0.493443 4.00169C0.167672 4.78817 -1.26851e-08 5.63112 0 6.4824C0 9.10201 1.59755 11.4349 3.06978 13.0455C3.70838 13.741 4.39504 14.3901 5.1247 14.9895ZM6.4824 8.82326C5.86156 8.82326 5.26615 8.57664 4.82716 8.13764C4.38816 7.69864 4.14153 7.10323 4.14153 6.4824C4.14153 5.86156 4.38816 5.26615 4.82716 4.82716C5.26615 4.38816 5.86156 4.14153 6.4824 4.14153C7.10323 4.14153 7.69864 4.38816 8.13764 4.82716C8.57664 5.26615 8.82326 5.86156 8.82326 6.4824C8.82326 7.10323 8.57664 7.69864 8.13764 8.13764C7.69864 8.57664 7.10323 8.82326 6.4824 8.82326Z" fill="white"/>
</svg>
