<?xml version="1.0" encoding="UTF-8" standalone="no"?>
<svg
   width="93.878593"
   height="62.49316"
   viewBox="0 0 93.878593 62.49316"
   version="1.1"
   id="svg6"
   sodipodi:docname="315949ff623122869508aabcd20d62f0.svg"
   xmlns:inkscape="http://www.inkscape.org/namespaces/inkscape"
   xmlns:sodipodi="http://sodipodi.sourceforge.net/DTD/sodipodi-0.dtd"
   xmlns="http://www.w3.org/2000/svg"
   xmlns:svg="http://www.w3.org/2000/svg">
  <defs
     id="defs10" />
  <sodipodi:namedview
     id="namedview8"
     pagecolor="#ffffff"
     bordercolor="#666666"
     borderopacity="1.0"
     inkscape:pageshadow="2"
     inkscape:pageopacity="0.0"
     inkscape:pagecheckerboard="0" />
  <path
     d="m 49.82639,0.406249 h 20.9913 c 3.4821,0 6.6357,0.42705 9.4609,1.28116 2.8251,0.85411 5.256,2.10242 7.2927,3.74493 2.0367,1.57681 3.5807,3.54783 4.6319,5.91302 1.1169,2.2995 1.6754,4.9604 1.6754,7.9826 0,3.4822 -0.6242,6.4715 -1.8725,8.9681 -1.2483,2.4967 -2.9565,4.5991 -5.1246,6.3073 -2.1682,1.6425 -4.7305,2.858 -7.687,3.6464 -2.9565,0.7884 -6.143,1.1826 -9.5594,1.1826 h -7.7855 v 23.0608 h -12.0232 z m 12.0232,29.66381 h 5.5188 c 1.971,0 3.8106,-0.1643 5.5188,-0.4928 1.7083,-0.3285 3.1865,-0.8869 4.4348,-1.6754 1.314,-0.7884 2.3324,-1.8396 3.0551,-3.1536 0.7227,-1.314 1.0841,-2.9565 1.0841,-4.9275 0,-1.7739 -0.3285,-3.285 -0.9855,-4.5333 -0.6571,-1.3141 -1.5769,-2.3653 -2.7595,-3.1537 -1.1169,-0.8541 -2.4309,-1.4782 -3.942,-1.8724 -1.5111,-0.3942 -3.0879,-0.5913 -4.7304,-0.5913 h -7.1942 z"
     fill="#222222"
     id="path2" />
  <path
     d="m 44.05219,0 h -20.9913 c -3.4821,0 -6.6358,0.427049 -9.4609,1.281159 -2.8251,0.85411 -5.256,2.10242 -7.29274,3.74493 -2.03672,1.57681 -3.58068,3.54783 -4.63189,5.91307 C 0.55845,13.238659 0,15.899559 0,18.921759 c 0,3.4821 0.62415,6.4715 1.87246,8.9681 1.24831,2.4966 2.95653,4.599 5.12463,6.3072 2.1681,1.6426 4.7304,2.858 7.687,3.6464 2.9565,0.7884 6.143,1.1826 9.5594,1.1826 h 7.7855 v 23.0609 h 12.0232 z m -12.0232,29.663759 h -5.5188 c -1.9711,0 -3.8107,-0.1642 -5.5189,-0.4927 -1.7082,-0.3285 -3.1865,-0.887 -4.4348,-1.6754 -1.314,-0.7884 -2.3323,-1.8396 -3.055,-3.1536 -0.7227,-1.314 -1.0841,-2.9566 -1.0841,-4.9276 0,-1.7739 0.3285,-3.285 0.9855,-4.5333 0.657,-1.314 1.5768,-2.3652 2.7594,-3.1536 1.1169,-0.8541 2.4309,-1.4783 3.9421,-1.8725 1.5111,-0.3942 3.0879,-0.5913 4.7304,-0.5913 h 7.1942 z"
     fill="#1155cc"
     id="path4" />
</svg>
