<svg width="23" height="20" viewBox="0 0 23 20" fill="none" xmlns="http://www.w3.org/2000/svg">
<path d="M12.8 0.200207C12.613 0.199454 12.4277 0.235727 12.2548 0.306934C12.082 0.378141 11.9249 0.482873 11.7927 0.615088C11.6604 0.747304 11.5557 0.904387 11.4845 1.07728C11.4133 1.25017 11.377 1.43545 11.3778 1.62243V5.26189C4.97778 5.97016 0 11.3902 0 17.978V19.4002C3.19289 14.5319 7.46666 13.8251 11.3778 13.727V17.2669C11.3771 17.5484 11.4602 17.8238 11.6164 18.0581C11.7725 18.2923 11.9948 18.4749 12.2549 18.5827C12.515 18.6904 12.8013 18.7184 13.0774 18.6632C13.3534 18.6079 13.6069 18.4719 13.8055 18.2724L22.7555 9.44465L13.8055 0.615495C13.5386 0.34928 13.177 0.19991 12.8 0.200207Z" fill="white"/>
</svg>
