<svg width="40" height="40" viewBox="0 0 40 40" fill="none" xmlns="http://www.w3.org/2000/svg">
<path d="M28.55 30.25L27.7 29.4C27.4 29.1 27.042 28.95 26.626 28.95C26.21 28.95 25.8513 29.1 25.55 29.4C25.2487 29.7 25.0987 30.05 25.1 30.45C25.1013 30.85 25.2513 31.2 25.55 31.5L27.5 33.45C27.8 33.75 28.15 33.9 28.55 33.9C28.95 33.9 29.3 33.75 29.6 33.45L34.45 28.7C34.75 28.4 34.9 28.0413 34.9 27.624C34.9 27.2067 34.75 26.8487 34.45 26.55C34.15 26.2513 33.7913 26.1013 33.374 26.1C32.9567 26.0987 32.5987 26.2487 32.3 26.55L28.55 30.25ZM28 12C28.5667 12 29.042 11.808 29.426 11.424C29.81 11.04 30.0013 10.5653 30 10C29.9987 9.43467 29.8067 8.96 29.424 8.576C29.0413 8.192 28.5667 8 28 8H8C7.43333 8 6.95867 8.192 6.576 8.576C6.19333 8.96 6.00133 9.43467 6 10C5.99867 10.5653 6.19067 11.0407 6.576 11.426C6.96133 11.8113 7.436 12.0027 8 12H28ZM30 40C27.2333 40 24.8753 39.0247 22.926 37.074C20.9767 35.1233 20.0013 32.7653 20 30C19.9987 27.2347 20.974 24.8767 22.926 22.926C24.878 20.9753 27.236 20 30 20C32.764 20 35.1227 20.9753 37.076 22.926C39.0293 24.8767 40.004 27.2347 40 30C39.996 32.7653 39.0207 35.124 37.074 37.076C35.1273 39.028 32.7693 40.0027 30 40ZM0 37.75V4C0 2.9 0.392 1.95867 1.176 1.176C1.96 0.393333 2.90133 0.00133333 4 0H32C33.1 0 34.042 0.392 34.826 1.176C35.61 1.96 36.0013 2.90133 36 4V15C36 15.5667 35.7667 16.0253 35.3 16.376C34.8333 16.7267 34.3167 16.818 33.75 16.65C32.8167 16.4167 31.8667 16.25 30.9 16.15C29.9333 16.05 28.9667 16 28 16H8C7.43333 16 6.95867 16.192 6.576 16.576C6.19333 16.96 6.00133 17.4347 6 18C5.99867 18.5653 6.19067 19.0407 6.576 19.426C6.96133 19.8113 7.436 20.0027 8 20H20.2C19.6333 20.5667 19.1087 21.1833 18.626 21.85C18.1433 22.5167 17.718 23.2333 17.35 24H8C7.43333 24 6.95867 24.192 6.576 24.576C6.19333 24.96 6.00133 25.4347 6 26C5.99867 26.5653 6.19067 27.0407 6.576 27.426C6.96133 27.8113 7.436 28.0027 8 28H16.15C16.0833 28.3333 16.042 28.6587 16.026 28.976C16.01 29.2933 16.0013 29.6347 16 30C16 30.8667 16.0833 31.7167 16.25 32.55C16.4167 33.3833 16.6333 34.2167 16.9 35.05C17.0667 35.4167 17 35.7087 16.7 35.926C16.4 36.1433 16.1167 36.118 15.85 35.85L15.7 35.7C15.5 35.5 15.2667 35.4 15 35.4C14.7333 35.4 14.5 35.5 14.3 35.7L12.7 37.3C12.5 37.5 12.2667 37.6 12 37.6C11.7333 37.6 11.5 37.5 11.3 37.3L9.7 35.7C9.5 35.5 9.26667 35.4 9 35.4C8.73333 35.4 8.5 35.5 8.3 35.7L6.7 37.3C6.5 37.5 6.26667 37.6 6 37.6C5.73333 37.6 5.5 37.5 5.3 37.3L3.7 35.7C3.5 35.5 3.26667 35.4 3 35.4C2.73333 35.4 2.5 35.5 2.3 35.7L0.7 37.3L0 37.75Z" fill="#07C617"/>
</svg>
